{
.appVersion = "1356";
DisplayStrings = (
"L/Lcaron",
"/caroncomb.alt",
"L/Lcaron",
"/Ldot",
"N/Nacute",
"OÓ",
"Ø/Oslashacute",
"R/Racute",
"S/Sacute",
"T/Tcaron",
"UÚ",
"W/Wacute",
"Y/Ycircumflex",
"Z/Zacute",
"aá",
"æ/aeacute",
"cd/dcaron",
"eé",
"hh/idotless/idotless/iogonek",
"j/ij",
"/ij",
"l/lacute",
"·/ldot",
"n/nacute",
"/napostrophe",
"oó",
"oøø/oslashacute",
"r/racute",
"uú",
"s/sacute",
"t/tcaron",
"z/zacute",
"u/uring",
"u/uhungarumlaut",
"/ubreve",
"u/utilde",
"i/idotbelow",
"/ohorn",
"U/Uhorn",
"O/Ohorn",
"/circumflexcomb/circumflexcomb_tildecomb/Ocircumflextilde",
"/Abrevedotbelow",
"E/Edotbelow",
"a/brevecomb/brevecomb_acutecomb/abreveacute",
"/abrevetilde",
"/hookabovecomb/circumflexcomb/circumflexcomb_hookabovecomb/ecircumflexhookabove",
"e/edotbelow",
"/dotbelowcomb/edotbelow",
"y/ycircumflex",
"w/wacute",
"/tcedilla",

glyphs = (
{
glyphname = lslash;
lastChange = "2021-05-06 10:42:46 +0000";
layers = (
{
layerId = "23C1765D-E8A9-427D-A2B9-D2B95394C525";
paths = (
{
closed = 1;
nodes = (
"136 -7 OFFCURVE",
"156 5 OFFCURVE",
"173 21 CURVE SMOOTH",
"199 47 OFFCURVE",
"217 81 OFFCURVE",
"231 112 CURVE SMOOTH",
"237 125 LINE SMOOTH",
"238 128 OFFCURVE",
"239 132 OFFCURVE",
"239 136 CURVE SMOOTH",
"239 142 OFFCURVE",
"238 147 OFFCURVE",
"236 147 CURVE SMOOTH",
"236 147 OFFCURVE",
"235 147 OFFCURVE",
"235 146 CURVE SMOOTH",
"230 138 LINE",
"215 105 OFFCURVE",
"198 71 OFFCURVE",
"173 43 CURVE SMOOTH",
"161 30 OFFCURVE",
"135 13 OFFCURVE",
"117 13 CURVE SMOOTH",
"98 13 OFFCURVE",
"91 28 OFFCURVE",
"91 50 CURVE SMOOTH",
"91 81 OFFCURVE",
"106 127 OFFCURVE",
"127 174 CURVE SMOOTH",
"148 221 LINE",
"218 221 LINE",
"218 241 LINE",
"157 241 LINE",
"204 337 OFFCURVE",
"275 464 OFFCURVE",
"334 552 CURVE SMOOTH",
"356 585 OFFCURVE",
"377 613 OFFCURVE",
"394 630 CURVE",
"369 622 OFFCURVE",
"330 624 OFFCURVE",
"309 604 CURVE SMOOTH",
"291 588 OFFCURVE",
"274 555 OFFCURVE",
"241 497 CURVE SMOOTH",
"201 425 OFFCURVE",
"169 359 OFFCURVE",
"141 305 CURVE SMOOTH",
"108 241 LINE",
"55 241 LINE",
"55 221 LINE",
"98 221 LINE",
"72 170 OFFCURVE",
"52 127 OFFCURVE",
"42 107 CURVE SMOOTH",
"38 98 OFFCURVE",
"36 92 OFFCURVE",
"36 88 CURVE SMOOTH",
"36 84 OFFCURVE",
"38 82 OFFCURVE",
"40 82 CURVE SMOOTH",
"41 82 OFFCURVE",
"43 83 OFFCURVE",
"44 85 CURVE SMOOTH",
"65 123 LINE",
"58 99 OFFCURVE",
"52 72 OFFCURVE",
"52 53 CURVE SMOOTH",
"53 19 OFFCURVE",
"70 -7 OFFCURVE",
"112 -7 CURVE SMOOTH"
);
}
);
width = 173;
}
);
note = lslash;
unicode = 0142;
},
{
glyphname = Yacute;
lastChange = "2021-05-06 10:42:46 +0000";
layers = (
{
layerId = "23C1765D-E8A9-427D-A2B9-D2B95394C525";
paths = (
{
closed = 1;
nodes = (
"415 -325 OFFCURVE",
"507 -241 OFFCURVE",
"581 -119 CURVE SMOOTH",
"685 55 OFFCURVE",
"717 231 OFFCURVE",
"779 405 CURVE SMOOTH",
"805 478 OFFCURVE",
"853 600 OFFCURVE",
"942 603 CURVE SMOOTH",
"960 603 OFFCURVE",
"970 615 OFFCURVE",
"970 626 CURVE SMOOTH",
"970 637 OFFCURVE",
"960 648 OFFCURVE",
"941 648 CURVE SMOOTH",
"938 648 OFFCURVE",
"934 648 OFFCURVE",
"930 647 CURVE SMOOTH",
"858 631 OFFCURVE",
"799 528 OFFCURVE",
"759 439 CURVE SMOOTH",
"688 282 OFFCURVE",
"503 -29 OFFCURVE",
"348 -29 CURVE SMOOTH",
"309 -29 OFFCURVE",
"280 -8 OFFCURVE",
"280 56 CURVE SMOOTH",
"280 143 OFFCURVE",
"360 273 OFFCURVE",
"420 374 CURVE SMOOTH",
"455 432 OFFCURVE",
"506 517 OFFCURVE",
"506 592 CURVE SMOOTH",
"506 621 OFFCURVE",
"499 649 OFFCURVE",
"479 674 CURVE SMOOTH",
"453 707 OFFCURVE",
"407 723 OFFCURVE",
"352 723 CURVE SMOOTH",
"221 723 OFFCURVE",
"72 651 OFFCURVE",
"6 532 CURVE SMOOTH",
"-13 498 OFFCURVE",
"-26 459 OFFCURVE",
"-26 420 CURVE SMOOTH",
"-26 404 OFFCURVE",
"-24 389 OFFCURVE",
"-19 374 CURVE SMOOTH",
"-4 326 OFFCURVE",
"34 303 OFFCURVE",
"77 303 CURVE SMOOTH",
"104 303 OFFCURVE",
"134 313 OFFCURVE",
"160 332 CURVE SMOOTH",
"198 359 OFFCURVE",
"225 408 OFFCURVE",
"225 456 CURVE SMOOTH",
"225 463 OFFCURVE",
"224 469 OFFCURVE",
"223 476 CURVE SMOOTH",
"219 499 OFFCURVE",
"203 536 OFFCURVE",
"178 536 CURVE SMOOTH",
"166 536 OFFCURVE",
"166 530 OFFCURVE",
"173 528 CURVE SMOOTH",
"179 526 OFFCURVE",
"187 514 OFFCURVE",
"190 504 CURVE SMOOTH",
"195 489 OFFCURVE",
"198 473 OFFCURVE",
"198 458 CURVE SMOOTH",
"198 409 OFFCURVE",
"174 363 OFFCURVE",
"135 337 CURVE SMOOTH",
"117 325 OFFCURVE",
"97 318 OFFCURVE",
"78 318 CURVE SMOOTH",
"45 318 OFFCURVE",
"15 336 OFFCURVE",
"6 374 CURVE SMOOTH",
"4 384 OFFCURVE",
"2 395 OFFCURVE",
"2 405 CURVE SMOOTH",
"2 443 OFFCURVE",
"16 483 OFFCURVE",
"38 519 CURVE SMOOTH",
"99 621 OFFCURVE",
"233 706 OFFCURVE",
"349 706 CURVE SMOOTH",
"394 706 OFFCURVE",
"430 696 OFFCURVE",
"450 671 CURVE SMOOTH",
"465 653 OFFCURVE",
"470 632 OFFCURVE",
"470 609 CURVE SMOOTH",
"470 537 OFFCURVE",
"413 448 OFFCURVE",
"381 397 CURVE SMOOTH",
"321 303 OFFCURVE",
"252 211 OFFCURVE",
"234 100 CURVE SMOOTH",
"232 88 OFFCURVE",
"231 77 OFFCURVE",
"231 67 CURVE SMOOTH",
"231 1 OFFCURVE",
"268 -43 OFFCURVE",
"340 -43 CURVE SMOOTH",
"482 -43 OFFCURVE",
"606 120 OFFCURVE",
"699 274 CURVE",
"674 212 LINE SMOOTH",
"626 102 OFFCURVE",
"548 -88 OFFCURVE",
"452 -213 CURVE SMOOTH",
"400 -280 OFFCURVE",
"345 -306 OFFCURVE",
"297 -306 CURVE SMOOTH",
"256 -306 OFFCURVE",
"214 -284 OFFCURVE",
"218 -249 CURVE SMOOTH",
"219 -243 OFFCURVE",
"217 -241 OFFCURVE",
"215 -241 CURVE SMOOTH",
"212 -241 OFFCURVE",
"206 -247 OFFCURVE",
"204 -251 CURVE SMOOTH",
"200 -258 OFFCURVE",
"199 -265 OFFCURVE",
"199 -272 CURVE SMOOTH",
"199 -306 OFFCURVE",
"245 -325 OFFCURVE",
"282 -325 CURVE SMOOTH"
);
},
{
closed = 1;
nodes = (
"819 762 LINE SMOOTH",
"823 764 OFFCURVE",
"824 768 OFFCURVE",
"824 772 CURVE SMOOTH",
"824 782 OFFCURVE",
"813 795 OFFCURVE",
"803 795 CURVE SMOOTH",
"800 795 OFFCURVE",
"797 794 OFFCURVE",
"795 792 CURVE SMOOTH",
"763 764 OFFCURVE",
"717 728 OFFCURVE",
"687 707 CURVE SMOOTH",
"684 705 OFFCURVE",
"683 702 OFFCURVE",
"683 700 CURVE SMOOTH",
"683 695 OFFCURVE",
"687 691 OFFCURVE",
"691 691 CURVE SMOOTH",
"692 691 OFFCURVE",
"692 691 OFFCURVE",
"693 691 CURVE SMOOTH"
);
}
);
width = 744;
}
);
note = Yacute;
unicode = 00DD;
},
{
glyphname = yacute;
lastChange = "2021-05-06 10:42:46 +0000";
layers = (
{
layerId = "23C1765D-E8A9-427D-A2B9-D2B95394C525";
paths = (
{
closed = 1;
nodes = (
"200 -261 OFFCURVE",
"250 -175 OFFCURVE",
"298 -67 CURVE",
"340 -52 OFFCURVE",
"391 -19 OFFCURVE",
"439 27 CURVE SMOOTH",
"477 65 OFFCURVE",
"502 111 OFFCURVE",
"526 155 CURVE SMOOTH",
"528 158 OFFCURVE",
"528 161 OFFCURVE",
"528 163 CURVE SMOOTH",
"528 167 OFFCURVE",
"526 169 OFFCURVE",
"524 169 CURVE SMOOTH",
"522 169 OFFCURVE",
"520 168 OFFCURVE",
"518 165 CURVE SMOOTH",
"493 119 OFFCURVE",
"469 78 OFFCURVE",
"439 46 CURVE SMOOTH",
"396 -2 OFFCURVE",
"343 -31 OFFCURVE",
"307 -46 CURVE",
"350 62 OFFCURVE",
"447 314 OFFCURVE",
"495 358 CURVE",
"437 361 OFFCURVE",
"401 300 OFFCURVE",
"382 260 CURVE SMOOTH",
"342 176 OFFCURVE",
"304 95 OFFCURVE",
"233 38 CURVE SMOOTH",
"220 27 OFFCURVE",
"207 22 OFFCURVE",
"196 22 CURVE SMOOTH",
"183 22 OFFCURVE",
"174 30 OFFCURVE",
"174 48 CURVE SMOOTH",
"174 57 OFFCURVE",
"177 69 OFFCURVE",
"183 84 CURVE SMOOTH",
"199 124 OFFCURVE",
"218 164 OFFCURVE",
"252 223 CURVE SMOOTH",
"263 243 OFFCURVE",
"276 272 OFFCURVE",
"276 297 CURVE SMOOTH",
"276 321 OFFCURVE",
"264 340 OFFCURVE",
"227 340 CURVE SMOOTH",
"206 340 OFFCURVE",
"182 330 OFFCURVE",
"164 310 CURVE SMOOTH",
"151 294 OFFCURVE",
"138 275 OFFCURVE",
"127 255 CURVE SMOOTH",
"106 218 OFFCURVE",
"93 188 OFFCURVE",
"64 136 CURVE SMOOTH",
"61 130 OFFCURVE",
"59 126 OFFCURVE",
"59 124 CURVE SMOOTH",
"59 121 OFFCURVE",
"61 120 OFFCURVE",
"63 120 CURVE SMOOTH",
"66 120 OFFCURVE",
"69 122 OFFCURVE",
"71 125 CURVE SMOOTH",
"100 173 OFFCURVE",
"134 242 OFFCURVE",
"134 242 CURVE",
"145 262 OFFCURVE",
"176 313 OFFCURVE",
"205 313 CURVE SMOOTH",
"216 313 OFFCURVE",
"220 306 OFFCURVE",
"220 296 CURVE SMOOTH",
"220 276 OFFCURVE",
"206 247 OFFCURVE",
"201 237 CURVE SMOOTH",
"180 192 OFFCURVE",
"157 151 OFFCURVE",
"138 105 CURVE SMOOTH",
"130 85 OFFCURVE",
"123 61 OFFCURVE",
"123 40 CURVE SMOOTH",
"123 14 OFFCURVE",
"134 -7 OFFCURVE",
"166 -7 CURVE SMOOTH",
"190 -7 OFFCURVE",
"214 5 OFFCURVE",
"241 25 CURVE SMOOTH",
"260 42 OFFCURVE",
"292 75 OFFCURVE",
"321 111 CURVE",
"275 -9 LINE",
"266 -27 OFFCURVE",
"258 -48 OFFCURVE",
"249 -69 CURVE",
"159 -111 OFFCURVE",
"124 -120 OFFCURVE",
"62 -162 CURVE SMOOTH",
"30 -184 OFFCURVE",
"14 -213 OFFCURVE",
"14 -237 CURVE SMOOTH",
"14 -265 OFFCURVE",
"34 -286 OFFCURVE",
"73 -286 CURVE SMOOTH",
"83 -286 OFFCURVE",
"93 -285 OFFCURVE",
"105 -282 CURVE SMOOTH"
);
},
{
closed = 1;
nodes = (
"87 -266 OFFCURVE",
"77 -267 OFFCURVE",
"69 -267 CURVE SMOOTH",
"43 -267 OFFCURVE",
"30 -254 OFFCURVE",
"30 -235 CURVE SMOOTH",
"30 -217 OFFCURVE",
"43 -194 OFFCURVE",
"69 -174 CURVE SMOOTH",
"126 -131 OFFCURVE",
"197 -111 OFFCURVE",
"240 -88 CURVE",
"211 -161 OFFCURVE",
"170 -240 OFFCURVE",
"99 -262 CURVE SMOOTH"
);
},
{
closed = 1;
nodes = (
"446 460 LINE SMOOTH",
"450 462 OFFCURVE",
"452 466 OFFCURVE",
"452 470 CURVE SMOOTH",
"452 480 OFFCURVE",
"441 493 OFFCURVE",
"430 493 CURVE SMOOTH",
"427 493 OFFCURVE",
"425 492 OFFCURVE",
"422 490 CURVE SMOOTH",
"389 464 OFFCURVE",
"344 425 OFFCURVE",
"314 405 CURVE SMOOTH",
"311 403 OFFCURVE",
"310 400 OFFCURVE",
"310 398 CURVE SMOOTH",
"310 393 OFFCURVE",
"314 389 OFFCURVE",
"318 389 CURVE SMOOTH",
"319 389 OFFCURVE",
"319 389 OFFCURVE",
"320 389 CURVE SMOOTH"
);
}
);
width = 439;
}
);
note = yacute;
unicode = 00FD;
},
{
glyphname = thorn;
lastChange = "2021-05-06 10:42:46 +0000";
layers = (
{
layerId = "23C1765D-E8A9-427D-A2B9-D2B95394C525";
paths = (
{
closed = 1;
nodes = (
"-100 -248 OFFCURVE",
"-55 -230 OFFCURVE",
"-42 -224 CURVE",
"-30 -178 OFFCURVE",
"29 -31 OFFCURVE",
"68 65 CURVE",
"67 58 OFFCURVE",
"66 52 OFFCURVE",
"66 46 CURVE SMOOTH",
"66 42 OFFCURVE",
"66 39 OFFCURVE",
"67 36 CURVE SMOOTH",
"70 15 OFFCURVE",
"83 1 OFFCURVE",
"110 1 CURVE SMOOTH",
"136 1 OFFCURVE",
"165 14 OFFCURVE",
"191 35 CURVE",
"198 10 OFFCURVE",
"218 -1 OFFCURVE",
"240 -1 CURVE SMOOTH",
"260 -1 OFFCURVE",
"281 8 OFFCURVE",
"296 23 CURVE SMOOTH",
"321 48 OFFCURVE",
"339 85 OFFCURVE",
"354 114 CURVE SMOOTH",
"359 124 LINE SMOOTH",
"360 127 OFFCURVE",
"361 132 OFFCURVE",
"361 136 CURVE SMOOTH",
"361 142 OFFCURVE",
"360 148 OFFCURVE",
"358 148 CURVE SMOOTH",
"358 148 OFFCURVE",
"358 148 OFFCURVE",
"357 147 CURVE SMOOTH",
"354 139 LINE",
"338 108 OFFCURVE",
"318 71 OFFCURVE",
"296 44 CURVE SMOOTH",
"281 27 OFFCURVE",
"258 13 OFFCURVE",
"239 13 CURVE SMOOTH",
"223 13 OFFCURVE",
"210 22 OFFCURVE",
"206 47 CURVE",
"238 76 OFFCURVE",
"266 112 OFFCURVE",
"279 134 CURVE SMOOTH",
"297 165 OFFCURVE",
"323 224 OFFCURVE",
"323 268 CURVE SMOOTH",
"323 300 OFFCURVE",
"309 324 OFFCURVE",
"268 324 CURVE SMOOTH",
"235 324 OFFCURVE",
"205 299 OFFCURVE",
"178 269 CURVE",
"198 306 OFFCURVE",
"217 340 OFFCURVE",
"231 364 CURVE SMOOTH",
"272 435 OFFCURVE",
"323 501 OFFCURVE",
"333 513 CURVE",
"302 508 OFFCURVE",
"267 513 OFFCURVE",
"245 478 CURVE SMOOTH",
"227 449 OFFCURVE",
"132 289 OFFCURVE",
"101 226 CURVE SMOOTH",
"91 206 LINE",
"42 107 LINE SMOOTH",
"37 98 OFFCURVE",
"35 91 OFFCURVE",
"35 87 CURVE SMOOTH",
"35 84 OFFCURVE",
"37 82 OFFCURVE",
"39 82 CURVE SMOOTH",
"40 82 OFFCURVE",
"42 83 OFFCURVE",
"43 84 CURVE",
"-115 -253 LINE"
);
},
{
closed = 1;
nodes = (
"87 16 OFFCURVE",
"79 28 OFFCURVE",
"79 45 CURVE SMOOTH",
"79 56 OFFCURVE",
"82 69 OFFCURVE",
"87 83 CURVE SMOOTH",
"93 99 OFFCURVE",
"100 114 OFFCURVE",
"106 127 CURVE SMOOTH",
"112 141 OFFCURVE",
"122 161 OFFCURVE",
"132 181 CURVE",
"139 191 LINE SMOOTH",
"176 243 OFFCURVE",
"222 308 OFFCURVE",
"253 308 CURVE SMOOTH",
"271 308 OFFCURVE",
"277 296 OFFCURVE",
"277 279 CURVE SMOOTH",
"277 240 OFFCURVE",
"246 176 OFFCURVE",
"235 156 CURVE SMOOTH",
"207 106 OFFCURVE",
"152 16 OFFCURVE",
"105 16 CURVE SMOOTH"
);
}
);
width = 296;
}
);
note = thorn;
unicode = 00FE;
},
{
glyphname = Zcaron;
lastChange = "2021-05-06 10:42:46 +0000";
layers = (
{
layerId = "23C1765D-E8A9-427D-A2B9-D2B95394C525";
paths = (
{
closed = 1;
nodes = (
"842 -63 OFFCURVE",
"877 -6 OFFCURVE",
"877 55 CURVE SMOOTH",
"877 103 OFFCURVE",
"856 153 OFFCURVE",
"810 192 CURVE SMOOTH",
"790 209 OFFCURVE",
"768 222 OFFCURVE",
"747 229 CURVE",
"746 229 OFFCURVE",
"739 228 OFFCURVE",
"739 224 CURVE SMOOTH",
"739 223 OFFCURVE",
"741 221 OFFCURVE",
"745 218 CURVE SMOOTH",
"762 209 OFFCURVE",
"785 196 OFFCURVE",
"805 178 CURVE SMOOTH",
"837 149 OFFCURVE",
"852 116 OFFCURVE",
"852 84 CURVE SMOOTH",
"852 31 OFFCURVE",
"813 -19 OFFCURVE",
"756 -43 CURVE SMOOTH",
"731 -53 OFFCURVE",
"702 -58 OFFCURVE",
"671 -58 CURVE SMOOTH",
"549 -58 OFFCURVE",
"394 10 OFFCURVE",
"292 48 CURVE",
"415 121 OFFCURVE",
"518 201 OFFCURVE",
"595 286 CURVE SMOOTH",
"662 360 OFFCURVE",
"734 455 OFFCURVE",
"823 531 CURVE SMOOTH",
"854 558 OFFCURVE",
"892 577 OFFCURVE",
"914 586 CURVE",
"918 585 OFFCURVE",
"923 585 OFFCURVE",
"927 585 CURVE SMOOTH",
"936 585 OFFCURVE",
"942 587 OFFCURVE",
"942 590 CURVE SMOOTH",
"942 592 OFFCURVE",
"938 595 OFFCURVE",
"929 598 CURVE SMOOTH",
"816 631 OFFCURVE",
"766 651 OFFCURVE",
"646 661 CURVE SMOOTH",
"627 663 OFFCURVE",
"609 663 OFFCURVE",
"590 663 CURVE SMOOTH",
"466 663 OFFCURVE",
"339 627 OFFCURVE",
"263 518 CURVE SMOOTH",
"246 494 OFFCURVE",
"235 460 OFFCURVE",
"235 428 CURVE SMOOTH",
"235 393 OFFCURVE",
"248 359 OFFCURVE",
"282 342 CURVE SMOOTH",
"298 333 OFFCURVE",
"319 330 OFFCURVE",
"340 330 CURVE SMOOTH",
"377 330 OFFCURVE",
"418 341 OFFCURVE",
"447 356 CURVE SMOOTH",
"498 383 OFFCURVE",
"571 454 OFFCURVE",
"571 518 CURVE SMOOTH",
"571 531 OFFCURVE",
"568 543 OFFCURVE",
"562 555 CURVE SMOOTH",
"558 563 OFFCURVE",
"554 560 OFFCURVE",
"554 554 CURVE SMOOTH",
"554 553 OFFCURVE",
"554 551 OFFCURVE",
"554 550 CURVE",
"557 542 OFFCURVE",
"558 534 OFFCURVE",
"558 526 CURVE SMOOTH",
"558 466 OFFCURVE",
"490 399 OFFCURVE",
"442 372 CURVE SMOOTH",
"416 358 OFFCURVE",
"372 344 OFFCURVE",
"335 344 CURVE SMOOTH",
"317 344 OFFCURVE",
"300 347 OFFCURVE",
"288 355 CURVE SMOOTH",
"271 366 OFFCURVE",
"264 383 OFFCURVE",
"264 403 CURVE SMOOTH",
"264 437 OFFCURVE",
"285 478 OFFCURVE",
"304 501 CURVE SMOOTH",
"386 603 OFFCURVE",
"516 634 OFFCURVE",
"641 631 CURVE SMOOTH",
"744 628 OFFCURVE",
"790 621 OFFCURVE",
"887 592 CURVE",
"864 587 OFFCURVE",
"844 578 OFFCURVE",
"816 555 CURVE SMOOTH",
"733 489 OFFCURVE",
"648 405 OFFCURVE",
"565 323 CURVE SMOOTH",
"464 222 OFFCURVE",
"343 122 OFFCURVE",
"256 60 CURVE",
"241 62 OFFCURVE",
"220 65 OFFCURVE",
"200 65 CURVE SMOOTH",
"180 65 OFFCURVE",
"162 62 OFFCURVE",
"151 52 CURVE SMOOTH",
"143 46 OFFCURVE",
"138 37 OFFCURVE",
"138 29 CURVE SMOOTH",
"138 15 OFFCURVE",
"152 1 OFFCURVE",
"186 1 CURVE SMOOTH",
"218 1 OFFCURVE",
"254 16 OFFCURVE",
"275 33 CURVE",
"382 -14 OFFCURVE",
"541 -106 OFFCURVE",
"682 -106 CURVE SMOOTH",
"715 -106 OFFCURVE",
"748 -101 OFFCURVE",
"778 -89 CURVE SMOOTH"
);
},
{
closed = 1;
nodes = (
"741 756 OFFCURVE",
"745 754 OFFCURVE",
"749 754 CURVE SMOOTH",
"755 754 OFFCURVE",
"763 758 OFFCURVE",
"772 766 CURVE SMOOTH",
"900 869 LINE SMOOTH",
"904 872 OFFCURVE",
"899 878 OFFCURVE",
"893 878 CURVE SMOOTH",
"892 878 OFFCURVE",
"890 877 OFFCURVE",
"889 876 CURVE",
"761 792 LINE",
"685 874 LINE SMOOTH",
"682 878 OFFCURVE",
"673 873 OFFCURVE",
"673 867 CURVE SMOOTH",
"673 867 OFFCURVE",
"674 866 OFFCURVE",
"674 865 CURVE SMOOTH",
"739 760 LINE SMOOTH"
);
}
);
width = 884;
}
);
note = Zcaron;
unicode = 017D;
},
{
glyphname = zcaron;
lastChange = "2021-05-06 10:42:46 +0000";
layers = (
{
layerId = "23C1765D-E8A9-427D-A2B9-D2B95394C525";
paths = (
{
closed = 1;
nodes = (
"291 -12 OFFCURVE",
"320 23 OFFCURVE",
"361 106 CURVE SMOOTH",
"368 120 OFFCURVE",
"370 128 OFFCURVE",
"370 133 CURVE SMOOTH",
"370 136 OFFCURVE",
"369 137 OFFCURVE",
"368 137 CURVE SMOOTH",
"366 137 OFFCURVE",
"363 134 OFFCURVE",
"360 129 CURVE SMOOTH",
"329 64 OFFCURVE",
"290 22 OFFCURVE",
"208 22 CURVE SMOOTH",
"177 22 OFFCURVE",
"146 38 OFFCURVE",
"136 56 CURVE SMOOTH",
"130 67 OFFCURVE",
"141 81 OFFCURVE",
"150 91 CURVE SMOOTH",
"172 118 OFFCURVE",
"201 153 OFFCURVE",
"222 175 CURVE SMOOTH",
"251 205 OFFCURVE",
"297 251 OFFCURVE",
"330 270 CURVE",
"332 270 LINE",
"336 269 OFFCURVE",
"340 268 OFFCURVE",
"344 268 CURVE SMOOTH",
"363 268 OFFCURVE",
"378 282 OFFCURVE",
"378 300 CURVE SMOOTH",
"378 313 OFFCURVE",
"369 325 OFFCURVE",
"355 329 CURVE",
"348 322 OFFCURVE",
"318 321 OFFCURVE",
"299 321 CURVE SMOOTH",
"278 321 OFFCURVE",
"245 324 OFFCURVE",
"217 324 CURVE SMOOTH",
"205 324 OFFCURVE",
"194 323 OFFCURVE",
"184 321 CURVE SMOOTH",
"152 313 OFFCURVE",
"139 292 OFFCURVE",
"120 259 CURVE SMOOTH",
"96 218 OFFCURVE",
"76 179 OFFCURVE",
"56 136 CURVE SMOOTH",
"51 124 OFFCURVE",
"49 113 OFFCURVE",
"49 107 CURVE SMOOTH",
"49 102 OFFCURVE",
"51 101 OFFCURVE",
"54 107 CURVE SMOOTH",
"91 179 OFFCURVE",
"119 228 OFFCURVE",
"137 252 CURVE SMOOTH",
"156 278 OFFCURVE",
"180 287 OFFCURVE",
"210 287 CURVE SMOOTH",
"216 287 OFFCURVE",
"223 287 OFFCURVE",
"229 286 CURVE SMOOTH",
"247 284 OFFCURVE",
"287 279 OFFCURVE",
"302 276 CURVE",
"271 248 OFFCURVE",
"241 218 OFFCURVE",
"212 186 CURVE SMOOTH",
"144 110 OFFCURVE",
"76 30 OFFCURVE",
"32 23 CURVE",
"31 19 OFFCURVE",
"30 15 OFFCURVE",
"30 12 CURVE SMOOTH",
"30 -4 OFFCURVE",
"45 -13 OFFCURVE",
"58 -8 CURVE",
"77 2 OFFCURVE",
"92 16 OFFCURVE",
"100 30 CURVE",
"115 -5 OFFCURVE",
"177 -18 OFFCURVE",
"207 -16 CURVE SMOOTH"
);
},
{
closed = 1;
nodes = (
"282 383 OFFCURVE",
"286 381 OFFCURVE",
"290 381 CURVE SMOOTH",
"296 381 OFFCURVE",
"304 385 OFFCURVE",
"314 393 CURVE SMOOTH",
"442 496 LINE SMOOTH",
"446 499 OFFCURVE",
"441 504 OFFCURVE",
"435 504 CURVE SMOOTH",
"434 504 OFFCURVE",
"432 504 OFFCURVE",
"431 503 CURVE SMOOTH",
"303 419 LINE",
"227 501 LINE SMOOTH",
"224 505 OFFCURVE",
"215 500 OFFCURVE",
"215 495 CURVE SMOOTH",
"215 494 OFFCURVE",
"215 493 OFFCURVE",
"216 492 CURVE SMOOTH",
"280 387 LINE SMOOTH"
);
}
);
width = 309;
}
);
note = zcaron;
unicode = 017E;
},
{
glyphname = onehalf;
lastChange = "2021-05-06 10:42:46 +0000";
layers = (
{
layerId = "23C1765D-E8A9-427D-A2B9-D2B95394C525";
paths = (
{
closed = 1;
nodes = (
"38 -31 LINE",
"622 732 LINE",
"595 732 LINE",
"11 -31 LINE"
);
},
{
closed = 1;
nodes = (
"314 10 OFFCURVE",
"321 14 OFFCURVE",
"326 16 CURVE SMOOTH",
"333 19 OFFCURVE",
"341 20 OFFCURVE",
"349 20 CURVE SMOOTH",
"369 20 OFFCURVE",
"391 13 OFFCURVE",
"409 9 CURVE SMOOTH",
"427 5 OFFCURVE",
"452 1 OFFCURVE",
"477 1 CURVE SMOOTH",
"520 1 OFFCURVE",
"563 13 OFFCURVE",
"569 60 CURVE SMOOTH",
"571 78 OFFCURVE",
"566 92 OFFCURVE",
"552 102 CURVE",
"550 105 OFFCURVE",
"547 106 OFFCURVE",
"545 106 CURVE SMOOTH",
"540 107 OFFCURVE",
"539 104 OFFCURVE",
"541 101 CURVE",
"548 96 OFFCURVE",
"551 89 OFFCURVE",
"551 82 CURVE SMOOTH",
"551 78 OFFCURVE",
"550 74 OFFCURVE",
"549 71 CURVE SMOOTH",
"537 35 OFFCURVE",
"482 23 OFFCURVE",
"453 23 CURVE SMOOTH",
"416 23 OFFCURVE",
"397 29 OFFCURVE",
"365 37 CURVE SMOOTH",
"354 40 OFFCURVE",
"350 44 OFFCURVE",
"350 50 CURVE SMOOTH",
"350 62 OFFCURVE",
"375 79 OFFCURVE",
"384 84 CURVE SMOOTH",
"438 117 OFFCURVE",
"518 142 OFFCURVE",
"565 182 CURVE SMOOTH",
"591 204 OFFCURVE",
"609 233 OFFCURVE",
"609 269 CURVE SMOOTH",
"609 318 OFFCURVE",
"557 335 OFFCURVE",
"507 335 CURVE SMOOTH",
"486 334 OFFCURVE",
"463 330 OFFCURVE",
"444 322 CURVE SMOOTH",
"413 309 OFFCURVE",
"386 286 OFFCURVE",
"382 252 CURVE SMOOTH",
"381 239 OFFCURVE",
"390 218 OFFCURVE",
"403 214 CURVE SMOOTH",
"405 213 OFFCURVE",
"410 213 OFFCURVE",
"412 213 CURVE SMOOTH",
"413 213 OFFCURVE",
"414 213 OFFCURVE",
"414 213 CURVE SMOOTH",
"414 214 OFFCURVE",
"413 214 OFFCURVE",
"413 214 CURVE",
"408 221 OFFCURVE",
"405 232 OFFCURVE",
"405 242 CURVE SMOOTH",
"405 245 OFFCURVE",
"406 248 OFFCURVE",
"406 251 CURVE SMOOTH",
"411 276 OFFCURVE",
"426 298 OFFCURVE",
"450 312 CURVE SMOOTH",
"466 319 OFFCURVE",
"483 324 OFFCURVE",
"499 324 CURVE SMOOTH",
"531 324 OFFCURVE",
"564 308 OFFCURVE",
"564 269 CURVE SMOOTH",
"564 240 OFFCURVE",
"553 217 OFFCURVE",
"538 198 CURVE SMOOTH",
"501 152 OFFCURVE",
"428 127 OFFCURVE",
"379 98 CURVE SMOOTH",
"357 85 OFFCURVE",
"333 67 OFFCURVE",
"321 51 CURVE SMOOTH",
"316 45 OFFCURVE",
"306 30 OFFCURVE",
"306 18 CURVE SMOOTH",
"306 13 OFFCURVE",
"308 8 OFFCURVE",
"313 6 CURVE"
);
},
{
closed = 1;
nodes = (
"201 403 LINE SMOOTH",
"205 403 OFFCURVE",
"208 409 OFFCURVE",
"208 412 CURVE SMOOTH",
"208 414 OFFCURVE",
"207 416 OFFCURVE",
"205 416 CURVE SMOOTH",
"170 416 LINE SMOOTH",
"157 416 OFFCURVE",
"152 419 OFFCURVE",
"152 426 CURVE SMOOTH",
"152 431 OFFCURVE",
"155 439 OFFCURVE",
"160 450 CURVE SMOOTH",
"284 730 LINE",
"244 730 LINE",
"116 624 LINE",
"133 624 OFFCURVE",
"146 632 OFFCURVE",
"153 637 CURVE SMOOTH",
"239 703 LINE",
"126 452 LINE SMOOTH",
"115 428 OFFCURVE",
"102 416 OFFCURVE",
"81 416 CURVE SMOOTH",
"48 416 LINE SMOOTH",
"44 416 OFFCURVE",
"42 411 OFFCURVE",
"42 407 CURVE SMOOTH",
"42 405 OFFCURVE",
"43 403 OFFCURVE",
"45 403 CURVE SMOOTH"
);
}
);
width = 643;
}
);
note = onehalf;
unicode = 00BD;
},
{
glyphname = onequarter;
lastChange = "2021-05-06 10:42:46 +0000";
layers = (
{
layerId = "23C1765D-E8A9-427D-A2B9-D2B95394C525";
paths = (
{
closed = 1;
nodes = (
"38 -31 LINE",
"622 732 LINE",
"595 732 LINE",
"11 -31 LINE"
);
},
{
closed = 1;
nodes = (
"534 -3 LINE SMOOTH",
"537 -3 OFFCURVE",
"540 3 OFFCURVE",
"540 7 CURVE SMOOTH",
"540 9 OFFCURVE",
"539 11 OFFCURVE",
"536 11 CURVE SMOOTH",
"499 11 LINE SMOOTH",
"486 11 OFFCURVE",
"481 14 OFFCURVE",
"481 21 CURVE SMOOTH",
"481 27 OFFCURVE",
"484 36 OFFCURVE",
"489 48 CURVE SMOOTH",
"518 114 LINE",
"543 114 LINE SMOOTH",
"554 114 OFFCURVE",
"572 122 OFFCURVE",
"580 136 CURVE",
"526 136 LINE",
"621 348 LINE",
"571 348 OFFCURVE",
"569 339 OFFCURVE",
"561 332 CURVE SMOOTH",
"348 150 LINE SMOOTH",
"325 131 OFFCURVE",
"316 122 OFFCURVE",
"316 118 CURVE SMOOTH",
"316 112 OFFCURVE",
"330 114 OFFCURVE",
"349 114 CURVE SMOOTH",
"480 114 LINE",
"451 50 LINE SMOOTH",
"440 25 OFFCURVE",
"427 11 OFFCURVE",
"404 11 CURVE SMOOTH",
"368 11 LINE SMOOTH",
"364 11 OFFCURVE",
"362 6 OFFCURVE",
"362 2 CURVE SMOOTH",
"362 -1 OFFCURVE",
"363 -3 OFFCURVE",
"365 -3 CURVE SMOOTH"
);
},
{
closed = 1;
nodes = (
"573 319 LINE",
"490 136 LINE",
"358 136 LINE"
);
},
{
closed = 1;
nodes = (
"212 403 LINE SMOOTH",
"215 403 OFFCURVE",
"218 408 OFFCURVE",
"218 412 CURVE SMOOTH",
"218 414 OFFCURVE",
"217 416 OFFCURVE",
"215 416 CURVE SMOOTH",
"180 416 LINE SMOOTH",
"167 416 OFFCURVE",
"162 419 OFFCURVE",
"162 426 CURVE SMOOTH",
"162 431 OFFCURVE",
"165 439 OFFCURVE",
"170 450 CURVE SMOOTH",
"294 730 LINE",
"254 730 LINE",
"126 624 LINE",
"143 624 OFFCURVE",
"156 632 OFFCURVE",
"163 637 CURVE SMOOTH",
"249 703 LINE",
"136 452 LINE SMOOTH",
"125 428 OFFCURVE",
"112 416 OFFCURVE",
"91 416 CURVE SMOOTH",
"59 416 LINE SMOOTH",
"55 416 OFFCURVE",
"52 411 OFFCURVE",
"52 407 CURVE SMOOTH",
"52 405 OFFCURVE",
"53 403 OFFCURVE",
"55 403 CURVE SMOOTH"
);
}
);
width = 653;
}
);
note = onequarter;
unicode = 00BC;
},
{
glyphname = onesuperior;
lastChange = "2021-05-06 10:42:46 +0000";
layers = (
{
layerId = "23C1765D-E8A9-427D-A2B9-D2B95394C525";
paths = (
{
closed = 1;
nodes = (
"201 335 LINE SMOOTH",
"205 335 OFFCURVE",
"208 341 OFFCURVE",
"208 344 CURVE SMOOTH",
"208 346 OFFCURVE",
"207 348 OFFCURVE",
"205 348 CURVE SMOOTH",
"170 348 LINE SMOOTH",
"157 348 OFFCURVE",
"152 351 OFFCURVE",
"152 358 CURVE SMOOTH",
"152 363 OFFCURVE",
"155 371 OFFCURVE",
"160 382 CURVE SMOOTH",
"284 662 LINE",
"244 662 LINE",
"116 556 LINE",
"133 556 OFFCURVE",
"146 564 OFFCURVE",
"153 569 CURVE SMOOTH",
"239 635 LINE",
"126 384 LINE SMOOTH",
"115 360 OFFCURVE",
"102 348 OFFCURVE",
"81 348 CURVE SMOOTH",
"48 348 LINE SMOOTH",
"44 348 OFFCURVE",
"42 343 OFFCURVE",
"42 339 CURVE SMOOTH",
"42 337 OFFCURVE",
"43 335 OFFCURVE",
"45 335 CURVE SMOOTH"
);
}
);
width = 311;
}
);
note = onesuperior;
unicode = 00B9;
},
{
glyphname = threequarters;
lastChange = "2021-05-06 10:42:46 +0000";
layers = (
{
layerId = "23C1765D-E8A9-427D-A2B9-D2B95394C525";
paths = (
{
closed = 1;
nodes = (
"38 -31 LINE",
"622 732 LINE",
"595 732 LINE",
"11 -31 LINE"
);
},
{
closed = 1;
nodes = (
"534 -3 LINE SMOOTH",
"537 -3 OFFCURVE",
"540 3 OFFCURVE",
"540 7 CURVE SMOOTH",
"540 9 OFFCURVE",
"539 11 OFFCURVE",
"536 11 CURVE SMOOTH",
"499 11 LINE SMOOTH",
"486 11 OFFCURVE",
"481 14 OFFCURVE",
"481 21 CURVE SMOOTH",
"481 27 OFFCURVE",
"484 36 OFFCURVE",
"489 48 CURVE SMOOTH",
"518 114 LINE",
"543 114 LINE SMOOTH",
"554 114 OFFCURVE",
"572 122 OFFCURVE",
"580 136 CURVE",
"526 136 LINE",
"621 348 LINE",
"571 348 OFFCURVE",
"569 339 OFFCURVE",
"561 332 CURVE SMOOTH",
"348 150 LINE SMOOTH",
"325 131 OFFCURVE",
"316 122 OFFCURVE",
"316 118 CURVE SMOOTH",
"316 112 OFFCURVE",
"330 114 OFFCURVE",
"349 114 CURVE SMOOTH",
"480 114 LINE",
"451 50 LINE SMOOTH",
"440 25 OFFCURVE",
"427 11 OFFCURVE",
"404 11 CURVE SMOOTH",
"368 11 LINE SMOOTH",
"364 11 OFFCURVE",
"362 6 OFFCURVE",
"362 2 CURVE SMOOTH",
"362 -1 OFFCURVE",
"363 -3 OFFCURVE",
"365 -3 CURVE SMOOTH"
);
},
{
closed = 1;
nodes = (
"573 319 LINE",
"490 136 LINE",
"358 136 LINE"
);
},
{
closed = 1;
nodes = (
"85 390 OFFCURVE",
"102 389 OFFCURVE",
"119 389 CURVE SMOOTH",
"186 389 OFFCURVE",
"254 417 OFFCURVE",
"284 475 CURVE SMOOTH",
"291 488 OFFCURVE",
"295 503 OFFCURVE",
"295 518 CURVE SMOOTH",
"295 550 OFFCURVE",
"276 582 OFFCURVE",
"221 587 CURVE",
"251 595 OFFCURVE",
"299 620 OFFCURVE",
"308 656 CURVE SMOOTH",
"310 663 OFFCURVE",
"310 669 OFFCURVE",
"310 674 CURVE SMOOTH",
"310 680 OFFCURVE",
"310 685 OFFCURVE",
"308 690 CURVE SMOOTH",
"297 721 OFFCURVE",
"259 730 OFFCURVE",
"224 730 CURVE SMOOTH",
"186 729 OFFCURVE",
"130 717 OFFCURVE",
"110 682 CURVE SMOOTH",
"107 676 OFFCURVE",
"105 669 OFFCURVE",
"105 663 CURVE SMOOTH",
"105 650 OFFCURVE",
"113 641 OFFCURVE",
"130 642 CURVE",
"129 645 OFFCURVE",
"128 649 OFFCURVE",
"128 653 CURVE SMOOTH",
"128 666 OFFCURVE",
"135 680 OFFCURVE",
"146 691 CURVE SMOOTH",
"166 710 OFFCURVE",
"191 719 OFFCURVE",
"218 719 CURVE SMOOTH",
"252 719 OFFCURVE",
"272 702 OFFCURVE",
"272 677 CURVE SMOOTH",
"272 641 OFFCURVE",
"239 609 OFFCURVE",
"208 599 CURVE SMOOTH",
"185 591 OFFCURVE",
"157 591 OFFCURVE",
"138 591 CURVE SMOOTH",
"126 591 OFFCURVE",
"120 585 OFFCURVE",
"120 581 CURVE SMOOTH",
"120 578 OFFCURVE",
"123 576 OFFCURVE",
"128 576 CURVE SMOOTH",
"139 576 OFFCURVE",
"161 577 OFFCURVE",
"173 577 CURVE SMOOTH",
"212 577 OFFCURVE",
"252 564 OFFCURVE",
"252 517 CURVE SMOOTH",
"252 445 OFFCURVE",
"184 398 OFFCURVE",
"121 398 CURVE SMOOTH",
"83 398 OFFCURVE",
"42 415 OFFCURVE",
"48 451 CURVE",
"48 457 OFFCURVE",
"50 465 OFFCURVE",
"52 471 CURVE",
"35 472 OFFCURVE",
"26 457 OFFCURVE",
"24 449 CURVE SMOOTH",
"23 445 OFFCURVE",
"22 440 OFFCURVE",
"22 436 CURVE SMOOTH",
"22 415 OFFCURVE",
"40 401 OFFCURVE",
"69 394 CURVE SMOOTH"
);
}
);
width = 643;
}
);
note = threequarters;
unicode = 00BE;
},
{
glyphname = threesuperior;
lastChange = "2021-05-06 10:42:46 +0000";
layers = (
{
layerId = "23C1765D-E8A9-427D-A2B9-D2B95394C525";
paths = (
{
closed = 1;
nodes = (
"85 322 OFFCURVE",
"102 321 OFFCURVE",
"119 321 CURVE SMOOTH",
"186 321 OFFCURVE",
"254 349 OFFCURVE",
"284 407 CURVE SMOOTH",
"291 420 OFFCURVE",
"295 435 OFFCURVE",
"295 450 CURVE SMOOTH",
"295 482 OFFCURVE",
"276 514 OFFCURVE",
"221 519 CURVE",
"251 527 OFFCURVE",
"299 552 OFFCURVE",
"308 588 CURVE SMOOTH",
"310 595 OFFCURVE",
"310 601 OFFCURVE",
"310 606 CURVE SMOOTH",
"310 612 OFFCURVE",
"310 617 OFFCURVE",
"308 622 CURVE SMOOTH",
"297 653 OFFCURVE",
"259 662 OFFCURVE",
"224 662 CURVE SMOOTH",
"186 661 OFFCURVE",
"130 649 OFFCURVE",
"110 614 CURVE SMOOTH",
"107 608 OFFCURVE",
"105 601 OFFCURVE",
"105 595 CURVE SMOOTH",
"105 582 OFFCURVE",
"113 573 OFFCURVE",
"130 574 CURVE",
"129 577 OFFCURVE",
"128 581 OFFCURVE",
"128 585 CURVE SMOOTH",
"128 598 OFFCURVE",
"135 612 OFFCURVE",
"146 623 CURVE SMOOTH",
"166 642 OFFCURVE",
"191 651 OFFCURVE",
"218 651 CURVE SMOOTH",
"252 651 OFFCURVE",
"272 634 OFFCURVE",
"272 609 CURVE SMOOTH",
"272 573 OFFCURVE",
"239 541 OFFCURVE",
"208 531 CURVE SMOOTH",
"185 523 OFFCURVE",
"157 523 OFFCURVE",
"138 523 CURVE SMOOTH",
"126 523 OFFCURVE",
"120 517 OFFCURVE",
"120 513 CURVE SMOOTH",
"120 510 OFFCURVE",
"123 508 OFFCURVE",
"128 508 CURVE SMOOTH",
"139 508 OFFCURVE",
"161 509 OFFCURVE",
"173 509 CURVE SMOOTH",
"212 509 OFFCURVE",
"252 496 OFFCURVE",
"252 449 CURVE SMOOTH",
"252 377 OFFCURVE",
"184 330 OFFCURVE",
"121 330 CURVE SMOOTH",
"83 330 OFFCURVE",
"42 347 OFFCURVE",
"48 383 CURVE",
"48 389 OFFCURVE",
"50 397 OFFCURVE",
"52 403 CURVE",
"35 404 OFFCURVE",
"26 389 OFFCURVE",
"24 381 CURVE SMOOTH",
"23 377 OFFCURVE",
"22 372 OFFCURVE",
"22 368 CURVE SMOOTH",
"22 347 OFFCURVE",
"40 333 OFFCURVE",
"69 326 CURVE SMOOTH"
);
}
);
width = 354;
}
);
note = threesuperior;
unicode = 00B3;
},
{
glyphname = twosuperior;
lastChange = "2021-05-06 10:42:46 +0000";
layers = (
{
layerId = "23C1765D-E8A9-427D-A2B9-D2B95394C525";
paths = (
{
closed = 1;
nodes = (
"35 338 OFFCURVE",
"42 343 OFFCURVE",
"47 344 CURVE",
"54 347 OFFCURVE",
"62 348 OFFCURVE",
"70 348 CURVE SMOOTH",
"90 348 OFFCURVE",
"112 341 OFFCURVE",
"129 337 CURVE SMOOTH",
"147 333 OFFCURVE",
"172 329 OFFCURVE",
"197 329 CURVE SMOOTH",
"240 329 OFFCURVE",
"283 341 OFFCURVE",
"289 388 CURVE SMOOTH",
"291 406 OFFCURVE",
"286 420 OFFCURVE",
"273 430 CURVE SMOOTH",
"270 433 OFFCURVE",
"267 434 OFFCURVE",
"265 434 CURVE SMOOTH",
"260 435 OFFCURVE",
"259 432 OFFCURVE",
"262 429 CURVE SMOOTH",
"269 424 OFFCURVE",
"271 418 OFFCURVE",
"271 411 CURVE SMOOTH",
"271 407 OFFCURVE",
"270 403 OFFCURVE",
"269 399 CURVE SMOOTH",
"257 363 OFFCURVE",
"202 351 OFFCURVE",
"174 351 CURVE SMOOTH",
"136 351 OFFCURVE",
"117 357 OFFCURVE",
"85 365 CURVE SMOOTH",
"74 368 OFFCURVE",
"70 372 OFFCURVE",
"70 377 CURVE SMOOTH",
"70 390 OFFCURVE",
"96 407 OFFCURVE",
"105 412 CURVE SMOOTH",
"158 444 OFFCURVE",
"238 469 OFFCURVE",
"286 510 CURVE SMOOTH",
"311 532 OFFCURVE",
"329 561 OFFCURVE",
"329 595 CURVE SMOOTH",
"329 646 OFFCURVE",
"279 663 OFFCURVE",
"228 663 CURVE SMOOTH",
"207 662 OFFCURVE",
"184 658 OFFCURVE",
"164 650 CURVE SMOOTH",
"133 637 OFFCURVE",
"107 615 OFFCURVE",
"103 581 CURVE SMOOTH",
"102 567 OFFCURVE",
"110 547 OFFCURVE",
"123 542 CURVE SMOOTH",
"127 541 OFFCURVE",
"136 541 OFFCURVE",
"133 542 CURVE",
"129 549 OFFCURVE",
"126 559 OFFCURVE",
"126 569 CURVE SMOOTH",
"126 573 OFFCURVE",
"126 576 OFFCURVE",
"127 579 CURVE",
"131 604 OFFCURVE",
"146 626 OFFCURVE",
"171 640 CURVE SMOOTH",
"186 648 OFFCURVE",
"203 652 OFFCURVE",
"219 652 CURVE SMOOTH",
"252 652 OFFCURVE",
"284 637 OFFCURVE",
"284 597 CURVE SMOOTH",
"284 568 OFFCURVE",
"274 545 OFFCURVE",
"258 526 CURVE SMOOTH",
"221 480 OFFCURVE",
"148 455 OFFCURVE",
"99 426 CURVE SMOOTH",
"77 413 OFFCURVE",
"54 395 OFFCURVE",
"42 379 CURVE SMOOTH",
"37 373 OFFCURVE",
"27 357 OFFCURVE",
"27 345 CURVE SMOOTH",
"27 340 OFFCURVE",
"29 336 OFFCURVE",
"33 334 CURVE"
);
}
);
width = 366;
}
);
note = twosuperior;
unicode = 00B2;
},
{
glyphname = brokenbar;
lastChange = "2021-05-06 10:42:41 +0000";
layers = (
{
layerId = "23C1765D-E8A9-427D-A2B9-D2B95394C525";
paths = (
{
closed = 1;
nodes = (
"187 -196 LINE",
"264 184 LINE",
"224 187 LINE",
"143 -196 LINE"
);
},
{
closed = 1;
nodes = (
"364 637 LINE",
"320 637 LINE",
"243 278 LINE",
"284 274 LINE"
);
}
);
width = 412;
}
);
note = brokenbar;
unicode = 00A6;
},
{
glyphname = minus;
lastChange = "2021-05-06 10:42:41 +0000";
layers = (
{
layerId = "23C1765D-E8A9-427D-A2B9-D2B95394C525";
paths = (
{
closed = 1;
nodes = (
"309 176 LINE",
"309 195 LINE",
"91 195 LINE",
"91 176 LINE"
);
}
);
width = 317;
}
);
note = minus;
unicode = 2212;
},
{
glyphname = multiply;
lastChange = "2021-05-06 10:42:41 +0000";
layers = (
{
layerId = "23C1765D-E8A9-427D-A2B9-D2B95394C525";
paths = (
{
closed = 1;
nodes = (
"154 86 LINE",
"248 211 LINE",
"313 86 LINE",
"347 86 LINE",
"269 238 LINE",
"386 392 LINE",
"352 392 LINE",
"255 264 LINE",
"190 392 LINE",
"156 392 LINE",
"235 238 LINE",
"119 86 LINE"
);
}
);
width = 391;
}
);
note = multiply;
unicode = 00D7;
},
{
glyphname = Lslash;
lastChange = "2021-05-06 10:42:46 +0000";
layers = (
{
layerId = "23C1765D-E8A9-427D-A2B9-D2B95394C525";
paths = (
{
closed = 1;
nodes = (
"711 -91 OFFCURVE",
"751 -79 OFFCURVE",
"784 -59 CURVE SMOOTH",
"831 -30 OFFCURVE",
"859 22 OFFCURVE",
"859 75 CURVE SMOOTH",
"859 93 OFFCURVE",
"856 111 OFFCURVE",
"849 129 CURVE SMOOTH",
"837 161 OFFCURVE",
"814 190 OFFCURVE",
"779 215 CURVE SMOOTH",
"757 230 OFFCURVE",
"733 241 OFFCURVE",
"711 246 CURVE SMOOTH",
"710 246 OFFCURVE",
"703 245 OFFCURVE",
"703 242 CURVE SMOOTH",
"703 240 OFFCURVE",
"705 238 OFFCURVE",
"710 236 CURVE SMOOTH",
"728 229 OFFCURVE",
"752 216 OFFCURVE",
"774 200 CURVE SMOOTH",
"813 171 OFFCURVE",
"830 136 OFFCURVE",
"830 102 CURVE SMOOTH",
"830 53 OFFCURVE",
"794 5 OFFCURVE",
"739 -20 CURVE SMOOTH",
"704 -36 OFFCURVE",
"662 -42 OFFCURVE",
"616 -42 CURVE SMOOTH",
"517 -42 OFFCURVE",
"402 -12 OFFCURVE",
"310 15 CURVE SMOOTH",
"247 34 LINE",
"288 62 OFFCURVE",
"324 100 OFFCURVE",
"354 143 CURVE SMOOTH",
"373 171 OFFCURVE",
"394 208 OFFCURVE",
"415 252 CURVE",
"524 275 LINE",
"518 298 LINE",
"428 279 LINE",
"497 422 OFFCURVE",
"575 605 OFFCURVE",
"659 653 CURVE SMOOTH",
"680 665 OFFCURVE",
"705 671 OFFCURVE",
"729 671 CURVE SMOOTH",
"778 671 OFFCURVE",
"823 645 OFFCURVE",
"823 591 CURVE SMOOTH",
"823 585 OFFCURVE",
"822 578 OFFCURVE",
"821 570 CURVE SMOOTH",
"809 505 OFFCURVE",
"754 454 OFFCURVE",
"694 432 CURVE SMOOTH",
"688 430 OFFCURVE",
"686 427 OFFCURVE",
"686 423 CURVE SMOOTH",
"686 421 OFFCURVE",
"687 419 OFFCURVE",
"691 419 CURVE SMOOTH",
"693 419 OFFCURVE",
"695 420 OFFCURVE",
"698 421 CURVE SMOOTH",
"762 444 OFFCURVE",
"821 490 OFFCURVE",
"841 556 CURVE SMOOTH",
"846 571 OFFCURVE",
"848 586 OFFCURVE",
"848 599 CURVE SMOOTH",
"848 654 OFFCURVE",
"811 694 OFFCURVE",
"742 694 CURVE SMOOTH",
"709 694 OFFCURVE",
"678 684 OFFCURVE",
"649 669 CURVE SMOOTH",
"600 643 OFFCURVE",
"558 598 OFFCURVE",
"527 556 CURVE SMOOTH",
"465 471 OFFCURVE",
"416 361 OFFCURVE",
"367 265 CURVE",
"252 240 LINE",
"257 216 LINE",
"353 238 LINE",
"336 205 OFFCURVE",
"319 174 OFFCURVE",
"302 148 CURVE SMOOTH",
"275 106 OFFCURVE",
"244 69 OFFCURVE",
"212 43 CURVE",
"100 74 LINE SMOOTH",
"88 78 OFFCURVE",
"58 85 OFFCURVE",
"37 85 CURVE SMOOTH",
"29 85 OFFCURVE",
"21 84 OFFCURVE",
"17 81 CURVE SMOOTH",
"11 77 OFFCURVE",
"14 72 OFFCURVE",
"18 72 CURVE SMOOTH",
"18 72 OFFCURVE",
"19 72 OFFCURVE",
"19 72 CURVE SMOOTH",
"38 76 OFFCURVE",
"75 65 OFFCURVE",
"95 59 CURVE SMOOTH",
"122 50 OFFCURVE",
"155 38 OFFCURVE",
"187 25 CURVE",
"179 21 OFFCURVE",
"172 18 OFFCURVE",
"163 15 CURVE SMOOTH",
"147 9 OFFCURVE",
"128 5 OFFCURVE",
"108 5 CURVE SMOOTH",
"98 5 OFFCURVE",
"88 7 OFFCURVE",
"78 9 CURVE SMOOTH",
"59 14 OFFCURVE",
"30 33 OFFCURVE",
"34 54 CURVE SMOOTH",
"36 61 OFFCURVE",
"29 59 OFFCURVE",
"24 54 CURVE SMOOTH",
"20 49 OFFCURVE",
"18 42 OFFCURVE",
"18 36 CURVE SMOOTH",
"18 21 OFFCURVE",
"27 4 OFFCURVE",
"42 -4 CURVE SMOOTH",
"56 -11 OFFCURVE",
"77 -14 OFFCURVE",
"99 -14 CURVE SMOOTH",
"126 -14 OFFCURVE",
"154 -10 OFFCURVE",
"175 -3 CURVE SMOOTH",
"189 2 OFFCURVE",
"202 8 OFFCURVE",
"215 14 CURVE",
"299 -20 LINE SMOOTH",
"397 -60 OFFCURVE",
"525 -95 OFFCURVE",
"634 -95 CURVE SMOOTH",
"646 -95 OFFCURVE",
"658 -95 OFFCURVE",
"669 -94 CURVE SMOOTH"
);
}
);
width = 868;
}
);
note = Lslash;
unicode = 0141;
},
{
glyphname = exclam;
lastChange = "2021-05-06 10:42:46 +0000";
layers = (
{
layerId = "23C1765D-E8A9-427D-A2B9-D2B95394C525";
paths = (
{
closed = 1;
nodes = (
"205 134 LINE",
"205 134 OFFCURVE",
"493 569 OFFCURVE",
"501 581 CURVE",
"474 580 OFFCURVE",
"417 569 OFFCURVE",
"412 560 CURVE SMOOTH",
"188 133 LINE"
);
},
{
closed = 1;
nodes = (
"161 -5 OFFCURVE",
"178 10 OFFCURVE",
"178 30 CURVE SMOOTH",
"178 43 OFFCURVE",
"169 55 OFFCURVE",
"155 55 CURVE SMOOTH",
"136 55 OFFCURVE",
"118 40 OFFCURVE",
"118 20 CURVE SMOOTH",
"118 7 OFFCURVE",
"127 -5 OFFCURVE",
"142 -5 CURVE SMOOTH"
);
}
);
width = 371;
}
);
note = exclam;
unicode = 0021;
},
{
glyphname = quotedbl;
lastChange = "2021-05-06 10:42:46 +0000";
layers = (
{
layerId = "23C1765D-E8A9-427D-A2B9-D2B95394C525";
paths = (
{
closed = 1;
nodes = (
"289 387 OFFCURVE",
"315 468 OFFCURVE",
"325 498 CURVE SMOOTH",
"329 510 OFFCURVE",
"315 519 OFFCURVE",
"302 519 CURVE SMOOTH",
"293 519 OFFCURVE",
"285 515 OFFCURVE",
"283 505 CURVE SMOOTH",
"276 459 OFFCURVE",
"267 394 OFFCURVE",
"257 354 CURVE SMOOTH",
"255 346 OFFCURVE",
"261 342 OFFCURVE",
"267 342 CURVE SMOOTH",
"270 342 OFFCURVE",
"273 343 OFFCURVE",
"274 346 CURVE SMOOTH"
);
},
{
closed = 1;
nodes = (
"186 387 OFFCURVE",
"212 468 OFFCURVE",
"222 498 CURVE SMOOTH",
"226 510 OFFCURVE",
"212 519 OFFCURVE",
"199 519 CURVE SMOOTH",
"190 519 OFFCURVE",
"182 515 OFFCURVE",
"180 505 CURVE SMOOTH",
"173 459 OFFCURVE",
"164 394 OFFCURVE",
"154 354 CURVE SMOOTH",
"152 346 OFFCURVE",
"158 342 OFFCURVE",
"164 342 CURVE SMOOTH",
"167 342 OFFCURVE",
"170 343 OFFCURVE",
"171 346 CURVE SMOOTH"
);
}
);
width = 305;
}
);
note = quotedbl;
unicode = 0022;
},
{
glyphname = numbersign;
lastChange = "2021-05-06 10:42:41 +0000";
layers = (
{
layerId = "23C1765D-E8A9-427D-A2B9-D2B95394C525";
paths = (
{
closed = 1;
nodes = (
"147 86 LINE",
"220 269 LINE",
"335 269 LINE",
"262 86 LINE",
"286 86 LINE",
"359 269 LINE",
"541 269 LINE",
"551 292 LINE",
"367 292 LINE",
"411 400 LINE",
"598 400 LINE",
"606 422 LINE",
"419 422 LINE",
"484 586 LINE",
"462 586 LINE",
"396 422 LINE",
"281 422 LINE",
"347 586 LINE",
"323 586 LINE",
"258 422 LINE",
"71 422 LINE",
"62 400 LINE",
"249 400 LINE",
"206 292 LINE",
"15 292 LINE",
"7 269 LINE",
"197 269 LINE",
"123 86 LINE"
);
},
{
closed = 1;
nodes = (
"272 400 LINE",
"387 400 LINE",
"344 292 LINE",
"229 292 LINE"
);
}
);
width = 606;
}
);
note = numbersign;
unicode = 0023;
},
{
glyphname = dollar;
lastChange = "2021-05-06 10:42:46 +0000";
layers = (
{
layerId = "23C1765D-E8A9-427D-A2B9-D2B95394C525";
paths = (
{
closed = 1;
nodes = (
"167 0 LINE",
"204 89 LINE",
"212 89 LINE SMOOTH",
"326 89 OFFCURVE",
"414 173 OFFCURVE",
"414 262 CURVE SMOOTH",
"414 296 OFFCURVE",
"401 332 OFFCURVE",
"370 363 CURVE SMOOTH",
"360 373 OFFCURVE",
"346 385 OFFCURVE",
"331 399 CURVE",
"414 597 LINE",
"435 590 OFFCURVE",
"454 574 OFFCURVE",
"454 545 CURVE SMOOTH",
"454 538 OFFCURVE",
"453 529 OFFCURVE",
"450 520 CURVE",
"452 515 OFFCURVE",
"457 513 OFFCURVE",
"462 513 CURVE SMOOTH",
"478 513 OFFCURVE",
"501 530 OFFCURVE",
"501 562 CURVE SMOOTH",
"501 597 OFFCURVE",
"465 613 OFFCURVE",
"421 615 CURVE",
"445 674 LINE",
"416 674 LINE",
"391 613 LINE",
"348 609 OFFCURVE",
"300 592 OFFCURVE",
"269 565 CURVE SMOOTH",
"237 539 OFFCURVE",
"220 501 OFFCURVE",
"220 464 CURVE SMOOTH",
"220 428 OFFCURVE",
"235 403 OFFCURVE",
"259 378 CURVE SMOOTH",
"284 352 LINE",
"182 107 LINE",
"153 116 OFFCURVE",
"133 137 OFFCURVE",
"133 163 CURVE SMOOTH",
"133 174 OFFCURVE",
"137 187 OFFCURVE",
"145 199 CURVE",
"148 201 OFFCURVE",
"151 206 OFFCURVE",
"156 209 CURVE",
"151 214 OFFCURVE",
"142 220 OFFCURVE",
"132 220 CURVE SMOOTH",
"129 220 OFFCURVE",
"125 219 OFFCURVE",
"122 218 CURVE",
"95 211 OFFCURVE",
"82 191 OFFCURVE",
"82 167 CURVE SMOOTH",
"82 120 OFFCURVE",
"130 98 OFFCURVE",
"176 91 CURVE",
"139 0 LINE"
);
},
{
closed = 1;
nodes = (
"304 331 LINE",
"319 314 OFFCURVE",
"331 297 OFFCURVE",
"339 278 CURVE SMOOTH",
"345 263 OFFCURVE",
"348 248 OFFCURVE",
"348 233 CURVE SMOOTH",
"348 161 OFFCURVE",
"279 103 OFFCURVE",
"213 103 CURVE SMOOTH",
"210 103 LINE"
);
},
{
closed = 1;
nodes = (
"299 431 OFFCURVE",
"288 444 OFFCURVE",
"280 456 CURVE SMOOTH",
"272 468 OFFCURVE",
"269 481 OFFCURVE",
"269 493 CURVE SMOOTH",
"269 545 OFFCURVE",
"328 595 OFFCURVE",
"385 599 CURVE",
"311 419 LINE"
);
}
);
width = 423;
}
);
note = dollar;
unicode = 0024;
},
{
glyphname = percent;
lastChange = "2021-05-06 10:42:46 +0000";
layers = (
{
layerId = "23C1765D-E8A9-427D-A2B9-D2B95394C525";
paths = (
{
closed = 1;
nodes = (
"37 69 LINE",
"476 573 LINE",
"462 573 OFFCURVE",
"419 578 OFFCURVE",
"400 555 CURVE SMOOTH",
"376 529 OFFCURVE",
"345 506 OFFCURVE",
"300 506 CURVE SMOOTH",
"284 506 OFFCURVE",
"270 511 OFFCURVE",
"248 520 CURVE",
"244 521 OFFCURVE",
"238 525 OFFCURVE",
"234 529 CURVE",
"225 543 OFFCURVE",
"210 552 OFFCURVE",
"185 552 CURVE SMOOTH",
"138 552 OFFCURVE",
"97 516 OFFCURVE",
"84 453 CURVE SMOOTH",
"82 445 OFFCURVE",
"81 436 OFFCURVE",
"81 427 CURVE SMOOTH",
"81 396 OFFCURVE",
"95 367 OFFCURVE",
"135 367 CURVE SMOOTH",
"187 367 OFFCURVE",
"216 403 OFFCURVE",
"234 444 CURVE SMOOTH",
"241 462 OFFCURVE",
"245 484 OFFCURVE",
"243 504 CURVE",
"261 494 OFFCURVE",
"280 488 OFFCURVE",
"300 488 CURVE SMOOTH",
"311 488 OFFCURVE",
"322 490 OFFCURVE",
"333 493 CURVE SMOOTH",
"349 499 OFFCURVE",
"364 506 OFFCURVE",
"375 513 CURVE",
"4 69 LINE"
);
},
{
closed = 1;
nodes = (
"345 111 OFFCURVE",
"373 147 OFFCURVE",
"391 188 CURVE SMOOTH",
"397 202 OFFCURVE",
"402 220 OFFCURVE",
"402 237 CURVE SMOOTH",
"402 268 OFFCURVE",
"387 296 OFFCURVE",
"343 296 CURVE SMOOTH",
"296 296 OFFCURVE",
"256 260 OFFCURVE",
"243 197 CURVE SMOOTH",
"241 188 OFFCURVE",
"240 180 OFFCURVE",
"240 171 CURVE SMOOTH",
"240 140 OFFCURVE",
"254 111 OFFCURVE",
"293 111 CURVE SMOOTH"
);
},
{
closed = 1;
nodes = (
"284 133 OFFCURVE",
"274 145 OFFCURVE",
"274 168 CURVE SMOOTH",
"274 177 OFFCURVE",
"276 188 OFFCURVE",
"279 200 CURVE SMOOTH",
"292 245 OFFCURVE",
"321 276 OFFCURVE",
"346 276 CURVE SMOOTH",
"364 276 OFFCURVE",
"370 262 OFFCURVE",
"370 246 CURVE SMOOTH",
"370 228 OFFCURVE",
"363 207 OFFCURVE",
"359 197 CURVE SMOOTH",
"348 170 OFFCURVE",
"331 133 OFFCURVE",
"298 133 CURVE SMOOTH"
);
},
{
closed = 1;
nodes = (
"125 390 OFFCURVE",
"116 402 OFFCURVE",
"116 424 CURVE SMOOTH",
"116 433 OFFCURVE",
"117 444 OFFCURVE",
"121 456 CURVE SMOOTH",
"133 500 OFFCURVE",
"163 532 OFFCURVE",
"188 532 CURVE SMOOTH",
"206 532 OFFCURVE",
"211 519 OFFCURVE",
"211 503 CURVE SMOOTH",
"211 485 OFFCURVE",
"205 464 OFFCURVE",
"201 453 CURVE SMOOTH",
"191 427 OFFCURVE",
"172 390 OFFCURVE",
"139 390 CURVE SMOOTH"
);
}
);
width = 478;
}
);
note = percent;
unicode = 0025;
},
{
glyphname = ampersand;
lastChange = "2021-05-06 10:42:46 +0000";
layers = (
{
layerId = "23C1765D-E8A9-427D-A2B9-D2B95394C525";
paths = (
{
closed = 1;
nodes = (
"705 -52 OFFCURVE",
"817 44 OFFCURVE",
"859 128 CURVE SMOOTH",
"862 133 OFFCURVE",
"859 137 OFFCURVE",
"855 137 CURVE SMOOTH",
"854 137 OFFCURVE",
"851 136 OFFCURVE",
"850 133 CURVE SMOOTH",
"801 48 OFFCURVE",
"668 -27 OFFCURVE",
"509 -27 CURVE SMOOTH",
"297 -27 OFFCURVE",
"202 107 OFFCURVE",
"202 259 CURVE SMOOTH",
"202 456 OFFCURVE",
"362 682 OFFCURVE",
"631 682 CURVE SMOOTH",
"825 682 OFFCURVE",
"919 530 OFFCURVE",
"919 388 CURVE SMOOTH",
"919 262 OFFCURVE",
"846 143 OFFCURVE",
"704 143 CURVE SMOOTH",
"680 143 OFFCURVE",
"656 148 OFFCURVE",
"634 159 CURVE",
"653 170 OFFCURVE",
"674 186 OFFCURVE",
"694 204 CURVE SMOOTH",
"737 243 OFFCURVE",
"776 298 OFFCURVE",
"776 363 CURVE SMOOTH",
"776 399 OFFCURVE",
"755 438 OFFCURVE",
"714 438 CURVE SMOOTH",
"706 438 OFFCURVE",
"702 435 OFFCURVE",
"702 433 CURVE SMOOTH",
"702 431 OFFCURVE",
"705 429 OFFCURVE",
"711 429 CURVE SMOOTH",
"733 429 OFFCURVE",
"741 394 OFFCURVE",
"741 363 CURVE SMOOTH",
"741 282 OFFCURVE",
"690 211 OFFCURVE",
"616 170 CURVE",
"570 201 OFFCURVE",
"536 259 OFFCURVE",
"528 339 CURVE SMOOTH",
"527 352 OFFCURVE",
"526 364 OFFCURVE",
"526 377 CURVE SMOOTH",
"526 400 OFFCURVE",
"528 424 OFFCURVE",
"532 446 CURVE",
"563 462 OFFCURVE",
"596 476 OFFCURVE",
"627 489 CURVE SMOOTH",
"663 505 OFFCURVE",
"731 530 OFFCURVE",
"731 582 CURVE SMOOTH",
"731 611 OFFCURVE",
"705 622 OFFCURVE",
"675 622 CURVE SMOOTH",
"581 622 OFFCURVE",
"501 532 OFFCURVE",
"476 442 CURVE",
"429 420 OFFCURVE",
"384 392 OFFCURVE",
"354 356 CURVE SMOOTH",
"326 322 OFFCURVE",
"310 278 OFFCURVE",
"310 236 CURVE SMOOTH",
"310 176 OFFCURVE",
"344 121 OFFCURVE",
"425 109 CURVE SMOOTH",
"438 107 OFFCURVE",
"450 106 OFFCURVE",
"463 106 CURVE SMOOTH",
"506 106 OFFCURVE",
"549 116 OFFCURVE",
"590 135 CURVE",
"618 123 OFFCURVE",
"649 118 OFFCURVE",
"680 118 CURVE SMOOTH",
"850 118 OFFCURVE",
"951 268 OFFCURVE",
"951 415 CURVE SMOOTH",
"951 559 OFFCURVE",
"856 700 OFFCURVE",
"637 700 CURVE SMOOTH",
"322 700 OFFCURVE",
"149 470 OFFCURVE",
"149 264 CURVE SMOOTH",
"149 98 OFFCURVE",
"262 -52 OFFCURVE",
"506 -52 CURVE SMOOTH"
);
},
{
closed = 1;
nodes = (
"394 141 OFFCURVE",
"367 189 OFFCURVE",
"367 242 CURVE SMOOTH",
"367 280 OFFCURVE",
"381 322 OFFCURVE",
"406 352 CURVE SMOOTH",
"423 374 OFFCURVE",
"446 393 OFFCURVE",
"470 410 CURVE",
"468 395 OFFCURVE",
"467 379 OFFCURVE",
"467 363 CURVE SMOOTH",
"467 354 OFFCURVE",
"467 345 OFFCURVE",
"468 336 CURVE SMOOTH",
"473 244 OFFCURVE",
"526 176 OFFCURVE",
"576 142 CURVE",
"550 133 OFFCURVE",
"519 129 OFFCURVE",
"491 129 CURVE SMOOTH",
"478 129 OFFCURVE",
"467 129 OFFCURVE",
"456 131 CURVE SMOOTH"
);
},
{
closed = 1;
nodes = (
"551 522 OFFCURVE",
"601 611 OFFCURVE",
"670 611 CURVE SMOOTH",
"690 611 OFFCURVE",
"709 603 OFFCURVE",
"709 582 CURVE SMOOTH",
"709 578 OFFCURVE",
"708 572 OFFCURVE",
"706 566 CURVE SMOOTH",
"694 533 OFFCURVE",
"631 506 OFFCURVE",
"610 496 CURVE SMOOTH",
"589 487 OFFCURVE",
"564 478 OFFCURVE",
"537 468 CURVE"
);
}
);
width = 985;
}
);
note = ampersand;
unicode = 0026;
},
{
glyphname = quotesingle;
lastChange = "2021-05-06 10:42:46 +0000";
layers = (
{
layerId = "23C1765D-E8A9-427D-A2B9-D2B95394C525";
paths = (
{
closed = 1;
nodes = (
"186 387 OFFCURVE",
"212 468 OFFCURVE",
"222 498 CURVE SMOOTH",
"226 510 OFFCURVE",
"212 519 OFFCURVE",
"199 519 CURVE SMOOTH",
"190 519 OFFCURVE",
"182 515 OFFCURVE",
"180 505 CURVE SMOOTH",
"173 459 OFFCURVE",
"164 394 OFFCURVE",
"154 354 CURVE SMOOTH",
"152 346 OFFCURVE",
"158 342 OFFCURVE",
"164 342 CURVE SMOOTH",
"167 342 OFFCURVE",
"170 343 OFFCURVE",
"171 346 CURVE SMOOTH"
);
}
);
width = 162;
}
);
note = quotesingle;
unicode = 0027;
},
{
glyphname = apostrophe;
lastChange = "2021-05-06 10:42:46 +0000";
layers = (
{
layerId = "23C1765D-E8A9-427D-A2B9-D2B95394C525";
paths = (
{
closed = 1;
nodes = (
"189 359 OFFCURVE",
"211 422 OFFCURVE",
"211 460 CURVE SMOOTH",
"211 468 OFFCURVE",
"210 475 OFFCURVE",
"208 480 CURVE SMOOTH",
"203 496 OFFCURVE",
"192 504 OFFCURVE",
"180 504 CURVE SMOOTH",
"154 504 OFFCURVE",
"140 477 OFFCURVE",
"144 454 CURVE",
"148 440 OFFCURVE",
"159 432 OFFCURVE",
"172 432 CURVE SMOOTH",
"175 432 OFFCURVE",
"179 433 OFFCURVE",
"183 434 CURVE",
"185 436 OFFCURVE",
"187 436 OFFCURVE",
"189 438 CURVE",
"184 410 OFFCURVE",
"172 367 OFFCURVE",
"134 343 CURVE",
"128 341 OFFCURVE",
"126 338 OFFCURVE",
"126 335 CURVE SMOOTH",
"126 332 OFFCURVE",
"130 329 OFFCURVE",
"135 329 CURVE SMOOTH",
"137 329 OFFCURVE",
"139 329 OFFCURVE",
"141 330 CURVE"
);
}
);
width = 162;
}
);
note = apostrophe;
unicode = 02BC;
},
{
glyphname = parenleft;
lastChange = "2021-05-06 10:42:46 +0000";
layers = (
{
layerId = "23C1765D-E8A9-427D-A2B9-D2B95394C525";
paths = (
{
closed = 1;
nodes = (
"302 -142 OFFCURVE",
"305 -139 OFFCURVE",
"305 -136 CURVE SMOOTH",
"305 -131 OFFCURVE",
"299 -125 OFFCURVE",
"293 -125 CURVE SMOOTH",
"125 -125 OFFCURVE",
"62 -20 OFFCURVE",
"62 120 CURVE SMOOTH",
"62 167 OFFCURVE",
"69 217 OFFCURVE",
"81 269 CURVE SMOOTH",
"137 507 OFFCURVE",
"294 725 OFFCURVE",
"549 725 CURVE",
"560 726 OFFCURVE",
"551 738 OFFCURVE",
"541 739 CURVE",
"293 739 OFFCURVE",
"75 539 OFFCURVE",
"17 245 CURVE SMOOTH",
"10 210 OFFCURVE",
"7 176 OFFCURVE",
"7 144 CURVE SMOOTH",
"7 -18 OFFCURVE",
"90 -145 OFFCURVE",
"256 -145 CURVE SMOOTH",
"269 -145 OFFCURVE",
"282 -144 OFFCURVE",
"295 -143 CURVE SMOOTH"
);
}
);
width = 307;
}
);
note = parenleft;
unicode = 0028;
},
{
glyphname = parenright;
lastChange = "2021-05-06 10:42:46 +0000";
layers = (
{
layerId = "23C1765D-E8A9-427D-A2B9-D2B95394C525";
paths = (
{
closed = 1;
nodes = (
"181 -168 OFFCURVE",
"399 32 OFFCURVE",
"457 326 CURVE SMOOTH",
"464 361 OFFCURVE",
"467 395 OFFCURVE",
"467 427 CURVE SMOOTH",
"467 589 OFFCURVE",
"384 716 OFFCURVE",
"218 716 CURVE SMOOTH",
"205 716 OFFCURVE",
"192 715 OFFCURVE",
"179 714 CURVE SMOOTH",
"172 713 OFFCURVE",
"169 710 OFFCURVE",
"169 707 CURVE SMOOTH",
"169 702 OFFCURVE",
"175 696 OFFCURVE",
"181 696 CURVE SMOOTH",
"349 696 OFFCURVE",
"412 591 OFFCURVE",
"412 451 CURVE SMOOTH",
"412 404 OFFCURVE",
"405 354 OFFCURVE",
"393 302 CURVE SMOOTH",
"337 64 OFFCURVE",
"180 -154 OFFCURVE",
"-75 -154 CURVE",
"-86 -155 OFFCURVE",
"-77 -167 OFFCURVE",
"-67 -168 CURVE"
);
}
);
width = 465;
}
);
note = parenright;
unicode = 0029;
},
{
glyphname = asterisk;
lastChange = "2021-05-06 10:42:46 +0000";
layers = (
{
layerId = "23C1765D-E8A9-427D-A2B9-D2B95394C525";
paths = (
{
closed = 1;
nodes = (
"343 219 OFFCURVE",
"346 222 OFFCURVE",
"346 226 CURVE SMOOTH",
"346 226 OFFCURVE",
"345 227 OFFCURVE",
"345 228 CURVE",
"313 360 LINE",
"462 372 LINE SMOOTH",
"468 372 OFFCURVE",
"471 377 OFFCURVE",
"471 380 CURVE SMOOTH",
"471 383 OFFCURVE",
"468 387 OFFCURVE",
"464 388 CURVE",
"322 399 LINE",
"416 530 LINE SMOOTH",
"420 536 OFFCURVE",
"416 542 OFFCURVE",
"411 542 CURVE SMOOTH",
"408 542 OFFCURVE",
"406 541 OFFCURVE",
"404 539 CURVE SMOOTH",
"292 418 LINE",
"237 538 LINE SMOOTH",
"235 543 OFFCURVE",
"230 543 OFFCURVE",
"227 541 CURVE",
"224 540 OFFCURVE",
"221 536 OFFCURVE",
"223 532 CURVE",
"255 399 LINE",
"105 388 LINE",
"100 387 OFFCURVE",
"97 383 OFFCURVE",
"97 379 CURVE SMOOTH",
"97 376 OFFCURVE",
"100 372 OFFCURVE",
"104 372 CURVE SMOOTH",
"246 360 LINE",
"152 229 LINE SMOOTH",
"148 223 OFFCURVE",
"152 217 OFFCURVE",
"157 217 CURVE SMOOTH",
"160 217 OFFCURVE",
"162 218 OFFCURVE",
"164 220 CURVE SMOOTH",
"275 341 LINE",
"331 222 LINE SMOOTH",
"333 217 OFFCURVE",
"337 217 OFFCURVE",
"341 218 CURVE SMOOTH"
);
}
);
width = 523;
}
);
note = asterisk;
unicode = 002A;
},
{
glyphname = plus;
lastChange = "2021-05-06 10:42:41 +0000";
layers = (
{
layerId = "23C1765D-E8A9-427D-A2B9-D2B95394C525";
paths = (
{
closed = 1;
nodes = (
"232 50 LINE",
"258 176 LINE",
"383 176 LINE",
"383 195 LINE",
"263 195 LINE",
"290 321 LINE",
"267 321 LINE",
"240 195 LINE",
"112 195 LINE",
"112 176 LINE",
"235 176 LINE",
"209 50 LINE"
);
}
);
width = 383;
}
);
note = plus;
unicode = 002B;
},
{
glyphname = comma;
lastChange = "2021-05-06 10:42:46 +0000";
layers = (
{
layerId = "23C1765D-E8A9-427D-A2B9-D2B95394C525";
paths = (
{
closed = 1;
nodes = (
"149 -74 OFFCURVE",
"195 7 OFFCURVE",
"195 36 CURVE SMOOTH",
"195 55 OFFCURVE",
"184 65 OFFCURVE",
"168 65 CURVE SMOOTH",
"149 65 OFFCURVE",
"133 47 OFFCURVE",
"133 28 CURVE SMOOTH",
"133 13 OFFCURVE",
"144 3 OFFCURVE",
"159 3 CURVE SMOOTH",
"164 3 LINE",
"151 -19 OFFCURVE",
"122 -61 OFFCURVE",
"79 -70 CURVE",
"72 -70 OFFCURVE",
"69 -73 OFFCURVE",
"69 -76 CURVE SMOOTH",
"69 -80 OFFCURVE",
"73 -85 OFFCURVE",
"81 -85 CURVE"
);
}
);
width = 208;
}
);
note = comma;
unicode = 002C;
},
{
glyphname = hyphen;
lastChange = "2021-05-06 10:42:41 +0000";
layers = (
{
layerId = "23C1765D-E8A9-427D-A2B9-D2B95394C525";
paths = (
{
closed = 1;
nodes = (
"309 176 LINE",
"309 195 LINE",
"129 195 LINE",
"129 176 LINE"
);
}
);
width = 317;
}
);
note = hyphen;
unicode = 002D;
},
{
glyphname = period;
lastChange = "2021-05-06 10:42:46 +0000";
layers = (
{
layerId = "23C1765D-E8A9-427D-A2B9-D2B95394C525";
paths = (
{
closed = 1;
nodes = (
"168 -5 OFFCURVE",
"186 10 OFFCURVE",
"186 30 CURVE SMOOTH",
"186 43 OFFCURVE",
"177 55 OFFCURVE",
"163 55 CURVE SMOOTH",
"144 55 OFFCURVE",
"126 40 OFFCURVE",
"126 20 CURVE SMOOTH",
"126 7 OFFCURVE",
"135 -5 OFFCURVE",
"149 -5 CURVE SMOOTH"
);
}
);
width = 191;
}
);
note = period;
unicode = 002E;
},
{
glyphname = slash;
lastChange = "2021-05-06 10:42:41 +0000";
layers = (
{
layerId = "23C1765D-E8A9-427D-A2B9-D2B95394C525";
paths = (
{
closed = 1;
nodes = (
"32 -81 LINE",
"529 566 LINE",
"501 566 LINE",
"5 -81 LINE"
);
}
);
width = 529;
}
);
note = slash;
unicode = 002F;
},
{
glyphname = zero;
lastChange = "2021-05-06 10:42:46 +0000";
layers = (
{
layerId = "23C1765D-E8A9-427D-A2B9-D2B95394C525";
paths = (
{
closed = 1;
nodes = (
"426 -10 OFFCURVE",
"593 157 OFFCURVE",
"639 317 CURVE SMOOTH",
"647 345 OFFCURVE",
"652 374 OFFCURVE",
"652 402 CURVE SMOOTH",
"652 414 OFFCURVE",
"651 427 OFFCURVE",
"649 439 CURVE SMOOTH",
"638 513 OFFCURVE",
"584 577 OFFCURVE",
"469 577 CURVE SMOOTH",
"295 577 OFFCURVE",
"128 411 OFFCURVE",
"82 250 CURVE SMOOTH",
"74 221 OFFCURVE",
"69 190 OFFCURVE",
"69 160 CURVE SMOOTH",
"69 149 OFFCURVE",
"69 138 OFFCURVE",
"71 127 CURVE SMOOTH",
"81 55 OFFCURVE",
"137 -10 OFFCURVE",
"252 -10 CURVE SMOOTH"
);
},
{
closed = 1;
nodes = (
"186 12 OFFCURVE",
"151 61 OFFCURVE",
"141 116 CURVE SMOOTH",
"138 130 OFFCURVE",
"137 145 OFFCURVE",
"137 160 CURVE SMOOTH",
"137 222 OFFCURVE",
"157 290 OFFCURVE",
"182 337 CURVE SMOOTH",
"237 442 OFFCURVE",
"337 556 OFFCURVE",
"464 556 CURVE SMOOTH",
"542 556 OFFCURVE",
"570 508 OFFCURVE",
"580 453 CURVE SMOOTH",
"583 439 OFFCURVE",
"584 424 OFFCURVE",
"584 409 CURVE SMOOTH",
"584 347 OFFCURVE",
"564 278 OFFCURVE",
"540 230 CURVE SMOOTH",
"488 125 OFFCURVE",
"392 12 OFFCURVE",
"263 12 CURVE SMOOTH"
);
}
);
width = 598;
}
);
note = zero;
unicode = 0030;
},
{
glyphname = one;
lastChange = "2021-05-06 10:42:46 +0000";
layers = (
{
layerId = "23C1765D-E8A9-427D-A2B9-D2B95394C525";
paths = (
{
closed = 1;
nodes = (
"278 0 LINE SMOOTH",
"283 0 OFFCURVE",
"288 9 OFFCURVE",
"288 15 CURVE SMOOTH",
"288 18 OFFCURVE",
"287 21 OFFCURVE",
"283 21 CURVE SMOOTH",
"224 21 LINE SMOOTH",
"202 21 OFFCURVE",
"193 26 OFFCURVE",
"193 38 CURVE SMOOTH",
"193 48 OFFCURVE",
"198 62 OFFCURVE",
"207 81 CURVE SMOOTH",
"417 556 LINE",
"350 556 LINE",
"131 376 LINE",
"160 376 OFFCURVE",
"184 390 OFFCURVE",
"195 399 CURVE SMOOTH",
"342 510 LINE",
"149 84 LINE SMOOTH",
"130 43 OFFCURVE",
"109 21 OFFCURVE",
"72 21 CURVE SMOOTH",
"17 21 LINE SMOOTH",
"10 21 OFFCURVE",
"7 13 OFFCURVE",
"7 7 CURVE SMOOTH",
"7 3 OFFCURVE",
"8 0 OFFCURVE",
"12 0 CURVE SMOOTH"
);
}
);
width = 327;
}
);
note = one;
unicode = 0031;
},
{
glyphname = two;
lastChange = "2021-05-06 10:42:46 +0000";
layers = (
{
layerId = "23C1765D-E8A9-427D-A2B9-D2B95394C525";
paths = (
{
closed = 1;
nodes = (
"57 -3 OFFCURVE",
"69 4 OFFCURVE",
"77 7 CURVE SMOOTH",
"89 12 OFFCURVE",
"102 14 OFFCURVE",
"116 14 CURVE SMOOTH",
"151 14 OFFCURVE",
"190 2 OFFCURVE",
"221 -5 CURVE SMOOTH",
"252 -12 OFFCURVE",
"295 -19 OFFCURVE",
"338 -19 CURVE SMOOTH",
"414 -19 OFFCURVE",
"490 3 OFFCURVE",
"500 85 CURVE SMOOTH",
"504 116 OFFCURVE",
"495 139 OFFCURVE",
"472 157 CURVE SMOOTH",
"466 162 OFFCURVE",
"460 165 OFFCURVE",
"456 165 CURVE SMOOTH",
"452 165 OFFCURVE",
"450 163 OFFCURVE",
"450 161 CURVE SMOOTH",
"450 159 OFFCURVE",
"450 158 OFFCURVE",
"452 156 CURVE SMOOTH",
"464 146 OFFCURVE",
"468 134 OFFCURVE",
"468 122 CURVE SMOOTH",
"468 116 OFFCURVE",
"467 109 OFFCURVE",
"465 103 CURVE SMOOTH",
"444 39 OFFCURVE",
"345 19 OFFCURVE",
"297 19 CURVE SMOOTH",
"232 19 OFFCURVE",
"200 28 OFFCURVE",
"144 42 CURVE SMOOTH",
"124 47 OFFCURVE",
"117 55 OFFCURVE",
"117 64 CURVE SMOOTH",
"117 87 OFFCURVE",
"162 118 OFFCURVE",
"178 127 CURVE SMOOTH",
"271 182 OFFCURVE",
"411 227 OFFCURVE",
"493 297 CURVE SMOOTH",
"538 335 OFFCURVE",
"569 385 OFFCURVE",
"569 445 CURVE SMOOTH",
"569 533 OFFCURVE",
"483 564 OFFCURVE",
"395 564 CURVE SMOOTH",
"359 564 OFFCURVE",
"318 556 OFFCURVE",
"281 541 CURVE SMOOTH",
"229 519 OFFCURVE",
"180 479 OFFCURVE",
"174 420 CURVE SMOOTH",
"171 395 OFFCURVE",
"189 360 OFFCURVE",
"211 354 CURVE",
"215 352 OFFCURVE",
"221 351 OFFCURVE",
"225 351 CURVE SMOOTH",
"227 351 OFFCURVE",
"229 351 OFFCURVE",
"229 352 CURVE SMOOTH",
"229 353 OFFCURVE",
"228 353 OFFCURVE",
"228 354 CURVE SMOOTH",
"220 365 OFFCURVE",
"215 384 OFFCURVE",
"215 402 CURVE SMOOTH",
"215 407 OFFCURVE",
"215 412 OFFCURVE",
"216 416 CURVE SMOOTH",
"224 462 OFFCURVE",
"250 500 OFFCURVE",
"293 523 CURVE SMOOTH",
"320 537 OFFCURVE",
"350 545 OFFCURVE",
"377 545 CURVE SMOOTH",
"435 545 OFFCURVE",
"491 517 OFFCURVE",
"491 449 CURVE SMOOTH",
"491 399 OFFCURVE",
"472 357 OFFCURVE",
"446 325 CURVE SMOOTH",
"381 244 OFFCURVE",
"254 200 OFFCURVE",
"169 150 CURVE SMOOTH",
"131 128 OFFCURVE",
"88 96 OFFCURVE",
"68 69 CURVE SMOOTH",
"60 58 OFFCURVE",
"43 29 OFFCURVE",
"43 9 CURVE SMOOTH",
"43 0 OFFCURVE",
"46 -7 OFFCURVE",
"53 -11 CURVE"
);
}
);
width = 541;
}
);
note = two;
unicode = 0032;
},
{
glyphname = three;
lastChange = "2021-05-06 10:42:46 +0000";
layers = (
{
layerId = "23C1765D-E8A9-427D-A2B9-D2B95394C525";
paths = (
{
closed = 1;
nodes = (
"155 -17 OFFCURVE",
"184 -20 OFFCURVE",
"213 -20 CURVE SMOOTH",
"324 -20 OFFCURVE",
"437 29 OFFCURVE",
"488 127 CURVE SMOOTH",
"499 149 OFFCURVE",
"507 175 OFFCURVE",
"507 202 CURVE SMOOTH",
"507 255 OFFCURVE",
"476 306 OFFCURVE",
"383 315 CURVE",
"433 330 OFFCURVE",
"513 372 OFFCURVE",
"529 432 CURVE SMOOTH",
"532 442 OFFCURVE",
"534 452 OFFCURVE",
"534 461 CURVE SMOOTH",
"534 471 OFFCURVE",
"532 480 OFFCURVE",
"529 488 CURVE SMOOTH",
"511 539 OFFCURVE",
"450 556 OFFCURVE",
"393 556 CURVE SMOOTH",
"329 556 OFFCURVE",
"231 534 OFFCURVE",
"197 474 CURVE SMOOTH",
"191 463 OFFCURVE",
"188 452 OFFCURVE",
"188 442 CURVE SMOOTH",
"188 421 OFFCURVE",
"201 405 OFFCURVE",
"229 407 CURVE",
"227 413 OFFCURVE",
"225 419 OFFCURVE",
"225 426 CURVE SMOOTH",
"225 447 OFFCURVE",
"237 471 OFFCURVE",
"257 490 CURVE SMOOTH",
"290 521 OFFCURVE",
"332 536 OFFCURVE",
"378 536 CURVE SMOOTH",
"435 535 OFFCURVE",
"469 509 OFFCURVE",
"469 467 CURVE SMOOTH",
"469 407 OFFCURVE",
"413 354 OFFCURVE",
"361 336 CURVE SMOOTH",
"323 322 OFFCURVE",
"275 321 OFFCURVE",
"242 321 CURVE SMOOTH",
"223 321 OFFCURVE",
"214 312 OFFCURVE",
"214 305 CURVE SMOOTH",
"214 301 OFFCURVE",
"218 297 OFFCURVE",
"227 297 CURVE SMOOTH",
"244 297 OFFCURVE",
"281 299 OFFCURVE",
"302 299 CURVE SMOOTH",
"366 298 OFFCURVE",
"434 276 OFFCURVE",
"434 197 CURVE SMOOTH",
"434 77 OFFCURVE",
"318 -1 OFFCURVE",
"212 -1 CURVE SMOOTH",
"153 -1 OFFCURVE",
"90 23 OFFCURVE",
"90 76 CURVE SMOOTH",
"90 79 OFFCURVE",
"90 83 OFFCURVE",
"91 87 CURVE SMOOTH",
"93 98 OFFCURVE",
"95 110 OFFCURVE",
"99 120 CURVE",
"70 121 OFFCURVE",
"56 98 OFFCURVE",
"52 83 CURVE SMOOTH",
"50 76 OFFCURVE",
"49 70 OFFCURVE",
"49 63 CURVE SMOOTH",
"49 26 OFFCURVE",
"79 1 OFFCURVE",
"127 -10 CURVE SMOOTH"
);
}
);
width = 541;
}
);
note = three;
unicode = 0033;
},
{
glyphname = four;
lastChange = "2021-05-06 10:42:46 +0000";
layers = (
{
layerId = "23C1765D-E8A9-427D-A2B9-D2B95394C525";
paths = (
{
closed = 1;
nodes = (
"382 0 LINE SMOOTH",
"387 0 OFFCURVE",
"392 9 OFFCURVE",
"392 15 CURVE SMOOTH",
"392 18 OFFCURVE",
"391 21 OFFCURVE",
"387 21 CURVE SMOOTH",
"328 21 LINE SMOOTH",
"307 21 OFFCURVE",
"298 26 OFFCURVE",
"298 39 CURVE SMOOTH",
"298 48 OFFCURVE",
"303 62 OFFCURVE",
"311 81 CURVE SMOOTH",
"358 185 LINE",
"398 185 LINE SMOOTH",
"416 185 OFFCURVE",
"444 199 OFFCURVE",
"456 220 CURVE",
"371 220 LINE",
"522 556 LINE",
"442 556 OFFCURVE",
"439 542 OFFCURVE",
"426 531 CURVE SMOOTH",
"88 241 LINE SMOOTH",
"52 211 OFFCURVE",
"38 196 OFFCURVE",
"38 190 CURVE SMOOTH",
"38 185 OFFCURVE",
"44 184 OFFCURVE",
"55 184 CURVE SMOOTH",
"64 184 OFFCURVE",
"77 185 OFFCURVE",
"91 185 CURVE SMOOTH",
"298 185 LINE",
"252 84 LINE SMOOTH",
"234 44 OFFCURVE",
"212 21 OFFCURVE",
"177 21 CURVE SMOOTH",
"121 21 LINE SMOOTH",
"114 21 OFFCURVE",
"111 13 OFFCURVE",
"111 7 CURVE SMOOTH",
"111 3 OFFCURVE",
"112 0 OFFCURVE",
"116 0 CURVE SMOOTH"
);
},
{
closed = 1;
nodes = (
"445 510 LINE",
"314 220 LINE",
"104 220 LINE"
);
}
);
width = 477;
}
);
note = four;
unicode = 0034;
},
{
glyphname = five;
lastChange = "2021-05-06 10:42:46 +0000";
layers = (
{
layerId = "23C1765D-E8A9-427D-A2B9-D2B95394C525";
paths = (
{
closed = 1;
nodes = (
"298 -26 OFFCURVE",
"440 63 OFFCURVE",
"440 205 CURVE SMOOTH",
"440 211 OFFCURVE",
"440 218 OFFCURVE",
"439 224 CURVE SMOOTH",
"431 314 OFFCURVE",
"342 331 OFFCURVE",
"268 331 CURVE SMOOTH",
"241 331 OFFCURVE",
"211 330 OFFCURVE",
"187 326 CURVE",
"256 507 LINE",
"263 509 OFFCURVE",
"278 510 OFFCURVE",
"298 510 CURVE SMOOTH",
"340 510 OFFCURVE",
"401 506 OFFCURVE",
"449 500 CURVE SMOOTH",
"478 496 OFFCURVE",
"494 525 OFFCURVE",
"506 556 CURVE",
"241 556 LINE",
"124 284 LINE",
"160 296 OFFCURVE",
"196 307 OFFCURVE",
"236 307 CURVE SMOOTH",
"261 307 OFFCURVE",
"284 304 OFFCURVE",
"301 297 CURVE SMOOTH",
"346 280 OFFCURVE",
"366 241 OFFCURVE",
"366 197 CURVE SMOOTH",
"366 109 OFFCURVE",
"285 -2 OFFCURVE",
"161 -7 CURVE SMOOTH",
"105 -9 OFFCURVE",
"61 22 OFFCURVE",
"61 77 CURVE SMOOTH",
"61 89 OFFCURVE",
"63 102 OFFCURVE",
"68 117 CURVE SMOOTH",
"75 138 OFFCURVE",
"95 170 OFFCURVE",
"116 187 CURVE SMOOTH",
"122 193 OFFCURVE",
"105 189 OFFCURVE",
"98 186 CURVE SMOOTH",
"70 175 OFFCURVE",
"36 143 OFFCURVE",
"26 117 CURVE SMOOTH",
"21 104 OFFCURVE",
"19 91 OFFCURVE",
"19 80 CURVE SMOOTH",
"19 58 OFFCURVE",
"26 40 OFFCURVE",
"38 26 CURVE SMOOTH",
"70 -13 OFFCURVE",
"126 -26 OFFCURVE",
"174 -26 CURVE SMOOTH"
);
}
);
width = 478;
}
);
note = five;
unicode = 0035;
},
{
glyphname = six;
lastChange = "2021-05-06 10:42:46 +0000";
layers = (
{
layerId = "23C1765D-E8A9-427D-A2B9-D2B95394C525";
paths = (
{
closed = 1;
nodes = (
"266 -16 OFFCURVE",
"344 11 OFFCURVE",
"393 60 CURVE SMOOTH",
"435 104 OFFCURVE",
"467 168 OFFCURVE",
"467 225 CURVE SMOOTH",
"467 260 OFFCURVE",
"455 292 OFFCURVE",
"425 314 CURVE SMOOTH",
"401 332 OFFCURVE",
"371 339 OFFCURVE",
"337 339 CURVE SMOOTH",
"259 339 OFFCURVE",
"168 297 OFFCURVE",
"126 244 CURVE",
"149 344 OFFCURVE",
"240 535 OFFCURVE",
"402 535 CURVE SMOOTH",
"439 535 OFFCURVE",
"473 524 OFFCURVE",
"486 489 CURVE SMOOTH",
"488 482 OFFCURVE",
"490 475 OFFCURVE",
"490 467 CURVE SMOOTH",
"490 461 OFFCURVE",
"489 455 OFFCURVE",
"487 449 CURVE",
"504 448 OFFCURVE",
"518 456 OFFCURVE",
"524 468 CURVE SMOOTH",
"529 477 OFFCURVE",
"531 487 OFFCURVE",
"531 496 CURVE SMOOTH",
"531 516 OFFCURVE",
"519 534 OFFCURVE",
"496 546 CURVE SMOOTH",
"474 557 OFFCURVE",
"448 562 OFFCURVE",
"422 562 CURVE SMOOTH",
"302 562 OFFCURVE",
"208 484 OFFCURVE",
"142 393 CURVE SMOOTH",
"83 312 OFFCURVE",
"41 209 OFFCURVE",
"41 127 CURVE SMOOTH",
"41 91 OFFCURVE",
"49 60 OFFCURVE",
"66 35 CURVE SMOOTH",
"94 -4 OFFCURVE",
"147 -16 OFFCURVE",
"194 -16 CURVE SMOOTH"
);
},
{
closed = 1;
nodes = (
"141 3 OFFCURVE",
"109 59 OFFCURVE",
"109 118 CURVE SMOOTH",
"109 123 OFFCURVE",
"109 129 OFFCURVE",
"110 135 CURVE SMOOTH",
"120 229 OFFCURVE",
"178 287 OFFCURVE",
"267 304 CURVE SMOOTH",
"278 306 OFFCURVE",
"289 308 OFFCURVE",
"300 308 CURVE SMOOTH",
"359 308 OFFCURVE",
"400 269 OFFCURVE",
"400 208 CURVE SMOOTH",
"400 192 OFFCURVE",
"397 175 OFFCURVE",
"392 157 CURVE SMOOTH",
"368 76 OFFCURVE",
"293 3 OFFCURVE",
"207 3 CURVE SMOOTH"
);
}
);
width = 449;
}
);
note = six;
unicode = 0036;
},
{
glyphname = seven;
lastChange = "2021-05-06 10:42:46 +0000";
layers = (
{
layerId = "23C1765D-E8A9-427D-A2B9-D2B95394C525";
paths = (
{
closed = 1;
nodes = (
"67 -8 OFFCURVE",
"103 -1 OFFCURVE",
"128 0 CURVE",
"203 126 OFFCURVE",
"350 381 OFFCURVE",
"451 494 CURVE",
"459 496 OFFCURVE",
"490 510 OFFCURVE",
"500 518 CURVE SMOOTH",
"517 530 OFFCURVE",
"525 544 OFFCURVE",
"525 554 CURVE SMOOTH",
"525 565 OFFCURVE",
"517 572 OFFCURVE",
"504 572 CURVE SMOOTH",
"469 572 OFFCURVE",
"443 530 OFFCURVE",
"428 510 CURVE",
"402 509 OFFCURVE",
"366 519 OFFCURVE",
"337 531 CURVE SMOOTH",
"312 541 OFFCURVE",
"269 558 OFFCURVE",
"219 558 CURVE SMOOTH",
"196 558 OFFCURVE",
"171 555 OFFCURVE",
"146 544 CURVE SMOOTH",
"96 523 OFFCURVE",
"80 481 OFFCURVE",
"55 439 CURVE SMOOTH",
"53 435 OFFCURVE",
"57 433 OFFCURVE",
"63 433 CURVE SMOOTH",
"68 433 OFFCURVE",
"74 435 OFFCURVE",
"77 440 CURVE SMOOTH",
"97 481 OFFCURVE",
"128 502 OFFCURVE",
"172 508 CURVE SMOOTH",
"186 510 OFFCURVE",
"201 511 OFFCURVE",
"215 511 CURVE SMOOTH",
"262 511 OFFCURVE",
"304 502 OFFCURVE",
"325 499 CURVE SMOOTH",
"353 495 OFFCURVE",
"384 490 OFFCURVE",
"416 492 CURVE",
"69 27 LINE SMOOTH",
"60 14 OFFCURVE",
"55 4 OFFCURVE",
"55 -2 CURVE SMOOTH",
"55 -8 OFFCURVE",
"59 -10 OFFCURVE",
"67 -8 CURVE"
);
}
);
width = 375;
}
);
note = seven;
unicode = 0037;
},
{
glyphname = eight;
lastChange = "2021-05-06 10:42:46 +0000";
layers = (
{
layerId = "23C1765D-E8A9-427D-A2B9-D2B95394C525";
paths = (
{
closed = 1;
nodes = (
"343 -12 OFFCURVE",
"462 64 OFFCURVE",
"489 158 CURVE SMOOTH",
"493 171 OFFCURVE",
"495 184 OFFCURVE",
"495 197 CURVE SMOOTH",
"495 250 OFFCURVE",
"460 293 OFFCURVE",
"405 314 CURVE",
"467 334 OFFCURVE",
"520 381 OFFCURVE",
"536 435 CURVE SMOOTH",
"539 446 OFFCURVE",
"540 456 OFFCURVE",
"540 466 CURVE SMOOTH",
"540 524 OFFCURVE",
"490 566 OFFCURVE",
"416 566 CURVE SMOOTH",
"329 565 OFFCURVE",
"241 507 OFFCURVE",
"219 433 CURVE SMOOTH",
"216 422 OFFCURVE",
"215 412 OFFCURVE",
"215 402 CURVE SMOOTH",
"215 366 OFFCURVE",
"234 335 OFFCURVE",
"268 318 CURVE",
"176 297 OFFCURVE",
"94 232 OFFCURVE",
"72 156 CURVE SMOOTH",
"68 142 OFFCURVE",
"66 129 OFFCURVE",
"66 117 CURVE SMOOTH",
"66 42 OFFCURVE",
"132 -12 OFFCURVE",
"229 -12 CURVE SMOOTH"
);
},
{
closed = 1;
nodes = (
"174 6 OFFCURVE",
"131 53 OFFCURVE",
"131 115 CURVE SMOOTH",
"131 127 OFFCURVE",
"133 139 OFFCURVE",
"136 152 CURVE SMOOTH",
"156 234 OFFCURVE",
"238 300 OFFCURVE",
"319 300 CURVE SMOOTH",
"385 300 OFFCURVE",
"429 253 OFFCURVE",
"429 191 CURVE SMOOTH",
"429 179 OFFCURVE",
"427 167 OFFCURVE",
"424 154 CURVE SMOOTH",
"404 72 OFFCURVE",
"322 6 OFFCURVE",
"240 6 CURVE SMOOTH"
);
},
{
closed = 1;
nodes = (
"304 323 OFFCURVE",
"273 358 OFFCURVE",
"273 406 CURVE SMOOTH",
"273 480 OFFCURVE",
"339 547 OFFCURVE",
"403 547 CURVE SMOOTH",
"450 547 OFFCURVE",
"482 512 OFFCURVE",
"482 464 CURVE SMOOTH",
"482 391 OFFCURVE",
"416 323 OFFCURVE",
"351 323 CURVE SMOOTH"
);
}
);
width = 492;
}
);
note = eight;
unicode = 0038;
},
{
glyphname = nine;
lastChange = "2021-05-06 10:42:46 +0000";
layers = (
{
layerId = "23C1765D-E8A9-427D-A2B9-D2B95394C525";
paths = (
{
closed = 1;
nodes = (
"269 -15 OFFCURVE",
"362 62 OFFCURVE",
"428 154 CURVE SMOOTH",
"487 235 OFFCURVE",
"529 337 OFFCURVE",
"529 420 CURVE SMOOTH",
"529 455 OFFCURVE",
"521 487 OFFCURVE",
"504 512 CURVE SMOOTH",
"476 551 OFFCURVE",
"423 563 OFFCURVE",
"376 563 CURVE SMOOTH",
"304 563 OFFCURVE",
"227 534 OFFCURVE",
"178 485 CURVE SMOOTH",
"135 442 OFFCURVE",
"103 378 OFFCURVE",
"103 321 CURVE SMOOTH",
"103 286 OFFCURVE",
"115 254 OFFCURVE",
"145 232 CURVE SMOOTH",
"169 214 OFFCURVE",
"199 207 OFFCURVE",
"232 207 CURVE SMOOTH",
"310 207 OFFCURVE",
"401 249 OFFCURVE",
"444 303 CURVE",
"421 201 OFFCURVE",
"330 10 OFFCURVE",
"167 10 CURVE SMOOTH",
"131 10 OFFCURVE",
"96 22 OFFCURVE",
"83 58 CURVE SMOOTH",
"81 64 OFFCURVE",
"80 71 OFFCURVE",
"80 78 CURVE SMOOTH",
"80 84 OFFCURVE",
"81 90 OFFCURVE",
"83 98 CURVE",
"65 99 OFFCURVE",
"53 91 OFFCURVE",
"46 78 CURVE SMOOTH",
"42 69 OFFCURVE",
"39 60 OFFCURVE",
"39 52 CURVE SMOOTH",
"39 31 OFFCURVE",
"52 13 OFFCURVE",
"75 1 CURVE SMOOTH",
"97 -11 OFFCURVE",
"123 -15 OFFCURVE",
"150 -15 CURVE SMOOTH"
);
},
{
closed = 1;
nodes = (
"291 239 OFFCURVE",
"281 238 OFFCURVE",
"271 238 CURVE SMOOTH",
"210 238 OFFCURVE",
"169 276 OFFCURVE",
"169 338 CURVE SMOOTH",
"169 353 OFFCURVE",
"172 370 OFFCURVE",
"177 388 CURVE SMOOTH",
"202 471 OFFCURVE",
"275 543 OFFCURVE",
"361 543 CURVE SMOOTH",
"426 543 OFFCURVE",
"458 488 OFFCURVE",
"458 429 CURVE SMOOTH",
"458 423 OFFCURVE",
"458 417 OFFCURVE",
"457 411 CURVE SMOOTH",
"447 317 OFFCURVE",
"390 258 OFFCURVE",
"301 241 CURVE SMOOTH"
);
}
);
width = 482;
}
);
note = nine;
unicode = 0039;
},
{
glyphname = colon;
lastChange = "2021-05-06 10:42:46 +0000";
layers = (
{
layerId = "23C1765D-E8A9-427D-A2B9-D2B95394C525";
paths = (
{
closed = 1;
nodes = (
"126 -5 OFFCURVE",
"144 10 OFFCURVE",
"144 30 CURVE SMOOTH",
"144 43 OFFCURVE",
"134 55 OFFCURVE",
"120 55 CURVE SMOOTH",
"101 55 OFFCURVE",
"83 40 OFFCURVE",
"83 20 CURVE SMOOTH",
"83 7 OFFCURVE",
"93 -5 OFFCURVE",
"107 -5 CURVE SMOOTH"
);
},
{
closed = 1;
nodes = (
"203 183 OFFCURVE",
"219 199 OFFCURVE",
"219 218 CURVE SMOOTH",
"219 232 OFFCURVE",
"208 242 OFFCURVE",
"194 242 CURVE SMOOTH",
"175 241 OFFCURVE",
"159 225 OFFCURVE",
"159 207 CURVE SMOOTH",
"159 192 OFFCURVE",
"170 182 OFFCURVE",
"184 182 CURVE SMOOTH"
);
}
);
width = 140;
}
);
note = colon;
unicode = 003A;
},
{
glyphname = semicolon;
lastChange = "2021-05-06 10:42:46 +0000";
layers = (
{
layerId = "23C1765D-E8A9-427D-A2B9-D2B95394C525";
paths = (
{
closed = 1;
nodes = (
"93 -74 OFFCURVE",
"139 7 OFFCURVE",
"139 36 CURVE SMOOTH",
"139 55 OFFCURVE",
"128 65 OFFCURVE",
"112 65 CURVE SMOOTH",
"94 65 OFFCURVE",
"76 48 OFFCURVE",
"76 29 CURVE SMOOTH",
"76 14 OFFCURVE",
"87 3 OFFCURVE",
"103 3 CURVE SMOOTH",
"108 3 LINE",
"95 -19 OFFCURVE",
"66 -61 OFFCURVE",
"23 -70 CURVE",
"16 -70 OFFCURVE",
"13 -73 OFFCURVE",
"13 -76 CURVE SMOOTH",
"13 -80 OFFCURVE",
"17 -85 OFFCURVE",
"25 -85 CURVE"
);
},
{
closed = 1;
nodes = (
"203 183 OFFCURVE",
"219 199 OFFCURVE",
"219 218 CURVE SMOOTH",
"219 232 OFFCURVE",
"208 242 OFFCURVE",
"194 242 CURVE SMOOTH",
"175 241 OFFCURVE",
"159 225 OFFCURVE",
"159 207 CURVE SMOOTH",
"159 192 OFFCURVE",
"170 182 OFFCURVE",
"184 182 CURVE SMOOTH"
);
}
);
width = 145;
}
);
note = semicolon;
unicode = 003B;
},
{
glyphname = less;
lastChange = "2021-05-06 10:42:46 +0000";
layers = (
{
layerId = "23C1765D-E8A9-427D-A2B9-D2B95394C525";
paths = (
{
closed = 1;
nodes = (
"270 42 OFFCURVE",
"279 51 OFFCURVE",
"279 58 CURVE SMOOTH",
"279 60 OFFCURVE",
"278 62 OFFCURVE",
"276 64 CURVE SMOOTH",
"96 207 LINE",
"276 407 LINE SMOOTH",
"283 414 OFFCURVE",
"276 427 OFFCURVE",
"268 427 CURVE SMOOTH",
"267 427 OFFCURVE",
"265 426 OFFCURVE",
"264 425 CURVE SMOOTH",
"66 229 LINE SMOOTH",
"55 218 OFFCURVE",
"50 207 OFFCURVE",
"50 198 CURVE SMOOTH",
"50 189 OFFCURVE",
"54 182 OFFCURVE",
"61 177 CURVE SMOOTH",
"263 47 LINE SMOOTH"
);
}
);
width = 423;
}
);
note = less;
unicode = 003C;
},
{
glyphname = equal;
lastChange = "2021-05-06 10:42:41 +0000";
layers = (
{
layerId = "23C1765D-E8A9-427D-A2B9-D2B95394C525";
paths = (
{
closed = 1;
nodes = (
"331 151 LINE",
"331 172 LINE",
"114 172 LINE",
"114 151 LINE"
);
},
{
closed = 1;
nodes = (
"370 241 LINE",
"370 261 LINE",
"152 261 LINE",
"152 241 LINE"
);
}
);
width = 370;
}
);
note = equal;
unicode = 003D;
},
{
glyphname = greater;
lastChange = "2021-05-06 10:42:46 +0000";
layers = (
{
layerId = "23C1765D-E8A9-427D-A2B9-D2B95394C525";
paths = (
{
closed = 1;
nodes = (
"360 243 LINE SMOOTH",
"371 254 OFFCURVE",
"376 265 OFFCURVE",
"376 274 CURVE SMOOTH",
"376 282 OFFCURVE",
"372 289 OFFCURVE",
"365 294 CURVE SMOOTH",
"162 425 LINE SMOOTH",
"156 429 OFFCURVE",
"146 420 OFFCURVE",
"146 413 CURVE SMOOTH",
"146 411 OFFCURVE",
"147 409 OFFCURVE",
"149 408 CURVE SMOOTH",
"330 264 LINE",
"150 64 LINE SMOOTH",
"143 57 OFFCURVE",
"150 45 OFFCURVE",
"156 45 CURVE SMOOTH",
"158 45 OFFCURVE",
"160 46 OFFCURVE",
"161 47 CURVE SMOOTH"
);
}
);
width = 423;
}
);
note = greater;
unicode = 003E;
},
{
glyphname = question;
lastChange = "2021-05-06 10:42:46 +0000";
layers = (
{
layerId = "23C1765D-E8A9-427D-A2B9-D2B95394C525";
paths = (
{
closed = 1;
nodes = (
"182 133 OFFCURVE",
"198 133 OFFCURVE",
"209 149 CURVE",
"205 213 OFFCURVE",
"247 239 OFFCURVE",
"296 274 CURVE SMOOTH",
"375 328 OFFCURVE",
"512 370 OFFCURVE",
"512 477 CURVE SMOOTH",
"512 552 OFFCURVE",
"444 580 OFFCURVE",
"364 580 CURVE SMOOTH",
"284 580 OFFCURVE",
"174 545 OFFCURVE",
"174 452 CURVE SMOOTH",
"174 430 OFFCURVE",
"182 411 OFFCURVE",
"200 404 CURVE SMOOTH",
"204 402 OFFCURVE",
"212 403 OFFCURVE",
"212 406 CURVE SMOOTH",
"212 406 OFFCURVE",
"211 406 OFFCURVE",
"211 407 CURVE",
"207 415 OFFCURVE",
"206 427 OFFCURVE",
"206 439 CURVE SMOOTH",
"206 520 OFFCURVE",
"271 569 OFFCURVE",
"362 569 CURVE SMOOTH",
"419 569 OFFCURVE",
"455 536 OFFCURVE",
"455 482 CURVE SMOOTH",
"455 364 OFFCURVE",
"276 290 OFFCURVE",
"192 206 CURVE SMOOTH",
"176 190 OFFCURVE",
"166 172 OFFCURVE",
"166 157 CURVE SMOOTH",
"166 149 OFFCURVE",
"169 141 OFFCURVE",
"177 136 CURVE SMOOTH"
);
},
{
closed = 1;
nodes = (
"161 -5 OFFCURVE",
"178 10 OFFCURVE",
"178 30 CURVE SMOOTH",
"178 43 OFFCURVE",
"169 55 OFFCURVE",
"155 55 CURVE SMOOTH",
"136 55 OFFCURVE",
"118 40 OFFCURVE",
"118 20 CURVE SMOOTH",
"118 7 OFFCURVE",
"127 -5 OFFCURVE",
"142 -5 CURVE SMOOTH"
);
}
);
width = 371;
}
);
note = question;
unicode = 003F;
},
{
glyphname = at;
lastChange = "2021-05-06 10:42:46 +0000";
layers = (
{
layerId = "23C1765D-E8A9-427D-A2B9-D2B95394C525";
paths = (
{
closed = 1;
nodes = (
"622 -61 OFFCURVE",
"789 46 OFFCURVE",
"878 241 CURVE SMOOTH",
"882 248 OFFCURVE",
"871 255 OFFCURVE",
"859 255 CURVE SMOOTH",
"852 255 OFFCURVE",
"845 252 OFFCURVE",
"842 245 CURVE SMOOTH",
"767 78 OFFCURVE",
"615 -39 OFFCURVE",
"429 -39 CURVE SMOOTH",
"285 -39 OFFCURVE",
"164 46 OFFCURVE",
"164 204 CURVE SMOOTH",
"164 301 OFFCURVE",
"211 403 OFFCURVE",
"272 467 CURVE SMOOTH",
"357 555 OFFCURVE",
"479 603 OFFCURVE",
"584 603 CURVE SMOOTH",
"741 603 OFFCURVE",
"804 515 OFFCURVE",
"804 415 CURVE SMOOTH",
"804 318 OFFCURVE",
"747 210 OFFCURVE",
"660 156 CURVE SMOOTH",
"639 143 OFFCURVE",
"600 125 OFFCURVE",
"574 125 CURVE SMOOTH",
"557 125 OFFCURVE",
"545 132 OFFCURVE",
"547 153 CURVE SMOOTH",
"550 192 OFFCURVE",
"564 244 OFFCURVE",
"578 273 CURVE SMOOTH",
"599 314 OFFCURVE",
"633 375 OFFCURVE",
"663 411 CURVE",
"641 406 LINE SMOOTH",
"587 394 OFFCURVE",
"571 361 OFFCURVE",
"541 317 CURVE SMOOTH",
"515 278 OFFCURVE",
"438 146 OFFCURVE",
"383 146 CURVE SMOOTH",
"367 146 OFFCURVE",
"361 163 OFFCURVE",
"361 184 CURVE SMOOTH",
"361 196 OFFCURVE",
"363 210 OFFCURVE",
"366 221 CURVE SMOOTH",
"378 264 OFFCURVE",
"412 325 OFFCURVE",
"460 375 CURVE SMOOTH",
"494 411 OFFCURVE",
"536 436 OFFCURVE",
"580 436 CURVE SMOOTH",
"598 436 OFFCURVE",
"616 432 OFFCURVE",
"633 423 CURVE",
"642 428 LINE",
"621 444 OFFCURVE",
"592 451 OFFCURVE",
"562 451 CURVE SMOOTH",
"518 451 OFFCURVE",
"471 437 OFFCURVE",
"443 417 CURVE SMOOTH",
"377 371 OFFCURVE",
"334 309 OFFCURVE",
"314 235 CURVE SMOOTH",
"310 219 OFFCURVE",
"308 205 OFFCURVE",
"308 191 CURVE SMOOTH",
"308 147 OFFCURVE",
"328 116 OFFCURVE",
"362 116 CURVE SMOOTH",
"379 116 OFFCURVE",
"399 124 OFFCURVE",
"422 141 CURVE SMOOTH",
"450 163 OFFCURVE",
"477 196 OFFCURVE",
"496 224 CURVE",
"496 215 LINE",
"492 196 OFFCURVE",
"490 180 OFFCURVE",
"490 166 CURVE SMOOTH",
"490 115 OFFCURVE",
"516 96 OFFCURVE",
"552 96 CURVE SMOOTH",
"589 96 OFFCURVE",
"639 118 OFFCURVE",
"684 147 CURVE SMOOTH",
"791 218 OFFCURVE",
"851 324 OFFCURVE",
"851 417 CURVE SMOOTH",
"851 527 OFFCURVE",
"769 619 OFFCURVE",
"586 619 CURVE SMOOTH",
"473 619 OFFCURVE",
"344 577 OFFCURVE",
"250 496 CURVE SMOOTH",
"167 425 OFFCURVE",
"110 312 OFFCURVE",
"110 202 CURVE SMOOTH",
"110 37 OFFCURVE",
"235 -61 OFFCURVE",
"409 -61 CURVE SMOOTH"
);
}
);
width = 826;
}
);
note = at;
unicode = 0040;
},
{
glyphname = A;
lastChange = "2021-05-06 10:44:18 +0000";
layers = (
{
anchors = (
{
name = bottom;
position = "{422, 0}";
},
{
name = ogonek;
position = "{715, -39}";
},
{
name = top;
position = "{928, 707}";
}
);
layerId = "23C1765D-E8A9-427D-A2B9-D2B95394C525";
paths = (
{
closed = 1;
nodes = (
"240 -60 OFFCURVE",
"385 96 OFFCURVE",
"462 207 CURVE SMOOTH",
"483 237 OFFCURVE",
"503 269 OFFCURVE",
"524 299 CURVE",
"678 299 LINE",
"648 231 OFFCURVE",
"615 149 OFFCURVE",
"615 72 CURVE SMOOTH",
"615 57 OFFCURVE",
"616 41 OFFCURVE",
"619 26 CURVE SMOOTH",
"630 -26 OFFCURVE",
"661 -46 OFFCURVE",
"700 -46 CURVE SMOOTH",
"708 -46 OFFCURVE",
"715 -45 OFFCURVE",
"723 -44 CURVE SMOOTH",
"753 -39 OFFCURVE",
"782 -16 OFFCURVE",
"807 14 CURVE SMOOTH",
"842 56 OFFCURVE",
"871 112 OFFCURVE",
"890 146 CURVE SMOOTH",
"892 150 OFFCURVE",
"893 154 OFFCURVE",
"893 156 CURVE SMOOTH",
"893 161 OFFCURVE",
"891 163 OFFCURVE",
"889 163 CURVE SMOOTH",
"887 163 OFFCURVE",
"884 160 OFFCURVE",
"881 155 CURVE SMOOTH",
"867 129 OFFCURVE",
"839 76 OFFCURVE",
"807 35 CURVE SMOOTH",
"784 6 OFFCURVE",
"760 -18 OFFCURVE",
"738 -22 CURVE SMOOTH",
"734 -23 OFFCURVE",
"730 -23 OFFCURVE",
"726 -23 CURVE SMOOTH",
"693 -23 OFFCURVE",
"678 5 OFFCURVE",
"678 53 CURVE SMOOTH",
"678 131 OFFCURVE",
"713 246 OFFCURVE",
"731 299 CURVE",
"769 299 LINE SMOOTH",
"777 299 OFFCURVE",
"790 314 OFFCURVE",
"790 319 CURVE SMOOTH",
"790 320 OFFCURVE",
"789 321 OFFCURVE",
"788 321 CURVE SMOOTH",
"739 321 LINE",
"776 427 OFFCURVE",
"820 534 OFFCURVE",
"882 627 CURVE",
"886 631 OFFCURVE",
"884 638 OFFCURVE",
"879 638 CURVE SMOOTH",
"877 638 OFFCURVE",
"875 637 OFFCURVE",
"873 633 CURVE SMOOTH",
"832 566 OFFCURVE",
"775 482 OFFCURVE",
"726 393 CURVE SMOOTH",
"712 369 OFFCURVE",
"700 345 OFFCURVE",
"688 321 CURVE",
"541 321 LINE",
"633 452 OFFCURVE",
"728 575 OFFCURVE",
"818 633 CURVE SMOOTH",
"857 658 OFFCURVE",
"902 673 OFFCURVE",
"936 673 CURVE SMOOTH",
"970 673 OFFCURVE",
"998 660 OFFCURVE",
"1008 635 CURVE SMOOTH",
"1010 630 OFFCURVE",
"1011 624 OFFCURVE",
"1011 619 CURVE SMOOTH",
"1011 608 OFFCURVE",
"1008 598 OFFCURVE",
"1002 590 CURVE SMOOTH",
"998 584 OFFCURVE",
"999 581 OFFCURVE",
"1003 581 CURVE SMOOTH",
"1005 581 OFFCURVE",
"1008 582 OFFCURVE",
"1011 585 CURVE SMOOTH",
"1017 592 OFFCURVE",
"1021 601 OFFCURVE",
"1023 611 CURVE SMOOTH",
"1024 617 OFFCURVE",
"1025 622 OFFCURVE",
"1025 628 CURVE SMOOTH",
"1025 649 OFFCURVE",
"1017 670 OFFCURVE",
"1000 684 CURVE SMOOTH",
"981 700 OFFCURVE",
"950 705 OFFCURVE",
"913 703 CURVE SMOOTH",
"844 699 OFFCURVE",
"751 646 OFFCURVE",
"673 563 CURVE SMOOTH",
"609 494 OFFCURVE",
"546 408 OFFCURVE",
"487 321 CURVE",
"242 321 LINE SMOOTH",
"235 321 OFFCURVE",
"222 307 OFFCURVE",
"222 301 CURVE SMOOTH",
"222 300 OFFCURVE",
"222 299 OFFCURVE",
"224 299 CURVE SMOOTH",
"473 299 LINE",
"455 273 OFFCURVE",
"438 246 OFFCURVE",
"422 220 CURVE SMOOTH",
"377 150 OFFCURVE",
"328 79 OFFCURVE",
"269 27 CURVE SMOOTH",
"224 -12 OFFCURVE",
"161 -36 OFFCURVE",
"107 -36 CURVE SMOOTH",
"50 -36 OFFCURVE",
"2 -9 OFFCURVE",
"-2 56 CURVE SMOOTH",
"-2 64 OFFCURVE",
"-8 60 OFFCURVE",
"-13 55 CURVE SMOOTH",
"-24 41 OFFCURVE",
"-30 23 OFFCURVE",
"-30 6 CURVE SMOOTH",
"-30 -1 OFFCURVE",
"-29 -8 OFFCURVE",
"-27 -14 CURVE SMOOTH",
"-14 -59 OFFCURVE",
"33 -72 OFFCURVE",
"79 -72 CURVE SMOOTH",
"85 -72 OFFCURVE",
"92 -72 OFFCURVE",
"98 -71 CURVE SMOOTH"
);
}
);
width = 807;
}
);
note = A;
unicode = 0041;
},
{
glyphname = B;
lastChange = "2021-05-06 10:42:46 +0000";
layers = (
{
layerId = "23C1765D-E8A9-427D-A2B9-D2B95394C525";
paths = (
{
closed = 1;
nodes = (
"5 -91 OFFCURVE",
"21 -89 OFFCURVE",
"37 -85 CURVE SMOOTH",
"79 -75 OFFCURVE",
"119 -53 OFFCURVE",
"154 -22 CURVE",
"162 -27 OFFCURVE",
"172 -31 OFFCURVE",
"180 -34 CURVE SMOOTH",
"228 -52 OFFCURVE",
"281 -59 OFFCURVE",
"333 -59 CURVE SMOOTH",
"384 -59 OFFCURVE",
"433 -52 OFFCURVE",
"476 -40 CURVE SMOOTH",
"613 -1 OFFCURVE",
"686 103 OFFCURVE",
"686 197 CURVE SMOOTH",
"686 257 OFFCURVE",
"655 313 OFFCURVE",
"593 344 CURVE",
"615 357 OFFCURVE",
"633 371 OFFCURVE",
"649 388 CURVE SMOOTH",
"689 428 OFFCURVE",
"719 485 OFFCURVE",
"719 539 CURVE SMOOTH",
"719 553 OFFCURVE",
"717 567 OFFCURVE",
"713 580 CURVE SMOOTH",
"679 685 OFFCURVE",
"513 706 OFFCURVE",
"422 706 CURVE SMOOTH",
"278 705 OFFCURVE",
"116 659 OFFCURVE",
"51 561 CURVE SMOOTH",
"31 530 OFFCURVE",
"19 496 OFFCURVE",
"19 455 CURVE SMOOTH",
"19 374 OFFCURVE",
"83 334 OFFCURVE",
"151 334 CURVE SMOOTH",
"170 334 OFFCURVE",
"189 337 OFFCURVE",
"207 343 CURVE SMOOTH",
"210 344 OFFCURVE",
"212 347 OFFCURVE",
"212 349 CURVE SMOOTH",
"212 351 OFFCURVE",
"211 352 OFFCURVE",
"209 352 CURVE SMOOTH",
"209 352 OFFCURVE",
"208 352 OFFCURVE",
"207 352 CURVE",
"188 346 OFFCURVE",
"169 342 OFFCURVE",
"152 342 CURVE SMOOTH",
"107 342 OFFCURVE",
"69 363 OFFCURVE",
"56 401 CURVE SMOOTH",
"52 412 OFFCURVE",
"50 424 OFFCURVE",
"50 436 CURVE SMOOTH",
"50 494 OFFCURVE",
"89 557 OFFCURVE",
"125 592 CURVE SMOOTH",
"190 655 OFFCURVE",
"306 693 OFFCURVE",
"419 693 CURVE SMOOTH",
"511 693 OFFCURVE",
"664 675 OFFCURVE",
"664 547 CURVE SMOOTH",
"664 483 OFFCURVE",
"624 407 OFFCURVE",
"564 360 CURVE",
"537 370 OFFCURVE",
"495 380 OFFCURVE",
"456 380 CURVE SMOOTH",
"431 380 OFFCURVE",
"406 376 OFFCURVE",
"389 365 CURVE",
"462 499 OFFCURVE",
"539 594 OFFCURVE",
"600 594 CURVE SMOOTH",
"605 594 OFFCURVE",
"610 593 OFFCURVE",
"615 592 CURVE SMOOTH",
"620 590 OFFCURVE",
"624 598 OFFCURVE",
"619 600 CURVE",
"611 602 OFFCURVE",
"603 603 OFFCURVE",
"594 603 CURVE SMOOTH",
"511 603 OFFCURVE",
"413 497 OFFCURVE",
"309 315 CURVE SMOOTH",
"267 241 OFFCURVE",
"208 100 OFFCURVE",
"136 10 CURVE",
"98 40 OFFCURVE",
"70 84 OFFCURVE",
"70 137 CURVE SMOOTH",
"70 150 OFFCURVE",
"72 164 OFFCURVE",
"76 178 CURVE SMOOTH",
"82 202 OFFCURVE",
"92 225 OFFCURVE",
"110 240 CURVE SMOOTH",
"125 254 OFFCURVE",
"143 260 OFFCURVE",
"158 260 CURVE SMOOTH",
"170 260 OFFCURVE",
"180 256 OFFCURVE",
"185 247 CURVE",
"188 244 OFFCURVE",
"195 251 OFFCURVE",
"195 256 CURVE SMOOTH",
"195 256 OFFCURVE",
"195 257 OFFCURVE",
"195 257 CURVE",
"187 269 OFFCURVE",
"164 279 OFFCURVE",
"139 279 CURVE SMOOTH",
"121 279 OFFCURVE",
"103 274 OFFCURVE",
"87 263 CURVE SMOOTH",
"59 244 OFFCURVE",
"39 213 OFFCURVE",
"32 179 CURVE SMOOTH",
"30 169 OFFCURVE",
"29 158 OFFCURVE",
"29 149 CURVE SMOOTH",
"29 84 OFFCURVE",
"74 30 OFFCURVE",
"123 -4 CURVE",
"88 -44 OFFCURVE",
"43 -74 OFFCURVE",
"-9 -74 CURVE SMOOTH",
"-20 -74 OFFCURVE",
"-31 -73 OFFCURVE",
"-43 -70 CURVE SMOOTH",
"-62 -65 OFFCURVE",
"-87 -44 OFFCURVE",
"-82 -24 CURVE SMOOTH",
"-81 -17 OFFCURVE",
"-88 -18 OFFCURVE",
"-93 -24 CURVE SMOOTH",
"-97 -29 OFFCURVE",
"-99 -36 OFFCURVE",
"-99 -43 CURVE SMOOTH",
"-99 -87 OFFCURVE",
"-33 -91 OFFCURVE",
"-11 -91 CURVE SMOOTH"
);
},
{
closed = 1;
nodes = (
"436 -35 OFFCURVE",
"387 -44 OFFCURVE",
"335 -44 CURVE SMOOTH",
"286 -44 OFFCURVE",
"235 -36 OFFCURVE",
"191 -20 CURVE SMOOTH",
"183 -17 OFFCURVE",
"175 -14 OFFCURVE",
"167 -9 CURVE",
"232 53 OFFCURVE",
"280 140 OFFCURVE",
"315 212 CURVE SMOOTH",
"332 248 OFFCURVE",
"348 285 OFFCURVE",
"365 318 CURVE",
"372 307 OFFCURVE",
"388 295 OFFCURVE",
"426 295 CURVE SMOOTH",
"476 295 OFFCURVE",
"527 310 OFFCURVE",
"568 330 CURVE",
"608 301 OFFCURVE",
"627 255 OFFCURVE",
"627 204 CURVE SMOOTH",
"627 119 OFFCURVE",
"572 22 OFFCURVE",
"471 -21 CURVE SMOOTH"
);
},
{
closed = 1;
nodes = (
"399 306 OFFCURVE",
"386 317 OFFCURVE",
"386 330 CURVE SMOOTH",
"386 347 OFFCURVE",
"410 367 OFFCURVE",
"449 367 CURVE SMOOTH",
"490 367 OFFCURVE",
"521 362 OFFCURVE",
"547 346 CURVE",
"512 321 OFFCURVE",
"472 306 OFFCURVE",
"430 306 CURVE SMOOTH"
);
}
);
width = 672;
}
);
note = B;
unicode = 0042;
},
{
glyphname = C;
lastChange = "2021-05-06 10:45:09 +0000";
layers = (
{
anchors = (
{
name = bottom;
position = "{341, -50}";
},
{
name = top;
position = "{659, 695}";
}
);
layerId = "23C1765D-E8A9-427D-A2B9-D2B95394C525";
paths = (
{
closed = 1;
nodes = (
"318 181 OFFCURVE",
"439 287 OFFCURVE",
"597 302 CURVE SMOOTH",
"675 309 OFFCURVE",
"708 271 OFFCURVE",
"703 217 CURVE SMOOTH",
"691 69 OFFCURVE",
"505 -45 OFFCURVE",
"349 -45 CURVE SMOOTH",
"235 -45 OFFCURVE",
"138 16 OFFCURVE",
"138 171 CURVE SMOOTH",
"138 183 OFFCURVE",
"139 195 OFFCURVE",
"140 208 CURVE SMOOTH",
"159 419 OFFCURVE",
"361 681 OFFCURVE",
"651 681 CURVE SMOOTH",
"727 681 OFFCURVE",
"757 652 OFFCURVE",
"757 619 CURVE SMOOTH",
"757 590 OFFCURVE",
"735 558 OFFCURVE",
"702 538 CURVE SMOOTH",
"642 502 OFFCURVE",
"553 474 OFFCURVE",
"465 465 CURVE SMOOTH",
"460 464 OFFCURVE",
"458 461 OFFCURVE",
"458 459 CURVE SMOOTH",
"458 457 OFFCURVE",
"459 456 OFFCURVE",
"461 456 CURVE SMOOTH",
"461 456 OFFCURVE",
"462 456 OFFCURVE",
"462 456 CURVE SMOOTH",
"520 461 OFFCURVE",
"634 473 OFFCURVE",
"714 517 CURVE SMOOTH",
"762 544 OFFCURVE",
"788 582 OFFCURVE",
"788 615 CURVE SMOOTH",
"788 658 OFFCURVE",
"747 695 OFFCURVE",
"659 695 CURVE SMOOTH",
"327 695 OFFCURVE",
"89 430 OFFCURVE",
"70 215 CURVE SMOOTH",
"69 204 OFFCURVE",
"69 193 OFFCURVE",
"69 183 CURVE SMOOTH",
"69 13 OFFCURVE",
"195 -56 OFFCURVE",
"339 -56 CURVE SMOOTH",
"520 -56 OFFCURVE",
"728 54 OFFCURVE",
"742 215 CURVE SMOOTH",
"747 272 OFFCURVE",
"710 315 OFFCURVE",
"623 315 CURVE SMOOTH",
"614 315 OFFCURVE",
"606 315 OFFCURVE",
"597 314 CURVE SMOOTH",
"433 299 OFFCURVE",
"309 189 OFFCURVE",
"264 103 CURVE SMOOTH",
"262 98 OFFCURVE",
"266 95 OFFCURVE",
"270 95 CURVE SMOOTH",
"272 95 OFFCURVE",
"274 96 OFFCURVE",
"275 98 CURVE SMOOTH"
);
}
);
width = 692;
}
);
note = C;
unicode = 0043;
},
{
glyphname = D;
lastChange = "2021-05-06 10:45:33 +0000";
layers = (
{
anchors = (
{
name = bottom;
position = "{406, -32}";
},
{
name = center;
position = "{444, 375}";
},
{
name = top;
position = "{637, 704}";
}
);
layerId = "23C1765D-E8A9-427D-A2B9-D2B95394C525";
paths = (
{
closed = 1;
nodes = (
"118 -91 OFFCURVE",
"151 -82 OFFCURVE",
"182 -67 CURVE SMOOTH",
"211 -52 OFFCURVE",
"237 -31 OFFCURVE",
"261 -9 CURVE",
"281 -18 OFFCURVE",
"302 -24 OFFCURVE",
"319 -28 CURVE SMOOTH",
"361 -38 OFFCURVE",
"406 -42 OFFCURVE",
"451 -42 CURVE SMOOTH",
"529 -42 OFFCURVE",
"609 -28 OFFCURVE",
"674 2 CURVE SMOOTH",
"832 73 OFFCURVE",
"939 236 OFFCURVE",
"939 388 CURVE SMOOTH",
"939 497 OFFCURVE",
"883 601 OFFCURVE",
"750 658 CURVE SMOOTH",
"677 689 OFFCURVE",
"593 704 OFFCURVE",
"512 704 CURVE SMOOTH",
"367 704 OFFCURVE",
"205 655 OFFCURVE",
"139 557 CURVE SMOOTH",
"118 525 OFFCURVE",
"105 489 OFFCURVE",
"105 448 CURVE SMOOTH",
"105 369 OFFCURVE",
"169 336 OFFCURVE",
"234 336 CURVE SMOOTH",
"254 336 OFFCURVE",
"275 340 OFFCURVE",
"294 346 CURVE SMOOTH",
"297 347 OFFCURVE",
"300 351 OFFCURVE",
"300 353 CURVE SMOOTH",
"300 354 OFFCURVE",
"299 355 OFFCURVE",
"298 355 CURVE SMOOTH",
"297 355 OFFCURVE",
"296 354 OFFCURVE",
"295 354 CURVE SMOOTH",
"277 348 OFFCURVE",
"260 345 OFFCURVE",
"243 345 CURVE SMOOTH",
"199 345 OFFCURVE",
"162 365 OFFCURVE",
"150 402 CURVE SMOOTH",
"146 414 OFFCURVE",
"145 426 OFFCURVE",
"145 438 CURVE SMOOTH",
"145 493 OFFCURVE",
"177 554 OFFCURVE",
"212 588 CURVE SMOOTH",
"278 651 OFFCURVE",
"392 690 OFFCURVE",
"506 690 CURVE SMOOTH",
"586 690 OFFCURVE",
"669 675 OFFCURVE",
"734 642 CURVE SMOOTH",
"839 589 OFFCURVE",
"881 499 OFFCURVE",
"881 403 CURVE SMOOTH",
"881 258 OFFCURVE",
"785 98 OFFCURVE",
"658 31 CURVE SMOOTH",
"595 -2 OFFCURVE",
"509 -23 OFFCURVE",
"423 -23 CURVE SMOOTH",
"392 -23 OFFCURVE",
"361 -20 OFFCURVE",
"331 -14 CURVE SMOOTH",
"313 -10 OFFCURVE",
"292 -5 OFFCURVE",
"273 3 CURVE",
"289 20 OFFCURVE",
"304 39 OFFCURVE",
"318 59 CURVE SMOOTH",
"421 205 OFFCURVE",
"458 388 OFFCURVE",
"576 526 CURVE SMOOTH",
"614 571 OFFCURVE",
"652 593 OFFCURVE",
"685 593 CURVE SMOOTH",
"691 593 OFFCURVE",
"697 593 OFFCURVE",
"703 591 CURVE SMOOTH",
"708 589 OFFCURVE",
"711 598 OFFCURVE",
"706 599 CURVE SMOOTH",
"696 602 OFFCURVE",
"687 603 OFFCURVE",
"677 603 CURVE SMOOTH",
"658 603 OFFCURVE",
"637 597 OFFCURVE",
"616 586 CURVE SMOOTH",
"452 502 OFFCURVE",
"366 214 OFFCURVE",
"266 61 CURVE SMOOTH",
"257 48 OFFCURVE",
"248 34 OFFCURVE",
"238 21 CURVE",
"200 46 OFFCURVE",
"171 80 OFFCURVE",
"171 125 CURVE SMOOTH",
"171 137 OFFCURVE",
"173 150 OFFCURVE",
"177 163 CURVE SMOOTH",
"181 177 OFFCURVE",
"190 190 OFFCURVE",
"203 200 CURVE SMOOTH",
"217 210 OFFCURVE",
"233 215 OFFCURVE",
"246 215 CURVE SMOOTH",
"257 215 OFFCURVE",
"266 212 OFFCURVE",
"271 205 CURVE",
"274 202 OFFCURVE",
"280 208 OFFCURVE",
"280 211 CURVE SMOOTH",
"280 211 OFFCURVE",
"280 212 OFFCURVE",
"280 212 CURVE SMOOTH",
"271 222 OFFCURVE",
"249 230 OFFCURVE",
"225 230 CURVE SMOOTH",
"209 230 OFFCURVE",
"193 227 OFFCURVE",
"180 219 CURVE SMOOTH",
"157 205 OFFCURVE",
"143 186 OFFCURVE",
"137 165 CURVE SMOOTH",
"134 155 OFFCURVE",
"133 145 OFFCURVE",
"133 136 CURVE SMOOTH",
"133 83 OFFCURVE",
"177 38 OFFCURVE",
"228 8 CURVE",
"191 -36 OFFCURVE",
"144 -75 OFFCURVE",
"85 -75 CURVE SMOOTH",
"74 -75 OFFCURVE",
"62 -73 OFFCURVE",
"50 -70 CURVE SMOOTH",
"31 -65 OFFCURVE",
"7 -44 OFFCURVE",
"11 -24 CURVE SMOOTH",
"13 -17 OFFCURVE",
"6 -18 OFFCURVE",
"1 -24 CURVE SMOOTH",
"-3 -29 OFFCURVE",
"-5 -37 OFFCURVE",
"-5 -44 CURVE SMOOTH",
"-5 -87 OFFCURVE",
"64 -91 OFFCURVE",
"84 -91 CURVE SMOOTH"
);
}
);
width = 887;
}
);
note = D;
unicode = 0044;
},
{
glyphname = E;
lastChange = "2021-05-06 10:45:54 +0000";
layers = (
{
anchors = (
{
name = bottom;
position = "{234, -48}";
},
{
name = ogonek;
position = "{270, -50}";
},
{
name = top;
position = "{509, 694}";
},
{
name = topleft;
position = "{20, 750}";
}
);
layerId = "23C1765D-E8A9-427D-A2B9-D2B95394C525";
paths = (
{
closed = 1;
nodes = (
"221 -58 OFFCURVE",
"234 -59 OFFCURVE",
"247 -59 CURVE SMOOTH",
"389 -59 OFFCURVE",
"558 15 OFFCURVE",
"618 149 CURVE SMOOTH",
"625 166 OFFCURVE",
"629 181 OFFCURVE",
"629 196 CURVE SMOOTH",
"629 243 OFFCURVE",
"592 276 OFFCURVE",
"539 276 CURVE SMOOTH",
"531 276 OFFCURVE",
"522 275 OFFCURVE",
"513 273 CURVE SMOOTH",
"430 257 OFFCURVE",
"393 186 OFFCURVE",
"386 162 CURVE SMOOTH",
"384 157 OFFCURVE",
"384 152 OFFCURVE",
"384 148 CURVE SMOOTH",
"384 142 OFFCURVE",
"386 138 OFFCURVE",
"388 138 CURVE SMOOTH",
"389 138 OFFCURVE",
"391 140 OFFCURVE",
"393 144 CURVE SMOOTH",
"406 179 OFFCURVE",
"435 245 OFFCURVE",
"518 258 CURVE SMOOTH",
"524 259 OFFCURVE",
"529 259 OFFCURVE",
"534 259 CURVE SMOOTH",
"574 259 OFFCURVE",
"598 236 OFFCURVE",
"598 201 CURVE SMOOTH",
"598 187 OFFCURVE",
"594 172 OFFCURVE",
"587 156 CURVE SMOOTH",
"545 66 OFFCURVE",
"462 11 OFFCURVE",
"380 -15 CURVE SMOOTH",
"346 -26 OFFCURVE",
"307 -32 OFFCURVE",
"270 -32 CURVE SMOOTH",
"172 -32 OFFCURVE",
"80 11 OFFCURVE",
"80 130 CURVE SMOOTH",
"80 199 OFFCURVE",
"115 279 OFFCURVE",
"184 338 CURVE SMOOTH",
"202 353 OFFCURVE",
"220 360 OFFCURVE",
"236 368 CURVE",
"260 345 OFFCURVE",
"286 329 OFFCURVE",
"340 323 CURVE SMOOTH",
"348 322 OFFCURVE",
"356 321 OFFCURVE",
"364 321 CURVE SMOOTH",
"423 321 OFFCURVE",
"456 351 OFFCURVE",
"456 379 CURVE SMOOTH",
"456 401 OFFCURVE",
"434 415 OFFCURVE",
"386 415 CURVE SMOOTH",
"351 415 OFFCURVE",
"312 409 OFFCURVE",
"275 396 CURVE",
"269 411 OFFCURVE",
"266 427 OFFCURVE",
"266 443 CURVE SMOOTH",
"266 499 OFFCURVE",
"298 560 OFFCURVE",
"331 596 CURVE SMOOTH",
"377 644 OFFCURVE",
"453 675 OFFCURVE",
"518 675 CURVE SMOOTH",
"543 675 OFFCURVE",
"572 671 OFFCURVE",
"594 660 CURVE SMOOTH",
"620 648 OFFCURVE",
"631 630 OFFCURVE",
"631 610 CURVE SMOOTH",
"631 588 OFFCURVE",
"616 565 OFFCURVE",
"592 549 CURVE SMOOTH",
"571 535 OFFCURVE",
"544 528 OFFCURVE",
"516 528 CURVE SMOOTH",
"497 528 OFFCURVE",
"477 532 OFFCURVE",
"460 540 CURVE SMOOTH",
"458 541 OFFCURVE",
"453 539 OFFCURVE",
"453 535 CURVE SMOOTH",
"453 533 OFFCURVE",
"454 531 OFFCURVE",
"457 528 CURVE SMOOTH",
"470 518 OFFCURVE",
"490 513 OFFCURVE",
"512 513 CURVE SMOOTH",
"545 513 OFFCURVE",
"583 524 OFFCURVE",
"603 537 CURVE SMOOTH",
"633 557 OFFCURVE",
"651 586 OFFCURVE",
"651 613 CURVE SMOOTH",
"651 638 OFFCURVE",
"636 662 OFFCURVE",
"603 677 CURVE SMOOTH",
"575 690 OFFCURVE",
"541 694 OFFCURVE",
"509 694 CURVE SMOOTH",
"414 694 OFFCURVE",
"311 649 OFFCURVE",
"253 573 CURVE SMOOTH",
"227 538 OFFCURVE",
"211 496 OFFCURVE",
"211 453 CURVE SMOOTH",
"211 428 OFFCURVE",
"217 403 OFFCURVE",
"229 379 CURVE",
"221 377 OFFCURVE",
"198 369 OFFCURVE",
"180 361 CURVE SMOOTH",
"88 319 OFFCURVE",
"31 235 OFFCURVE",
"19 149 CURVE SMOOTH",
"18 141 OFFCURVE",
"17 133 OFFCURVE",
"17 125 CURVE SMOOTH",
"17 40 OFFCURVE",
"75 -43 OFFCURVE",
"209 -57 CURVE SMOOTH"
);
},
{
closed = 1;
nodes = (
"348 340 OFFCURVE",
"300 354 OFFCURVE",
"280 387 CURVE",
"311 396 OFFCURVE",
"345 402 OFFCURVE",
"385 402 CURVE SMOOTH",
"421 402 OFFCURVE",
"438 388 OFFCURVE",
"438 374 CURVE SMOOTH",
"438 363 OFFCURVE",
"429 352 OFFCURVE",
"412 346 CURVE SMOOTH",
"402 342 OFFCURVE",
"391 340 OFFCURVE",
"378 340 CURVE SMOOTH"
);
}
);
width = 594;
}
);
note = E;
unicode = 0045;
},
{
glyphname = F;
lastChange = "2021-05-06 10:42:46 +0000";
layers = (
{
layerId = "23C1765D-E8A9-427D-A2B9-D2B95394C525";
paths = (
{
closed = 1;
nodes = (
"77 -96 OFFCURVE",
"98 -99 OFFCURVE",
"121 -99 CURVE SMOOTH",
"147 -99 OFFCURVE",
"175 -95 OFFCURVE",
"195 -88 CURVE SMOOTH",
"269 -62 OFFCURVE",
"327 -7 OFFCURVE",
"374 59 CURVE SMOOTH",
"416 118 OFFCURVE",
"447 184 OFFCURVE",
"477 250 CURVE",
"494 249 OFFCURVE",
"509 248 OFFCURVE",
"524 248 CURVE SMOOTH",
"550 248 OFFCURVE",
"571 251 OFFCURVE",
"586 257 CURVE",
"580 241 OFFCURVE",
"577 224 OFFCURVE",
"577 208 CURVE SMOOTH",
"577 188 OFFCURVE",
"582 171 OFFCURVE",
"590 161 CURVE SMOOTH",
"594 157 OFFCURVE",
"600 159 OFFCURVE",
"600 163 CURVE SMOOTH",
"600 164 OFFCURVE",
"600 166 OFFCURVE",
"599 167 CURVE SMOOTH",
"594 176 OFFCURVE",
"592 188 OFFCURVE",
"592 202 CURVE SMOOTH",
"592 221 OFFCURVE",
"596 243 OFFCURVE",
"605 262 CURVE",
"618 267 OFFCURVE",
"632 279 OFFCURVE",
"641 291 CURVE SMOOTH",
"647 300 OFFCURVE",
"650 307 OFFCURVE",
"650 313 CURVE SMOOTH",
"650 321 OFFCURVE",
"645 326 OFFCURVE",
"637 326 CURVE SMOOTH",
"628 326 OFFCURVE",
"616 319 OFFCURVE",
"605 304 CURVE",
"598 296 OFFCURVE",
"590 275 OFFCURVE",
"587 266 CURVE",
"572 261 OFFCURVE",
"556 259 OFFCURVE",
"539 259 CURVE SMOOTH",
"521 259 OFFCURVE",
"503 261 OFFCURVE",
"484 264 CURVE",
"524 356 OFFCURVE",
"566 448 OFFCURVE",
"632 526 CURVE SMOOTH",
"655 553 OFFCURVE",
"679 573 OFFCURVE",
"701 583 CURVE",
"713 582 OFFCURVE",
"725 582 OFFCURVE",
"736 582 CURVE SMOOTH",
"749 582 OFFCURVE",
"762 582 OFFCURVE",
"773 584 CURVE SMOOTH",
"800 588 OFFCURVE",
"830 603 OFFCURVE",
"840 630 CURVE SMOOTH",
"842 634 OFFCURVE",
"842 639 OFFCURVE",
"842 643 CURVE SMOOTH",
"842 647 OFFCURVE",
"842 650 OFFCURVE",
"841 653 CURVE",
"839 657 OFFCURVE",
"835 659 OFFCURVE",
"833 659 CURVE SMOOTH",
"831 659 OFFCURVE",
"829 658 OFFCURVE",
"828 657 CURVE SMOOTH",
"824 653 OFFCURVE",
"827 646 OFFCURVE",
"827 640 CURVE SMOOTH",
"827 636 OFFCURVE",
"825 632 OFFCURVE",
"823 629 CURVE SMOOTH",
"808 608 OFFCURVE",
"782 601 OFFCURVE",
"757 600 CURVE",
"749 602 OFFCURVE",
"742 603 OFFCURVE",
"735 603 CURVE SMOOTH",
"730 603 OFFCURVE",
"726 602 OFFCURVE",
"721 602 CURVE",
"683 606 OFFCURVE",
"644 617 OFFCURVE",
"617 625 CURVE SMOOTH",
"581 635 OFFCURVE",
"546 644 OFFCURVE",
"512 652 CURVE SMOOTH",
"452 666 OFFCURVE",
"393 675 OFFCURVE",
"336 675 CURVE SMOOTH",
"267 675 OFFCURVE",
"200 662 OFFCURVE",
"133 626 CURVE SMOOTH",
"93 605 OFFCURVE",
"49 566 OFFCURVE",
"26 517 CURVE SMOOTH",
"13 489 OFFCURVE",
"5 458 OFFCURVE",
"5 429 CURVE SMOOTH",
"5 385 OFFCURVE",
"23 345 OFFCURVE",
"65 325 CURVE SMOOTH",
"79 319 OFFCURVE",
"94 316 OFFCURVE",
"109 316 CURVE SMOOTH",
"147 316 OFFCURVE",
"187 334 OFFCURVE",
"208 370 CURVE SMOOTH",
"222 392 OFFCURVE",
"229 421 OFFCURVE",
"229 448 CURVE SMOOTH",
"229 456 OFFCURVE",
"228 464 OFFCURVE",
"227 472 CURVE SMOOTH",
"224 488 OFFCURVE",
"216 510 OFFCURVE",
"209 520 CURVE SMOOTH",
"207 523 OFFCURVE",
"204 525 OFFCURVE",
"202 525 CURVE SMOOTH",
"200 525 OFFCURVE",
"199 524 OFFCURVE",
"199 522 CURVE SMOOTH",
"199 521 OFFCURVE",
"200 520 OFFCURVE",
"201 518 CURVE",
"210 504 OFFCURVE",
"213 486 OFFCURVE",
"213 468 CURVE SMOOTH",
"213 433 OFFCURVE",
"201 396 OFFCURVE",
"190 379 CURVE SMOOTH",
"167 344 OFFCURVE",
"134 326 OFFCURVE",
"105 326 CURVE SMOOTH",
"92 326 OFFCURVE",
"80 330 OFFCURVE",
"70 336 CURVE SMOOTH",
"50 349 OFFCURVE",
"36 375 OFFCURVE",
"36 413 CURVE SMOOTH",
"36 503 OFFCURVE",
"101 563 OFFCURVE",
"178 598 CURVE SMOOTH",
"222 618 OFFCURVE",
"302 626 OFFCURVE",
"376 626 CURVE SMOOTH",
"417 626 OFFCURVE",
"456 624 OFFCURVE",
"485 619 CURVE SMOOTH",
"532 611 OFFCURVE",
"607 594 OFFCURVE",
"672 586 CURVE",
"569 534 OFFCURVE",
"498 402 OFFCURVE",
"433 274 CURVE",
"399 280 OFFCURVE",
"346 291 OFFCURVE",
"297 291 CURVE SMOOTH",
"244 291 OFFCURVE",
"194 278 OFFCURVE",
"173 235 CURVE SMOOTH",
"169 226 OFFCURVE",
"167 217 OFFCURVE",
"167 208 CURVE SMOOTH",
"167 201 OFFCURVE",
"169 194 OFFCURVE",
"170 190 CURVE SMOOTH",
"171 186 OFFCURVE",
"174 185 OFFCURVE",
"176 185 CURVE SMOOTH",
"178 185 OFFCURVE",
"179 185 OFFCURVE",
"179 187 CURVE SMOOTH",
"179 188 OFFCURVE",
"178 189 OFFCURVE",
"178 190 CURVE SMOOTH",
"177 194 OFFCURVE",
"176 198 OFFCURVE",
"176 202 CURVE SMOOTH",
"176 210 OFFCURVE",
"178 218 OFFCURVE",
"184 226 CURVE SMOOTH",
"205 252 OFFCURVE",
"260 259 OFFCURVE",
"314 259 CURVE SMOOTH",
"355 259 OFFCURVE",
"396 255 OFFCURVE",
"423 253 CURVE",
"389 184 OFFCURVE",
"357 116 OFFCURVE",
"322 63 CURVE SMOOTH",
"281 1 OFFCURVE",
"232 -54 OFFCURVE",
"184 -70 CURVE SMOOTH",
"168 -76 OFFCURVE",
"148 -79 OFFCURVE",
"129 -79 CURVE SMOOTH",
"119 -79 OFFCURVE",
"109 -78 OFFCURVE",
"99 -76 CURVE SMOOTH",
"80 -71 OFFCURVE",
"50 -51 OFFCURVE",
"54 -31 CURVE SMOOTH",
"56 -24 OFFCURVE",
"48 -26 OFFCURVE",
"44 -31 CURVE SMOOTH",
"40 -36 OFFCURVE",
"38 -42 OFFCURVE",
"38 -49 CURVE SMOOTH",
"38 -64 OFFCURVE",
"47 -80 OFFCURVE",
"63 -88 CURVE SMOOTH"
);
}
);
width = 628;
}
);
note = F;
unicode = 0046;
},
{
glyphname = G;
lastChange = "2021-05-06 10:46:30 +0000";
layers = (
{
anchors = (
{
name = bottom;
position = "{244, -288}";
},
{
name = top;
position = "{625, 691}";
}
);
layerId = "23C1765D-E8A9-427D-A2B9-D2B95394C525";
paths = (
{
closed = 1;
nodes = (
"181 -295 OFFCURVE",
"204 -299 OFFCURVE",
"228 -299 CURVE SMOOTH",
"256 -299 OFFCURVE",
"285 -294 OFFCURVE",
"306 -286 CURVE SMOOTH",
"385 -256 OFFCURVE",
"447 -192 OFFCURVE",
"496 -116 CURVE SMOOTH",
"605 54 OFFCURVE",
"644 261 OFFCURVE",
"762 399 CURVE SMOOTH",
"799 444 OFFCURVE",
"838 467 OFFCURVE",
"870 467 CURVE SMOOTH",
"877 467 OFFCURVE",
"883 466 OFFCURVE",
"889 464 CURVE SMOOTH",
"894 462 OFFCURVE",
"898 471 OFFCURVE",
"892 473 CURVE SMOOTH",
"883 475 OFFCURVE",
"874 476 OFFCURVE",
"865 476 CURVE SMOOTH",
"845 476 OFFCURVE",
"824 471 OFFCURVE",
"802 460 CURVE SMOOTH",
"751 433 OFFCURVE",
"707 385 OFFCURVE",
"667 326 CURVE",
"661 326 OFFCURVE",
"649 315 OFFCURVE",
"636 295 CURVE SMOOTH",
"565 183 OFFCURVE",
"452 65 OFFCURVE",
"344 14 CURVE SMOOTH",
"300 -7 OFFCURVE",
"258 -17 OFFCURVE",
"225 -17 CURVE SMOOTH",
"213 -17 OFFCURVE",
"202 -16 OFFCURVE",
"192 -13 CURVE SMOOTH",
"124 6 OFFCURVE",
"101 64 OFFCURVE",
"101 132 CURVE SMOOTH",
"101 220 OFFCURVE",
"141 324 OFFCURVE",
"173 376 CURVE SMOOTH",
"263 521 OFFCURVE",
"450 662 OFFCURVE",
"623 668 CURVE SMOOTH",
"653 669 OFFCURVE",
"683 664 OFFCURVE",
"705 654 CURVE SMOOTH",
"735 641 OFFCURVE",
"747 618 OFFCURVE",
"747 594 CURVE SMOOTH",
"747 577 OFFCURVE",
"741 560 OFFCURVE",
"730 546 CURVE SMOOTH",
"686 490 OFFCURVE",
"626 473 OFFCURVE",
"577 473 CURVE SMOOTH",
"566 473 OFFCURVE",
"555 474 OFFCURVE",
"546 475 CURVE SMOOTH",
"539 476 OFFCURVE",
"534 473 OFFCURVE",
"534 470 CURVE SMOOTH",
"534 467 OFFCURVE",
"537 464 OFFCURVE",
"544 463 CURVE SMOOTH",
"553 462 OFFCURVE",
"563 461 OFFCURVE",
"575 461 CURVE SMOOTH",
"627 461 OFFCURVE",
"700 478 OFFCURVE",
"745 532 CURVE SMOOTH",
"765 556 OFFCURVE",
"776 582 OFFCURVE",
"776 606 CURVE SMOOTH",
"776 636 OFFCURVE",
"758 663 OFFCURVE",
"716 678 CURVE SMOOTH",
"690 687 OFFCURVE",
"658 691 OFFCURVE",
"625 691 CURVE SMOOTH",
"507 691 OFFCURVE",
"398 650 OFFCURVE",
"301 583 CURVE SMOOTH",
"176 496 OFFCURVE",
"80 366 OFFCURVE",
"48 236 CURVE SMOOTH",
"42 209 OFFCURVE",
"37 179 OFFCURVE",
"37 148 CURVE SMOOTH",
"37 92 OFFCURVE",
"52 35 OFFCURVE",
"95 1 CURVE SMOOTH",
"128 -25 OFFCURVE",
"172 -36 OFFCURVE",
"217 -36 CURVE SMOOTH",
"262 -36 OFFCURVE",
"308 -25 OFFCURVE",
"347 -8 CURVE SMOOTH",
"437 32 OFFCURVE",
"528 118 OFFCURVE",
"607 223 CURVE",
"547 110 OFFCURVE",
"496 -18 OFFCURVE",
"440 -111 CURVE SMOOTH",
"397 -184 OFFCURVE",
"345 -249 OFFCURVE",
"293 -269 CURVE SMOOTH",
"276 -275 OFFCURVE",
"256 -280 OFFCURVE",
"236 -280 CURVE SMOOTH",
"225 -280 OFFCURVE",
"214 -278 OFFCURVE",
"203 -275 CURVE SMOOTH",
"183 -269 OFFCURVE",
"152 -243 OFFCURVE",
"156 -219 CURVE SMOOTH",
"158 -212 OFFCURVE",
"150 -213 OFFCURVE",
"145 -220 CURVE SMOOTH",
"140 -226 OFFCURVE",
"138 -234 OFFCURVE",
"138 -243 CURVE SMOOTH",
"138 -259 OFFCURVE",
"146 -277 OFFCURVE",
"166 -287 CURVE SMOOTH"
);
}
);
width = 705;
}
);
note = G;
unicode = 0047;
},
{
glyphname = H;
lastChange = "2021-05-06 10:47:00 +0000";
layers = (
{
anchors = (
{
name = bottom;
position = "{497, 0}";
},
{
name = center;
position = "{416, 375}";
},
{
name = top;
position = "{847, 681}";
},
{
name = topleft;
position = "{20, 750}";
}
);
layerId = "23C1765D-E8A9-427D-A2B9-D2B95394C525";
paths = (
{
closed = 1;
nodes = (
"51 -96 OFFCURVE",
"72 -99 OFFCURVE",
"95 -99 CURVE SMOOTH",
"121 -99 OFFCURVE",
"149 -95 OFFCURVE",
"169 -88 CURVE SMOOTH",
"243 -62 OFFCURVE",
"302 -7 OFFCURVE",
"348 59 CURVE SMOOTH",
"395 126 OFFCURVE",
"436 212 OFFCURVE",
"477 299 CURVE",
"718 299 LINE",
"674 217 OFFCURVE",
"633 126 OFFCURVE",
"632 44 CURVE SMOOTH",
"632 7 OFFCURVE",
"643 -19 OFFCURVE",
"663 -34 CURVE SMOOTH",
"679 -45 OFFCURVE",
"696 -50 OFFCURVE",
"713 -50 CURVE SMOOTH",
"738 -50 OFFCURVE",
"762 -41 OFFCURVE",
"781 -27 CURVE SMOOTH",
"838 14 OFFCURVE",
"891 99 OFFCURVE",
"913 143 CURVE SMOOTH",
"915 147 OFFCURVE",
"916 151 OFFCURVE",
"916 153 CURVE SMOOTH",
"916 156 OFFCURVE",
"915 157 OFFCURVE",
"913 157 CURVE SMOOTH",
"910 157 OFFCURVE",
"906 154 OFFCURVE",
"902 148 CURVE SMOOTH",
"883 113 OFFCURVE",
"824 23 OFFCURVE",
"774 -14 CURVE SMOOTH",
"761 -24 OFFCURVE",
"746 -30 OFFCURVE",
"733 -30 CURVE SMOOTH",
"723 -30 OFFCURVE",
"713 -27 OFFCURVE",
"705 -19 CURVE SMOOTH",
"696 -10 OFFCURVE",
"692 5 OFFCURVE",
"692 23 CURVE SMOOTH",
"692 36 OFFCURVE",
"694 51 OFFCURVE",
"698 68 CURVE SMOOTH",
"714 132 OFFCURVE",
"753 233 OFFCURVE",
"780 299 CURVE",
"839 299 LINE SMOOTH",
"847 299 OFFCURVE",
"860 313 OFFCURVE",
"860 319 CURVE SMOOTH",
"860 320 OFFCURVE",
"860 321 OFFCURVE",
"858 321 CURVE SMOOTH",
"790 321 LINE",
"796 336 OFFCURVE",
"801 347 OFFCURVE",
"805 354 CURVE SMOOTH",
"862 470 OFFCURVE",
"939 615 OFFCURVE",
"1019 719 CURVE",
"1023 726 OFFCURVE",
"1008 727 OFFCURVE",
"1004 720 CURVE SMOOTH",
"915 592 OFFCURVE",
"816 470 OFFCURVE",
"739 335 CURVE SMOOTH",
"731 321 LINE",
"487 321 LINE",
"531 414 OFFCURVE",
"577 506 OFFCURVE",
"636 575 CURVE SMOOTH",
"652 593 OFFCURVE",
"668 609 OFFCURVE",
"684 620 CURVE",
"694 620 LINE SMOOTH",
"709 620 OFFCURVE",
"769 619 OFFCURVE",
"769 641 CURVE SMOOTH",
"769 651 OFFCURVE",
"744 651 OFFCURVE",
"739 651 CURVE SMOOTH",
"719 651 OFFCURVE",
"698 646 OFFCURVE",
"677 636 CURVE",
"651 637 OFFCURVE",
"625 640 OFFCURVE",
"600 644 CURVE SMOOTH",
"540 653 OFFCURVE",
"471 669 OFFCURVE",
"411 681 CURVE SMOOTH",
"370 689 OFFCURVE",
"331 695 OFFCURVE",
"294 695 CURVE SMOOTH",
"254 695 OFFCURVE",
"217 688 OFFCURVE",
"184 669 CURVE SMOOTH",
"150 649 OFFCURVE",
"126 607 OFFCURVE",
"126 563 CURVE SMOOTH",
"126 534 OFFCURVE",
"137 504 OFFCURVE",
"163 481 CURVE",
"167 479 OFFCURVE",
"172 484 OFFCURVE",
"169 486 CURVE",
"155 500 OFFCURVE",
"150 516 OFFCURVE",
"150 534 CURVE SMOOTH",
"150 576 OFFCURVE",
"183 623 OFFCURVE",
"215 640 CURVE SMOOTH",
"253 659 OFFCURVE",
"295 666 OFFCURVE",
"341 666 CURVE SMOOTH",
"394 666 OFFCURVE",
"450 657 OFFCURVE",
"507 646 CURVE SMOOTH",
"547 638 OFFCURVE",
"603 627 OFFCURVE",
"654 622 CURVE",
"569 566 OFFCURVE",
"497 444 OFFCURVE",
"433 321 CURVE",
"236 321 LINE SMOOTH",
"228 321 OFFCURVE",
"215 307 OFFCURVE",
"215 301 CURVE SMOOTH",
"215 300 OFFCURVE",
"216 299 OFFCURVE",
"218 299 CURVE SMOOTH",
"422 299 LINE",
"376 210 OFFCURVE",
"335 122 OFFCURVE",
"296 63 CURVE SMOOTH",
"255 1 OFFCURVE",
"206 -54 OFFCURVE",
"158 -70 CURVE SMOOTH",
"142 -76 OFFCURVE",
"122 -80 OFFCURVE",
"102 -80 CURVE SMOOTH",
"92 -80 OFFCURVE",
"82 -78 OFFCURVE",
"72 -76 CURVE SMOOTH",
"54 -72 OFFCURVE",
"25 -51 OFFCURVE",
"29 -31 CURVE SMOOTH",
"30 -24 OFFCURVE",
"23 -26 OFFCURVE",
"18 -31 CURVE SMOOTH",
"14 -36 OFFCURVE",
"12 -42 OFFCURVE",
"12 -49 CURVE SMOOTH",
"12 -64 OFFCURVE",
"21 -80 OFFCURVE",
"37 -88 CURVE SMOOTH"
);
}
);
width = 832;
}
);
note = H;
unicode = 0048;
},
{
glyphname = I;
lastChange = "2021-05-06 10:47:20 +0000";
layers = (
{
anchors = (
{
name = bottom;
position = "{1, -90}";
},
{
name = ogonek;
position = "{0, -88}";
},
{
name = top;
position = "{582, 656}";
},
{
name = topleft;
position = "{20, 750}";
}
);
layerId = "23C1765D-E8A9-427D-A2B9-D2B95394C525";
paths = (
{
closed = 1;
nodes = (
"-71 -96 OFFCURVE",
"-50 -99 OFFCURVE",
"-27 -99 CURVE SMOOTH",
"-1 -99 OFFCURVE",
"26 -95 OFFCURVE",
"47 -88 CURVE SMOOTH",
"265 -12 OFFCURVE",
"325 257 OFFCURVE",
"414 428 CURVE SMOOTH",
"452 502 OFFCURVE",
"524 616 OFFCURVE",
"600 616 CURVE SMOOTH",
"607 616 OFFCURVE",
"614 615 OFFCURVE",
"621 613 CURVE",
"626 610 OFFCURVE",
"632 612 OFFCURVE",
"632 616 CURVE SMOOTH",
"632 618 OFFCURVE",
"631 620 OFFCURVE",
"628 622 CURVE SMOOTH",
"582 656 OFFCURVE",
"511 673 OFFCURVE",
"454 673 CURVE SMOOTH",
"395 673 OFFCURVE",
"333 663 OFFCURVE",
"274 638 CURVE SMOOTH",
"172 595 OFFCURVE",
"74 495 OFFCURVE",
"74 378 CURVE SMOOTH",
"74 339 OFFCURVE",
"86 299 OFFCURVE",
"122 281 CURVE SMOOTH",
"139 272 OFFCURVE",
"158 268 OFFCURVE",
"177 268 CURVE SMOOTH",
"194 268 OFFCURVE",
"210 271 OFFCURVE",
"224 278 CURVE SMOOTH",
"232 281 OFFCURVE",
"235 285 OFFCURVE",
"235 288 CURVE SMOOTH",
"235 290 OFFCURVE",
"233 291 OFFCURVE",
"230 291 CURVE SMOOTH",
"229 291 OFFCURVE",
"226 291 OFFCURVE",
"224 290 CURVE SMOOTH",
"213 286 OFFCURVE",
"201 284 OFFCURVE",
"189 284 CURVE SMOOTH",
"176 284 OFFCURVE",
"162 287 OFFCURVE",
"151 294 CURVE SMOOTH",
"130 308 OFFCURVE",
"122 332 OFFCURVE",
"122 360 CURVE SMOOTH",
"122 459 OFFCURVE",
"200 562 OFFCURVE",
"285 609 CURVE SMOOTH",
"336 639 OFFCURVE",
"395 656 OFFCURVE",
"453 656 CURVE SMOOTH",
"491 656 OFFCURVE",
"555 642 OFFCURVE",
"597 625 CURVE",
"577 625 OFFCURVE",
"556 620 OFFCURVE",
"535 609 CURVE SMOOTH",
"474 577 OFFCURVE",
"423 516 OFFCURVE",
"377 443 CURVE SMOOTH",
"299 318 OFFCURVE",
"237 160 OFFCURVE",
"173 63 CURVE SMOOTH",
"133 1 OFFCURVE",
"83 -54 OFFCURVE",
"36 -70 CURVE SMOOTH",
"19 -76 OFFCURVE",
"0 -79 OFFCURVE",
"-20 -79 CURVE SMOOTH",
"-30 -79 OFFCURVE",
"-40 -78 OFFCURVE",
"-50 -76 CURVE SMOOTH",
"-69 -71 OFFCURVE",
"-98 -51 OFFCURVE",
"-94 -31 CURVE SMOOTH",
"-93 -24 OFFCURVE",
"-99 -26 OFFCURVE",
"-105 -31 CURVE",
"-109 -36 OFFCURVE",
"-110 -42 OFFCURVE",
"-110 -48 CURVE SMOOTH",
"-110 -63 OFFCURVE",
"-101 -80 OFFCURVE",
"-85 -88 CURVE SMOOTH"
);
}
);
width = 341;
}
);
note = I;
unicode = 0049;
},
{
glyphname = J;
lastChange = "2021-05-06 10:47:48 +0000";
layers = (
{
anchors = (
{
name = bottom;
position = "{-39, -298}";
},
{
name = top;
position = "{727, 674}";
}
);
layerId = "23C1765D-E8A9-427D-A2B9-D2B95394C525";
paths = (
{
closed = 1;
nodes = (
"176 -298 OFFCURVE",
"298 -65 OFFCURVE",
"377 105 CURVE SMOOTH",
"451 266 OFFCURVE",
"514 438 OFFCURVE",
"633 572 CURVE SMOOTH",
"683 629 OFFCURVE",
"731 652 OFFCURVE",
"773 652 CURVE SMOOTH",
"783 652 OFFCURVE",
"793 651 OFFCURVE",
"802 648 CURVE",
"806 646 OFFCURVE",
"810 651 OFFCURVE",
"810 655 CURVE SMOOTH",
"810 657 OFFCURVE",
"809 658 OFFCURVE",
"807 659 CURVE SMOOTH",
"795 662 OFFCURVE",
"783 664 OFFCURVE",
"770 664 CURVE SMOOTH",
"763 664 OFFCURVE",
"756 663 OFFCURVE",
"748 662 CURVE",
"718 665 OFFCURVE",
"679 670 OFFCURVE",
"649 674 CURVE SMOOTH",
"606 680 OFFCURVE",
"563 683 OFFCURVE",
"521 683 CURVE SMOOTH",
"491 683 OFFCURVE",
"461 681 OFFCURVE",
"432 678 CURVE SMOOTH",
"303 663 OFFCURVE",
"192 601 OFFCURVE",
"112 500 CURVE SMOOTH",
"60 435 OFFCURVE",
"22 354 OFFCURVE",
"22 279 CURVE SMOOTH",
"22 252 OFFCURVE",
"26 226 OFFCURVE",
"37 201 CURVE SMOOTH",
"60 146 OFFCURVE",
"117 118 OFFCURVE",
"173 118 CURVE SMOOTH",
"200 118 OFFCURVE",
"227 124 OFFCURVE",
"250 136 CURVE SMOOTH",
"276 149 OFFCURVE",
"299 170 OFFCURVE",
"313 196 CURVE SMOOTH",
"314 200 OFFCURVE",
"314 207 OFFCURVE",
"311 207 CURVE SMOOTH",
"310 207 OFFCURVE",
"309 206 OFFCURVE",
"308 204 CURVE SMOOTH",
"294 184 OFFCURVE",
"272 167 OFFCURVE",
"246 156 CURVE SMOOTH",
"227 148 OFFCURVE",
"208 143 OFFCURVE",
"189 143 CURVE SMOOTH",
"137 143 OFFCURVE",
"90 176 OFFCURVE",
"76 236 CURVE SMOOTH",
"72 252 OFFCURVE",
"71 268 OFFCURVE",
"71 285 CURVE SMOOTH",
"71 348 OFFCURVE",
"97 413 OFFCURVE",
"134 468 CURVE SMOOTH",
"202 569 OFFCURVE",
"311 639 OFFCURVE",
"433 658 CURVE SMOOTH",
"469 664 OFFCURVE",
"506 667 OFFCURVE",
"544 667 CURVE SMOOTH",
"592 667 OFFCURVE",
"640 660 OFFCURVE",
"687 654 CURVE SMOOTH",
"710 651 LINE",
"690 643 LINE",
"642 618 OFFCURVE",
"596 575 OFFCURVE",
"552 522 CURVE SMOOTH",
"411 349 OFFCURVE",
"335 113 OFFCURVE",
"200 -89 CURVE SMOOTH",
"149 -166 OFFCURVE",
"68 -278 OFFCURVE",
"-31 -278 CURVE SMOOTH",
"-96 -278 OFFCURVE",
"-151 -237 OFFCURVE",
"-151 -160 CURVE SMOOTH",
"-151 -116 OFFCURVE",
"-135 -63 OFFCURVE",
"-99 -25 CURVE SMOOTH",
"-96 -22 OFFCURVE",
"-95 -19 OFFCURVE",
"-95 -18 CURVE SMOOTH",
"-95 -17 OFFCURVE",
"-96 -16 OFFCURVE",
"-97 -16 CURVE SMOOTH",
"-98 -16 OFFCURVE",
"-101 -17 OFFCURVE",
"-103 -18 CURVE SMOOTH",
"-151 -46 OFFCURVE",
"-184 -112 OFFCURVE",
"-184 -172 CURVE SMOOTH",
"-184 -257 OFFCURVE",
"-118 -298 OFFCURVE",
"-39 -298 CURVE SMOOTH"
);
}
);
width = 479;
}
);
note = J;
unicode = 004A;
},
{
glyphname = K;
lastChange = "2021-05-06 10:48:02 +0000";
layers = (
{
anchors = (
{
name = bottom;
position = "{287, 0}";
},
{
name = top;
position = "{677, 675}";
}
);
layerId = "23C1765D-E8A9-427D-A2B9-D2B95394C525";
paths = (
{
closed = 1;
nodes = (
"677 -103 OFFCURVE",
"718 -78 OFFCURVE",
"742 -41 CURVE SMOOTH",
"759 -16 OFFCURVE",
"766 13 OFFCURVE",
"766 41 CURVE SMOOTH",
"766 84 OFFCURVE",
"749 126 OFFCURVE",
"720 154 CURVE SMOOTH",
"714 159 OFFCURVE",
"707 162 OFFCURVE",
"703 162 CURVE SMOOTH",
"701 162 OFFCURVE",
"699 161 OFFCURVE",
"699 159 CURVE SMOOTH",
"699 156 OFFCURVE",
"700 153 OFFCURVE",
"704 148 CURVE SMOOTH",
"710 140 OFFCURVE",
"718 125 OFFCURVE",
"725 107 CURVE SMOOTH",
"735 83 OFFCURVE",
"745 50 OFFCURVE",
"745 19 CURVE SMOOTH",
"745 1 OFFCURVE",
"742 -15 OFFCURVE",
"734 -29 CURVE SMOOTH",
"721 -52 OFFCURVE",
"694 -71 OFFCURVE",
"660 -71 CURVE SMOOTH",
"585 -71 OFFCURVE",
"513 11 OFFCURVE",
"469 70 CURVE SMOOTH",
"426 126 OFFCURVE",
"388 185 OFFCURVE",
"345 241 CURVE",
"425 337 OFFCURVE",
"577 474 OFFCURVE",
"717 560 CURVE SMOOTH",
"774 596 OFFCURVE",
"854 636 OFFCURVE",
"930 636 CURVE SMOOTH",
"974 636 OFFCURVE",
"1046 623 OFFCURVE",
"1038 556 CURVE SMOOTH",
"1037 545 OFFCURVE",
"1049 547 OFFCURVE",
"1051 567 CURVE SMOOTH",
"1059 648 OFFCURVE",
"982 675 OFFCURVE",
"917 675 CURVE SMOOTH",
"842 675 OFFCURVE",
"764 635 OFFCURVE",
"704 596 CURVE SMOOTH",
"570 509 OFFCURVE",
"397 358 OFFCURVE",
"312 222 CURVE",
"343 168 OFFCURVE",
"378 98 OFFCURVE",
"412 45 CURVE SMOOTH",
"462 -31 OFFCURVE",
"526 -103 OFFCURVE",
"624 -103 CURVE SMOOTH"
);
},
{
closed = 1;
nodes = (
"-120 -96 OFFCURVE",
"-99 -99 OFFCURVE",
"-76 -99 CURVE SMOOTH",
"-50 -99 OFFCURVE",
"-22 -95 OFFCURVE",
"-2 -88 CURVE SMOOTH",
"217 -12 OFFCURVE",
"276 257 OFFCURVE",
"365 428 CURVE SMOOTH",
"404 502 OFFCURVE",
"476 616 OFFCURVE",
"552 616 CURVE SMOOTH",
"559 616 OFFCURVE",
"566 615 OFFCURVE",
"573 613 CURVE",
"578 610 OFFCURVE",
"583 612 OFFCURVE",
"583 616 CURVE SMOOTH",
"583 618 OFFCURVE",
"582 620 OFFCURVE",
"579 622 CURVE SMOOTH",
"533 656 OFFCURVE",
"462 673 OFFCURVE",
"404 673 CURVE SMOOTH",
"346 673 OFFCURVE",
"283 663 OFFCURVE",
"225 638 CURVE SMOOTH",
"123 595 OFFCURVE",
"25 495 OFFCURVE",
"25 378 CURVE SMOOTH",
"25 339 OFFCURVE",
"38 298 OFFCURVE",
"72 281 CURVE SMOOTH",
"89 272 OFFCURVE",
"109 268 OFFCURVE",
"128 268 CURVE SMOOTH",
"145 268 OFFCURVE",
"162 271 OFFCURVE",
"176 278 CURVE SMOOTH",
"184 281 OFFCURVE",
"187 285 OFFCURVE",
"187 287 CURVE SMOOTH",
"187 290 OFFCURVE",
"185 291 OFFCURVE",
"181 291 CURVE SMOOTH",
"179 291 OFFCURVE",
"177 291 OFFCURVE",
"174 290 CURVE SMOOTH",
"163 286 OFFCURVE",
"151 284 OFFCURVE",
"140 284 CURVE SMOOTH",
"126 284 OFFCURVE",
"113 287 OFFCURVE",
"103 294 CURVE SMOOTH",
"79 309 OFFCURVE",
"71 337 OFFCURVE",
"73 369 CURVE SMOOTH",
"80 465 OFFCURVE",
"155 563 OFFCURVE",
"236 609 CURVE SMOOTH",
"287 639 OFFCURVE",
"346 656 OFFCURVE",
"403 656 CURVE SMOOTH",
"442 656 OFFCURVE",
"506 642 OFFCURVE",
"548 625 CURVE",
"528 625 OFFCURVE",
"507 620 OFFCURVE",
"486 609 CURVE SMOOTH",
"426 577 OFFCURVE",
"374 516 OFFCURVE",
"328 443 CURVE SMOOTH",
"250 318 OFFCURVE",
"189 160 OFFCURVE",
"125 63 CURVE SMOOTH",
"84 1 OFFCURVE",
"35 -53 OFFCURVE",
"-14 -70 CURVE SMOOTH",
"-30 -75 OFFCURVE",
"-50 -79 OFFCURVE",
"-70 -79 CURVE SMOOTH",
"-80 -79 OFFCURVE",
"-90 -78 OFFCURVE",
"-99 -76 CURVE SMOOTH",
"-117 -72 OFFCURVE",
"-147 -51 OFFCURVE",
"-143 -31 CURVE SMOOTH",
"-141 -24 OFFCURVE",
"-148 -26 OFFCURVE",
"-153 -31 CURVE SMOOTH",
"-157 -36 OFFCURVE",
"-159 -42 OFFCURVE",
"-159 -48 CURVE SMOOTH",
"-159 -63 OFFCURVE",
"-149 -80 OFFCURVE",
"-134 -88 CURVE SMOOTH"
);
}
);
width = 768;
}
);
note = K;
unicode = 004B;
},
{
glyphname = L;
lastChange = "2021-05-06 10:49:16 +0000";
layers = (
{
anchors = (
{
name = bottom;
position = "{498, -60}";
},
{
name = center;
position = "{434, 375}";
},
{
name = top;
position = "{742, 694}";
},
{
name = topright;
position = "{859, 683}";
}
);
layerId = "23C1765D-E8A9-427D-A2B9-D2B95394C525";
paths = (
{
closed = 1;
nodes = (
"711 -91 OFFCURVE",
"751 -79 OFFCURVE",
"784 -59 CURVE SMOOTH",
"831 -30 OFFCURVE",
"859 22 OFFCURVE",
"859 75 CURVE SMOOTH",
"859 93 OFFCURVE",
"856 111 OFFCURVE",
"849 129 CURVE SMOOTH",
"837 161 OFFCURVE",
"814 190 OFFCURVE",
"779 215 CURVE SMOOTH",
"757 230 OFFCURVE",
"733 241 OFFCURVE",
"711 246 CURVE SMOOTH",
"710 246 OFFCURVE",
"703 245 OFFCURVE",
"703 242 CURVE SMOOTH",
"703 240 OFFCURVE",
"705 238 OFFCURVE",
"710 236 CURVE SMOOTH",
"728 229 OFFCURVE",
"752 216 OFFCURVE",
"774 200 CURVE SMOOTH",
"813 171 OFFCURVE",
"830 136 OFFCURVE",
"830 102 CURVE SMOOTH",
"830 53 OFFCURVE",
"794 5 OFFCURVE",
"739 -20 CURVE SMOOTH",
"705 -36 OFFCURVE",
"663 -42 OFFCURVE",
"618 -42 CURVE SMOOTH",
"519 -42 OFFCURVE",
"403 -12 OFFCURVE",
"310 15 CURVE SMOOTH",
"247 33 LINE",
"288 62 OFFCURVE",
"324 100 OFFCURVE",
"354 143 CURVE SMOOTH",
"439 265 OFFCURVE",
"542 586 OFFCURVE",
"659 653 CURVE SMOOTH",
"680 665 OFFCURVE",
"705 671 OFFCURVE",
"729 671 CURVE SMOOTH",
"778 671 OFFCURVE",
"823 645 OFFCURVE",
"823 591 CURVE SMOOTH",
"823 585 OFFCURVE",
"822 578 OFFCURVE",
"821 570 CURVE SMOOTH",
"809 505 OFFCURVE",
"754 454 OFFCURVE",
"694 432 CURVE SMOOTH",
"688 430 OFFCURVE",
"686 427 OFFCURVE",
"686 423 CURVE SMOOTH",
"686 421 OFFCURVE",
"687 419 OFFCURVE",
"691 419 CURVE SMOOTH",
"693 419 OFFCURVE",
"695 420 OFFCURVE",
"698 421 CURVE SMOOTH",
"762 444 OFFCURVE",
"821 490 OFFCURVE",
"841 556 CURVE SMOOTH",
"846 571 OFFCURVE",
"848 586 OFFCURVE",
"848 599 CURVE SMOOTH",
"848 654 OFFCURVE",
"811 694 OFFCURVE",
"742 694 CURVE SMOOTH",
"709 694 OFFCURVE",
"678 684 OFFCURVE",
"649 669 CURVE SMOOTH",
"600 643 OFFCURVE",
"558 598 OFFCURVE",
"527 556 CURVE SMOOTH",
"437 433 OFFCURVE",
"373 257 OFFCURVE",
"302 148 CURVE SMOOTH",
"275 106 OFFCURVE",
"244 69 OFFCURVE",
"212 43 CURVE",
"100 74 LINE SMOOTH",
"88 77 OFFCURVE",
"58 85 OFFCURVE",
"37 85 CURVE SMOOTH",
"29 85 OFFCURVE",
"21 84 OFFCURVE",
"17 81 CURVE SMOOTH",
"11 77 OFFCURVE",
"14 72 OFFCURVE",
"18 72 CURVE SMOOTH",
"18 72 OFFCURVE",
"19 72 OFFCURVE",
"19 72 CURVE SMOOTH",
"38 76 OFFCURVE",
"75 65 OFFCURVE",
"95 59 CURVE SMOOTH",
"122 50 OFFCURVE",
"155 38 OFFCURVE",
"186 25 CURVE",
"163 15 LINE SMOOTH",
"148 9 OFFCURVE",
"129 5 OFFCURVE",
"110 5 CURVE SMOOTH",
"99 5 OFFCURVE",
"88 6 OFFCURVE",
"78 9 CURVE SMOOTH",
"59 14 OFFCURVE",
"30 33 OFFCURVE",
"34 54 CURVE SMOOTH",
"36 61 OFFCURVE",
"29 59 OFFCURVE",
"24 54 CURVE SMOOTH",
"20 49 OFFCURVE",
"18 42 OFFCURVE",
"18 36 CURVE SMOOTH",
"18 21 OFFCURVE",
"27 4 OFFCURVE",
"42 -4 CURVE SMOOTH",
"55 -11 OFFCURVE",
"76 -14 OFFCURVE",
"98 -14 CURVE SMOOTH",
"125 -14 OFFCURVE",
"154 -10 OFFCURVE",
"175 -3 CURVE SMOOTH",
"189 2 OFFCURVE",
"202 7 OFFCURVE",
"215 14 CURVE",
"299 -20 LINE SMOOTH",
"399 -60 OFFCURVE",
"527 -95 OFFCURVE",
"636 -95 CURVE SMOOTH",
"647 -95 OFFCURVE",
"658 -95 OFFCURVE",
"669 -94 CURVE SMOOTH"
);
}
);
width = 868;
}
);
note = L;
unicode = 004C;
},
{
glyphname = M;
lastChange = "2021-05-06 10:42:46 +0000";
layers = (
{
layerId = "23C1765D-E8A9-427D-A2B9-D2B95394C525";
paths = (
{
closed = 1;
nodes = (
"75 -128 OFFCURVE",
"110 -122 OFFCURVE",
"144 -105 CURVE SMOOTH",
"200 -78 OFFCURVE",
"250 -27 OFFCURVE",
"289 25 CURVE SMOOTH",
"396 168 OFFCURVE",
"456 349 OFFCURVE",
"552 501 CURVE SMOOTH",
"571 531 OFFCURVE",
"649 650 OFFCURVE",
"694 639 CURVE",
"657 623 OFFCURVE",
"624 580 OFFCURVE",
"607 550 CURVE SMOOTH",
"586 513 OFFCURVE",
"577 463 OFFCURVE",
"571 422 CURVE SMOOTH",
"559 333 OFFCURVE",
"557 243 OFFCURVE",
"534 156 CURVE SMOOTH",
"517 93 OFFCURVE",
"490 37 OFFCURVE",
"445 5 CURVE SMOOTH",
"438 1 OFFCURVE",
"439 -6 OFFCURVE",
"447 -6 CURVE SMOOTH",
"530 -11 OFFCURVE",
"637 131 OFFCURVE",
"685 194 CURVE SMOOTH",
"784 326 OFFCURVE",
"887 499 OFFCURVE",
"996 604 CURVE SMOOTH",
"1065 670 OFFCURVE",
"1121 698 OFFCURVE",
"1158 698 CURVE SMOOTH",
"1186 698 OFFCURVE",
"1204 683 OFFCURVE",
"1210 657 CURVE",
"1212 653 OFFCURVE",
"1226 654 OFFCURVE",
"1226 663 CURVE SMOOTH",
"1226 664 OFFCURVE",
"1225 665 OFFCURVE",
"1225 666 CURVE SMOOTH",
"1211 706 OFFCURVE",
"1176 729 OFFCURVE",
"1131 729 CURVE SMOOTH",
"1079 729 OFFCURVE",
"1013 698 OFFCURVE",
"948 628 CURVE SMOOTH",
"836 507 OFFCURVE",
"736 321 OFFCURVE",
"650 189 CURVE SMOOTH",
"619 142 OFFCURVE",
"561 53 OFFCURVE",
"510 34 CURVE",
"555 75 OFFCURVE",
"583 126 OFFCURVE",
"598 184 CURVE SMOOTH",
"618 257 OFFCURVE",
"617 335 OFFCURVE",
"619 406 CURVE SMOOTH",
"620 457 OFFCURVE",
"620 524 OFFCURVE",
"646 569 CURVE SMOOTH",
"665 603 OFFCURVE",
"683 630 OFFCURVE",
"711 639 CURVE",
"717 642 OFFCURVE",
"724 643 OFFCURVE",
"733 643 CURVE SMOOTH",
"737 643 OFFCURVE",
"740 646 OFFCURVE",
"740 649 CURVE",
"742 656 OFFCURVE",
"734 659 OFFCURVE",
"728 660 CURVE",
"702 660 LINE SMOOTH",
"607 660 OFFCURVE",
"511 675 OFFCURVE",
"415 675 CURVE SMOOTH",
"292 675 OFFCURVE",
"168 649 OFFCURVE",
"79 561 CURVE SMOOTH",
"37 519 OFFCURVE",
"5 466 OFFCURVE",
"5 408 CURVE SMOOTH",
"5 329 OFFCURVE",
"59 297 OFFCURVE",
"120 297 CURVE SMOOTH",
"142 297 OFFCURVE",
"165 301 OFFCURVE",
"186 309 CURVE SMOOTH",
"244 330 OFFCURVE",
"298 388 OFFCURVE",
"298 451 CURVE SMOOTH",
"298 478 OFFCURVE",
"288 515 OFFCURVE",
"259 518 CURVE",
"252 518 OFFCURVE",
"251 513 OFFCURVE",
"257 509 CURVE SMOOTH",
"263 505 OFFCURVE",
"268 491 OFFCURVE",
"269 479 CURVE SMOOTH",
"274 407 OFFCURVE",
"226 343 OFFCURVE",
"161 321 CURVE SMOOTH",
"144 315 OFFCURVE",
"127 312 OFFCURVE",
"111 312 CURVE SMOOTH",
"68 312 OFFCURVE",
"32 335 OFFCURVE",
"32 392 CURVE SMOOTH",
"32 443 OFFCURVE",
"65 498 OFFCURVE",
"110 539 CURVE SMOOTH",
"187 610 OFFCURVE",
"304 642 OFFCURVE",
"413 649 CURVE SMOOTH",
"443 651 OFFCURVE",
"480 652 OFFCURVE",
"517 652 CURVE SMOOTH",
"549 652 OFFCURVE",
"581 651 OFFCURVE",
"607 649 CURVE SMOOTH",
"635 647 OFFCURVE",
"641 646 OFFCURVE",
"659 646 CURVE",
"594 614 OFFCURVE",
"534 536 OFFCURVE",
"500 489 CURVE SMOOTH",
"396 343 OFFCURVE",
"332 173 OFFCURVE",
"231 24 CURVE SMOOTH",
"187 -40 OFFCURVE",
"127 -112 OFFCURVE",
"45 -112 CURVE SMOOTH",
"34 -112 OFFCURVE",
"23 -111 OFFCURVE",
"11 -108 CURVE SMOOTH",
"-8 -103 OFFCURVE",
"-31 -82 OFFCURVE",
"-26 -62 CURVE SMOOTH",
"-25 -55 OFFCURVE",
"-31 -57 OFFCURVE",
"-37 -63 CURVE SMOOTH",
"-41 -69 OFFCURVE",
"-43 -75 OFFCURVE",
"-43 -83 CURVE SMOOTH",
"-43 -124 OFFCURVE",
"17 -128 OFFCURVE",
"40 -128 CURVE SMOOTH"
);
},
{
closed = 1;
nodes = (
"890 -51 OFFCURVE",
"933 -17 OFFCURVE",
"970 24 CURVE SMOOTH",
"1003 61 OFFCURVE",
"1031 105 OFFCURVE",
"1047 136 CURVE SMOOTH",
"1050 142 OFFCURVE",
"1051 146 OFFCURVE",
"1051 150 CURVE SMOOTH",
"1051 153 OFFCURVE",
"1050 155 OFFCURVE",
"1048 155 CURVE SMOOTH",
"1046 155 OFFCURVE",
"1044 153 OFFCURVE",
"1041 149 CURVE SMOOTH",
"1025 118 OFFCURVE",
"999 77 OFFCURVE",
"970 42 CURVE SMOOTH",
"937 1 OFFCURVE",
"900 -32 OFFCURVE",
"870 -32 CURVE SMOOTH",
"840 -32 OFFCURVE",
"827 -11 OFFCURVE",
"827 21 CURVE SMOOTH",
"827 35 OFFCURVE",
"830 51 OFFCURVE",
"834 68 CURVE SMOOTH",
"856 156 OFFCURVE",
"921 314 OFFCURVE",
"941 354 CURVE SMOOTH",
"998 470 OFFCURVE",
"1052 574 OFFCURVE",
"1105 644 CURVE SMOOTH",
"1110 650 OFFCURVE",
"1094 652 OFFCURVE",
"1090 645 CURVE SMOOTH",
"1040 574 OFFCURVE",
"953 470 OFFCURVE",
"875 335 CURVE SMOOTH",
"823 244 OFFCURVE",
"769 138 OFFCURVE",
"768 44 CURVE SMOOTH",
"768 -19 OFFCURVE",
"800 -51 OFFCURVE",
"851 -51 CURVE SMOOTH"
);
}
);
width = 970;
}
);
note = M;
unicode = 004D;
},
{
glyphname = N;
lastChange = "2021-05-06 10:49:43 +0000";
layers = (
{
anchors = (
{
name = bottom;
position = "{512, 0}";
},
{
name = top;
position = "{872, 750}";
}
);
layerId = "23C1765D-E8A9-427D-A2B9-D2B95394C525";
paths = (
{
closed = 1;
nodes = (
"138 -128 OFFCURVE",
"173 -121 OFFCURVE",
"207 -105 CURVE SMOOTH",
"263 -77 OFFCURVE",
"314 -27 OFFCURVE",
"352 25 CURVE SMOOTH",
"459 168 OFFCURVE",
"519 348 OFFCURVE",
"615 501 CURVE SMOOTH",
"633 529 OFFCURVE",
"705 642 OFFCURVE",
"751 640 CURVE",
"677 599 OFFCURVE",
"658 519 OFFCURVE",
"658 443 CURVE SMOOTH",
"658 416 OFFCURVE",
"661 389 OFFCURVE",
"664 365 CURVE SMOOTH",
"676 278 OFFCURVE",
"711 186 OFFCURVE",
"711 105 CURVE SMOOTH",
"711 45 OFFCURVE",
"700 -10 OFFCURVE",
"666 -46 CURVE SMOOTH",
"662 -51 OFFCURVE",
"665 -56 OFFCURVE",
"670 -56 CURVE SMOOTH",
"670 -56 OFFCURVE",
"671 -56 OFFCURVE",
"671 -56 CURVE SMOOTH",
"742 -46 OFFCURVE",
"802 97 OFFCURVE",
"829 161 CURVE SMOOTH",
"884 294 OFFCURVE",
"960 489 OFFCURVE",
"1043 613 CURVE SMOOTH",
"1101 700 OFFCURVE",
"1154 736 OFFCURVE",
"1192 736 CURVE SMOOTH",
"1213 736 OFFCURVE",
"1230 725 OFFCURVE",
"1241 705 CURVE SMOOTH",
"1243 701 OFFCURVE",
"1254 703 OFFCURVE",
"1254 711 CURVE SMOOTH",
"1254 713 OFFCURVE",
"1254 715 OFFCURVE",
"1252 717 CURVE SMOOTH",
"1233 746 OFFCURVE",
"1203 762 OFFCURVE",
"1169 762 CURVE SMOOTH",
"1113 762 OFFCURVE",
"1044 721 OFFCURVE",
"989 627 CURVE SMOOTH",
"909 489 OFFCURVE",
"846 281 OFFCURVE",
"801 150 CURVE SMOOTH",
"785 104 OFFCURVE",
"755 15 OFFCURVE",
"716 -9 CURVE",
"746 35 OFFCURVE",
"762 78 OFFCURVE",
"762 134 CURVE SMOOTH",
"762 216 OFFCURVE",
"732 290 OFFCURVE",
"720 360 CURVE SMOOTH",
"713 401 OFFCURVE",
"708 448 OFFCURVE",
"708 492 CURVE SMOOTH",
"708 561 OFFCURVE",
"721 622 OFFCURVE",
"765 637 CURVE",
"767 637 LINE SMOOTH",
"785 637 OFFCURVE",
"804 642 OFFCURVE",
"804 651 CURVE SMOOTH",
"804 657 OFFCURVE",
"795 659 OFFCURVE",
"790 660 CURVE SMOOTH",
"784 661 OFFCURVE",
"777 661 OFFCURVE",
"770 660 CURVE",
"676 667 OFFCURVE",
"582 675 OFFCURVE",
"488 675 CURVE SMOOTH",
"365 675 OFFCURVE",
"241 649 OFFCURVE",
"152 561 CURVE SMOOTH",
"110 519 OFFCURVE",
"78 466 OFFCURVE",
"78 408 CURVE SMOOTH",
"78 329 OFFCURVE",
"132 297 OFFCURVE",
"193 297 CURVE SMOOTH",
"215 297 OFFCURVE",
"238 301 OFFCURVE",
"259 309 CURVE SMOOTH",
"318 330 OFFCURVE",
"370 388 OFFCURVE",
"370 452 CURVE SMOOTH",
"370 479 OFFCURVE",
"361 515 OFFCURVE",
"332 518 CURVE SMOOTH",
"326 518 OFFCURVE",
"324 513 OFFCURVE",
"330 509 CURVE SMOOTH",
"337 505 OFFCURVE",
"342 491 OFFCURVE",
"343 479 CURVE SMOOTH",
"348 407 OFFCURVE",
"299 343 OFFCURVE",
"234 321 CURVE SMOOTH",
"217 315 OFFCURVE",
"200 312 OFFCURVE",
"184 312 CURVE SMOOTH",
"141 312 OFFCURVE",
"105 335 OFFCURVE",
"105 392 CURVE SMOOTH",
"105 443 OFFCURVE",
"138 498 OFFCURVE",
"183 539 CURVE SMOOTH",
"260 610 OFFCURVE",
"377 642 OFFCURVE",
"486 649 CURVE SMOOTH",
"511 651 OFFCURVE",
"537 651 OFFCURVE",
"564 651 CURVE SMOOTH",
"625 651 OFFCURVE",
"687 648 OFFCURVE",
"722 646 CURVE",
"658 614 OFFCURVE",
"597 536 OFFCURVE",
"563 489 CURVE SMOOTH",
"460 343 OFFCURVE",
"395 173 OFFCURVE",
"294 24 CURVE SMOOTH",
"250 -40 OFFCURVE",
"190 -112 OFFCURVE",
"109 -112 CURVE SMOOTH",
"98 -112 OFFCURVE",
"87 -111 OFFCURVE",
"75 -108 CURVE SMOOTH",
"56 -103 OFFCURVE",
"32 -82 OFFCURVE",
"37 -62 CURVE SMOOTH",
"39 -55 OFFCURVE",
"31 -57 OFFCURVE",
"27 -63 CURVE",
"21 -69 OFFCURVE",
"20 -75 OFFCURVE",
"20 -83 CURVE SMOOTH",
"20 -123 OFFCURVE",
"78 -128 OFFCURVE",
"101 -128 CURVE SMOOTH"
);
}
);
width = 839;
}
);
note = N;
unicode = 004E;
},
{
glyphname = O;
lastChange = "2021-05-06 18:21:58 +0000";
layers = (
{
anchors = (
{
name = bottom;
position = "{261, -72}";
},
{
name = center;
position = "{353, 375}";
},
{
name = ogonek;
position = "{266, -66}";
},
{
name = top;
position = "{547, 711}";
},
{
name = topleft;
position = "{20, 750}";
},
{
name = topright;
position = "{655, 646}";
}
);
layerId = "23C1765D-E8A9-427D-A2B9-D2B95394C525";
paths = (
{
closed = 1;
nodes = (
"476 -72 OFFCURVE",
"666 109 OFFCURVE",
"728 303 CURVE SMOOTH",
"741 345 OFFCURVE",
"749 388 OFFCURVE",
"749 430 CURVE SMOOTH",
"749 492 OFFCURVE",
"732 549 OFFCURVE",
"694 588 CURVE",
"696 596 OFFCURVE",
"697 603 OFFCURVE",
"697 610 CURVE SMOOTH",
"697 657 OFFCURVE",
"664 688 OFFCURVE",
"613 703 CURVE SMOOTH",
"593 708 OFFCURVE",
"571 711 OFFCURVE",
"547 711 CURVE SMOOTH",
"509 711 OFFCURVE",
"467 704 OFFCURVE",
"424 691 CURVE SMOOTH",
"241 632 OFFCURVE",
"83 458 OFFCURVE",
"30 274 CURVE SMOOTH",
"19 236 OFFCURVE",
"13 196 OFFCURVE",
"13 156 CURVE SMOOTH",
"13 141 OFFCURVE",
"14 125 OFFCURVE",
"16 110 CURVE SMOOTH",
"31 12 OFFCURVE",
"105 -72 OFFCURVE",
"261 -72 CURVE SMOOTH"
);
},
{
closed = 1;
nodes = (
"152 -59 OFFCURVE",
"100 9 OFFCURVE",
"86 85 CURVE SMOOTH",
"82 104 OFFCURVE",
"81 125 OFFCURVE",
"81 145 CURVE SMOOTH",
"81 231 OFFCURVE",
"109 325 OFFCURVE",
"144 389 CURVE SMOOTH",
"209 511 OFFCURVE",
"332 640 OFFCURVE",
"435 673 CURVE SMOOTH",
"473 685 OFFCURVE",
"508 690 OFFCURVE",
"538 690 CURVE SMOOTH",
"561 690 OFFCURVE",
"582 687 OFFCURVE",
"600 682 CURVE SMOOTH",
"639 670 OFFCURVE",
"667 646 OFFCURVE",
"669 609 CURVE",
"637 630 OFFCURVE",
"597 645 OFFCURVE",
"542 645 CURVE SMOOTH",
"467 645 OFFCURVE",
"383 615 OFFCURVE",
"315 556 CURVE SMOOTH",
"263 510 OFFCURVE",
"230 434 OFFCURVE",
"230 379 CURVE SMOOTH",
"230 347 OFFCURVE",
"241 322 OFFCURVE",
"265 313 CURVE SMOOTH",
"271 310 OFFCURVE",
"278 312 OFFCURVE",
"278 316 CURVE SMOOTH",
"278 319 OFFCURVE",
"276 322 OFFCURVE",
"270 325 CURVE SMOOTH",
"259 331 OFFCURVE",
"254 345 OFFCURVE",
"254 364 CURVE SMOOTH",
"254 416 OFFCURVE",
"293 503 OFFCURVE",
"352 551 CURVE SMOOTH",
"414 602 OFFCURVE",
"483 629 OFFCURVE",
"541 629 CURVE SMOOTH",
"599 629 OFFCURVE",
"639 608 OFFCURVE",
"664 573 CURVE",
"660 561 OFFCURVE",
"654 551 OFFCURVE",
"646 544 CURVE SMOOTH",
"641 540 OFFCURVE",
"640 535 OFFCURVE",
"645 535 CURVE SMOOTH",
"647 535 OFFCURVE",
"650 536 OFFCURVE",
"655 538 CURVE SMOOTH",
"663 541 OFFCURVE",
"670 547 OFFCURVE",
"676 554 CURVE",
"692 523 OFFCURVE",
"699 485 OFFCURVE",
"699 446 CURVE SMOOTH",
"699 408 OFFCURVE",
"693 369 OFFCURVE",
"682 332 CURVE SMOOTH",
"629 152 OFFCURVE",
"467 -54 OFFCURVE",
"265 -57 CURVE",
"262 -58 LINE"
);
}
);
width = 706;
}
);
note = O;
unicode = 004F;
},
{
glyphname = P;
lastChange = "2021-05-06 10:42:46 +0000";
layers = (
{
layerId = "23C1765D-E8A9-427D-A2B9-D2B95394C525";
paths = (
{
closed = 1;
nodes = (
"118 -91 OFFCURVE",
"151 -82 OFFCURVE",
"182 -67 CURVE SMOOTH",
"237 -39 OFFCURVE",
"282 8 OFFCURVE",
"318 59 CURVE SMOOTH",
"358 116 OFFCURVE",
"388 179 OFFCURVE",
"417 243 CURVE",
"418 243 OFFCURVE",
"419 242 OFFCURVE",
"421 242 CURVE",
"427 239 OFFCURVE",
"433 236 OFFCURVE",
"440 234 CURVE SMOOTH",
"473 224 OFFCURVE",
"508 218 OFFCURVE",
"544 218 CURVE SMOOTH",
"689 218 OFFCURVE",
"865 311 OFFCURVE",
"865 477 CURVE SMOOTH",
"865 549 OFFCURVE",
"825 619 OFFCURVE",
"726 661 CURVE SMOOTH",
"658 691 OFFCURVE",
"562 704 OFFCURVE",
"463 704 CURVE SMOOTH",
"319 704 OFFCURVE",
"156 655 OFFCURVE",
"90 556 CURVE SMOOTH",
"70 525 OFFCURVE",
"58 489 OFFCURVE",
"58 448 CURVE SMOOTH",
"58 368 OFFCURVE",
"122 336 OFFCURVE",
"186 336 CURVE SMOOTH",
"207 336 OFFCURVE",
"227 339 OFFCURVE",
"246 345 CURVE SMOOTH",
"249 346 OFFCURVE",
"251 349 OFFCURVE",
"251 351 CURVE SMOOTH",
"251 353 OFFCURVE",
"250 354 OFFCURVE",
"248 354 CURVE SMOOTH",
"248 354 OFFCURVE",
"247 354 OFFCURVE",
"246 354 CURVE",
"228 348 OFFCURVE",
"210 344 OFFCURVE",
"193 344 CURVE SMOOTH",
"151 344 OFFCURVE",
"114 365 OFFCURVE",
"102 402 CURVE SMOOTH",
"98 414 OFFCURVE",
"97 426 OFFCURVE",
"97 438 CURVE SMOOTH",
"97 493 OFFCURVE",
"129 553 OFFCURVE",
"164 587 CURVE SMOOTH",
"230 651 OFFCURVE",
"345 688 OFFCURVE",
"457 688 CURVE SMOOTH",
"554 688 OFFCURVE",
"648 669 OFFCURVE",
"714 627 CURVE SMOOTH",
"776 588 OFFCURVE",
"807 527 OFFCURVE",
"807 465 CURVE SMOOTH",
"807 323 OFFCURVE",
"665 235 OFFCURVE",
"536 235 CURVE SMOOTH",
"506 235 OFFCURVE",
"476 240 OFFCURVE",
"448 249 CURVE SMOOTH",
"439 252 OFFCURVE",
"432 255 OFFCURVE",
"426 258 CURVE",
"425 258 LINE",
"467 352 OFFCURVE",
"508 446 OFFCURVE",
"576 526 CURVE SMOOTH",
"614 571 OFFCURVE",
"652 593 OFFCURVE",
"685 593 CURVE SMOOTH",
"691 593 OFFCURVE",
"697 593 OFFCURVE",
"703 591 CURVE SMOOTH",
"708 589 OFFCURVE",
"711 598 OFFCURVE",
"706 599 CURVE SMOOTH",
"696 602 OFFCURVE",
"687 603 OFFCURVE",
"677 603 CURVE SMOOTH",
"658 603 OFFCURVE",
"637 597 OFFCURVE",
"616 586 CURVE SMOOTH",
"452 502 OFFCURVE",
"366 214 OFFCURVE",
"266 61 CURVE SMOOTH",
"224 -3 OFFCURVE",
"166 -75 OFFCURVE",
"86 -75 CURVE SMOOTH",
"75 -75 OFFCURVE",
"63 -73 OFFCURVE",
"50 -70 CURVE SMOOTH",
"31 -65 OFFCURVE",
"7 -44 OFFCURVE",
"11 -24 CURVE SMOOTH",
"13 -17 OFFCURVE",
"6 -18 OFFCURVE",
"1 -24 CURVE SMOOTH",
"-3 -29 OFFCURVE",
"-5 -37 OFFCURVE",
"-5 -44 CURVE SMOOTH",
"-5 -87 OFFCURVE",
"64 -91 OFFCURVE",
"84 -91 CURVE SMOOTH"
);
}
);
width = 767;
}
);
note = P;
unicode = 0050;
},
{
glyphname = Q;
lastChange = "2021-05-06 10:42:46 +0000";
layers = (
{
layerId = "23C1765D-E8A9-427D-A2B9-D2B95394C525";
paths = (
{
closed = 1;
nodes = (
"777 -345 OFFCURVE",
"843 -307 OFFCURVE",
"843 -221 CURVE SMOOTH",
"843 -177 OFFCURVE",
"822 -119 OFFCURVE",
"777 -88 CURVE SMOOTH",
"772 -84 OFFCURVE",
"766 -85 OFFCURVE",
"766 -89 CURVE SMOOTH",
"766 -90 OFFCURVE",
"767 -91 OFFCURVE",
"769 -93 CURVE SMOOTH",
"802 -120 OFFCURVE",
"827 -183 OFFCURVE",
"827 -223 CURVE SMOOTH",
"827 -282 OFFCURVE",
"792 -309 OFFCURVE",
"746 -309 CURVE SMOOTH",
"635 -309 OFFCURVE",
"507 -146 OFFCURVE",
"407 -44 CURVE",
"558 13 OFFCURVE",
"679 154 OFFCURVE",
"727 303 CURVE SMOOTH",
"740 345 OFFCURVE",
"748 390 OFFCURVE",
"748 432 CURVE SMOOTH",
"748 493 OFFCURVE",
"732 549 OFFCURVE",
"694 588 CURVE",
"696 596 OFFCURVE",
"697 603 OFFCURVE",
"697 610 CURVE SMOOTH",
"697 657 OFFCURVE",
"664 688 OFFCURVE",
"612 703 CURVE SMOOTH",
"592 709 OFFCURVE",
"569 711 OFFCURVE",
"545 711 CURVE SMOOTH",
"507 711 OFFCURVE",
"466 705 OFFCURVE",
"423 691 CURVE SMOOTH",
"241 633 OFFCURVE",
"82 458 OFFCURVE",
"29 274 CURVE SMOOTH",
"18 236 OFFCURVE",
"12 196 OFFCURVE",
"12 156 CURVE SMOOTH",
"12 141 OFFCURVE",
"13 125 OFFCURVE",
"15 110 CURVE SMOOTH",
"30 13 OFFCURVE",
"103 -72 OFFCURVE",
"259 -72 CURVE SMOOTH",
"294 -72 OFFCURVE",
"328 -68 OFFCURVE",
"362 -60 CURVE",
"459 -169 OFFCURVE",
"558 -345 OFFCURVE",
"706 -345 CURVE SMOOTH"
);
},
{
closed = 1;
nodes = (
"150 -57 OFFCURVE",
"98 10 OFFCURVE",
"84 86 CURVE SMOOTH",
"80 105 OFFCURVE",
"79 125 OFFCURVE",
"79 145 CURVE SMOOTH",
"79 230 OFFCURVE",
"108 324 OFFCURVE",
"143 389 CURVE SMOOTH",
"207 510 OFFCURVE",
"331 639 OFFCURVE",
"434 671 CURVE SMOOTH",
"473 684 OFFCURVE",
"510 690 OFFCURVE",
"542 690 CURVE SMOOTH",
"564 690 OFFCURVE",
"583 687 OFFCURVE",
"600 682 CURVE SMOOTH",
"639 671 OFFCURVE",
"666 646 OFFCURVE",
"669 609 CURVE",
"637 630 OFFCURVE",
"595 645 OFFCURVE",
"542 645 CURVE SMOOTH",
"467 645 OFFCURVE",
"382 615 OFFCURVE",
"315 556 CURVE SMOOTH",
"263 510 OFFCURVE",
"230 434 OFFCURVE",
"230 379 CURVE SMOOTH",
"230 347 OFFCURVE",
"241 322 OFFCURVE",
"265 313 CURVE SMOOTH",
"271 310 OFFCURVE",
"278 312 OFFCURVE",
"278 316 CURVE SMOOTH",
"278 319 OFFCURVE",
"275 322 OFFCURVE",
"269 325 CURVE SMOOTH",
"259 331 OFFCURVE",
"254 345 OFFCURVE",
"254 363 CURVE SMOOTH",
"254 415 OFFCURVE",
"293 503 OFFCURVE",
"352 551 CURVE SMOOTH",
"415 602 OFFCURVE",
"483 629 OFFCURVE",
"542 629 CURVE SMOOTH",
"600 629 OFFCURVE",
"639 606 OFFCURVE",
"664 573 CURVE",
"660 561 OFFCURVE",
"654 551 OFFCURVE",
"646 544 CURVE SMOOTH",
"641 540 OFFCURVE",
"640 535 OFFCURVE",
"645 535 CURVE SMOOTH",
"647 535 OFFCURVE",
"650 536 OFFCURVE",
"655 538 CURVE SMOOTH",
"663 541 OFFCURVE",
"670 547 OFFCURVE",
"675 553 CURVE",
"691 522 OFFCURVE",
"698 484 OFFCURVE",
"698 443 CURVE SMOOTH",
"698 407 OFFCURVE",
"692 368 OFFCURVE",
"682 332 CURVE SMOOTH",
"640 191 OFFCURVE",
"532 34 OFFCURVE",
"390 -28 CURVE",
"360 2 OFFCURVE",
"309 39 OFFCURVE",
"270 54 CURVE SMOOTH",
"250 62 OFFCURVE",
"231 67 OFFCURVE",
"213 67 CURVE SMOOTH",
"196 67 OFFCURVE",
"179 62 OFFCURVE",
"164 53 CURVE SMOOTH",
"158 49 OFFCURVE",
"159 43 OFFCURVE",
"165 43 CURVE SMOOTH",
"165 43 OFFCURVE",
"166 43 OFFCURVE",
"167 43 CURVE",
"176 47 OFFCURVE",
"185 49 OFFCURVE",
"194 49 CURVE SMOOTH",
"235 49 OFFCURVE",
"284 17 OFFCURVE",
"331 -28 CURVE SMOOTH",
"348 -44 LINE",
"320 -52 OFFCURVE",
"293 -57 OFFCURVE",
"265 -57 CURVE SMOOTH",
"261 -57 LINE SMOOTH"
);
}
);
width = 708;
}
);
note = Q;
unicode = 0051;
},
{
glyphname = R;
lastChange = "2021-05-06 10:50:30 +0000";
layers = (
{
anchors = (
{
name = bottom;
position = "{453, -64}";
},
{
name = top;
position = "{709, 684}";
}
);
layerId = "23C1765D-E8A9-427D-A2B9-D2B95394C525";
paths = (
{
closed = 1;
nodes = (
"889 -125 OFFCURVE",
"932 -100 OFFCURVE",
"955 -64 CURVE SMOOTH",
"971 -39 OFFCURVE",
"979 -11 OFFCURVE",
"979 17 CURVE SMOOTH",
"979 60 OFFCURVE",
"961 102 OFFCURVE",
"932 131 CURVE SMOOTH",
"926 136 OFFCURVE",
"919 140 OFFCURVE",
"915 140 CURVE SMOOTH",
"913 140 OFFCURVE",
"911 139 OFFCURVE",
"911 136 CURVE SMOOTH",
"911 134 OFFCURVE",
"913 131 OFFCURVE",
"916 126 CURVE SMOOTH",
"922 118 OFFCURVE",
"930 103 OFFCURVE",
"938 85 CURVE SMOOTH",
"948 61 OFFCURVE",
"958 28 OFFCURVE",
"958 -3 CURVE SMOOTH",
"958 -21 OFFCURVE",
"955 -37 OFFCURVE",
"947 -51 CURVE SMOOTH",
"934 -74 OFFCURVE",
"907 -94 OFFCURVE",
"873 -94 CURVE SMOOTH",
"797 -94 OFFCURVE",
"726 -11 OFFCURVE",
"682 47 CURVE SMOOTH",
"650 88 OFFCURVE",
"568 216 OFFCURVE",
"530 267 CURVE",
"555 260 OFFCURVE",
"583 257 OFFCURVE",
"611 257 CURVE SMOOTH",
"741 257 OFFCURVE",
"898 340 OFFCURVE",
"898 489 CURVE SMOOTH",
"898 554 OFFCURVE",
"862 618 OFFCURVE",
"773 656 CURVE SMOOTH",
"709 684 OFFCURVE",
"604 700 OFFCURVE",
"499 700 CURVE SMOOTH",
"350 700 OFFCURVE",
"176 655 OFFCURVE",
"107 552 CURVE SMOOTH",
"87 522 OFFCURVE",
"74 487 OFFCURVE",
"74 445 CURVE SMOOTH",
"74 366 OFFCURVE",
"137 332 OFFCURVE",
"202 332 CURVE SMOOTH",
"223 332 OFFCURVE",
"244 335 OFFCURVE",
"263 342 CURVE",
"266 343 OFFCURVE",
"269 346 OFFCURVE",
"269 349 CURVE SMOOTH",
"269 350 OFFCURVE",
"268 351 OFFCURVE",
"266 351 CURVE SMOOTH",
"265 351 OFFCURVE",
"264 350 OFFCURVE",
"263 350 CURVE SMOOTH",
"245 344 OFFCURVE",
"228 341 OFFCURVE",
"211 341 CURVE SMOOTH",
"168 341 OFFCURVE",
"131 361 OFFCURVE",
"119 398 CURVE SMOOTH",
"115 410 OFFCURVE",
"113 422 OFFCURVE",
"113 435 CURVE SMOOTH",
"113 489 OFFCURVE",
"146 549 OFFCURVE",
"181 584 CURVE SMOOTH",
"250 651 OFFCURVE",
"377 686 OFFCURVE",
"496 686 CURVE SMOOTH",
"598 686 OFFCURVE",
"702 665 OFFCURVE",
"763 626 CURVE SMOOTH",
"818 591 OFFCURVE",
"846 536 OFFCURVE",
"846 479 CURVE SMOOTH",
"846 351 OFFCURVE",
"717 272 OFFCURVE",
"602 272 CURVE SMOOTH",
"576 272 OFFCURVE",
"549 276 OFFCURVE",
"525 284 CURVE SMOOTH",
"518 286 OFFCURVE",
"512 289 OFFCURVE",
"506 292 CURVE SMOOTH",
"503 293 OFFCURVE",
"498 292 OFFCURVE",
"496 290 CURVE",
"496 289 OFFCURVE",
"495 289 OFFCURVE",
"495 289 CURVE",
"488 282 OFFCURVE",
"501 278 OFFCURVE",
"517 244 CURVE SMOOTH",
"546 184 OFFCURVE",
"599 63 OFFCURVE",
"625 23 CURVE SMOOTH",
"675 -53 OFFCURVE",
"739 -125 OFFCURVE",
"836 -125 CURVE SMOOTH"
);
},
{
closed = 1;
nodes = (
"118 -91 OFFCURVE",
"151 -82 OFFCURVE",
"182 -67 CURVE SMOOTH",
"237 -39 OFFCURVE",
"282 8 OFFCURVE",
"318 59 CURVE SMOOTH",
"421 205 OFFCURVE",
"458 388 OFFCURVE",
"576 526 CURVE SMOOTH",
"614 571 OFFCURVE",
"652 593 OFFCURVE",
"685 593 CURVE SMOOTH",
"691 593 OFFCURVE",
"697 593 OFFCURVE",
"703 591 CURVE SMOOTH",
"708 589 OFFCURVE",
"711 598 OFFCURVE",
"706 599 CURVE SMOOTH",
"696 602 OFFCURVE",
"687 603 OFFCURVE",
"677 603 CURVE SMOOTH",
"658 603 OFFCURVE",
"637 597 OFFCURVE",
"616 586 CURVE SMOOTH",
"452 502 OFFCURVE",
"366 214 OFFCURVE",
"266 61 CURVE SMOOTH",
"224 -3 OFFCURVE",
"166 -75 OFFCURVE",
"86 -75 CURVE SMOOTH",
"75 -75 OFFCURVE",
"63 -73 OFFCURVE",
"50 -70 CURVE SMOOTH",
"31 -65 OFFCURVE",
"7 -44 OFFCURVE",
"11 -24 CURVE SMOOTH",
"13 -17 OFFCURVE",
"6 -18 OFFCURVE",
"1 -24 CURVE SMOOTH",
"-3 -29 OFFCURVE",
"-5 -37 OFFCURVE",
"-5 -44 CURVE SMOOTH",
"-5 -89 OFFCURVE",
"64 -91 OFFCURVE",
"84 -91 CURVE SMOOTH"
);
}
);
width = 931;
}
);
note = R;
unicode = 0052;
},
{
glyphname = S;
lastChange = "2021-05-06 10:50:43 +0000";
layers = (
{
anchors = (
{
name = bottom;
position = "{292, -94}";
},
{
name = top;
position = "{691, 726}";
}
);
layerId = "23C1765D-E8A9-427D-A2B9-D2B95394C525";
paths = (
{
closed = 1;
nodes = (
"511 -102 OFFCURVE",
"684 36 OFFCURVE",
"684 229 CURVE SMOOTH",
"684 283 OFFCURVE",
"671 337 OFFCURVE",
"644 388 CURVE SMOOTH",
"616 443 OFFCURVE",
"574 508 OFFCURVE",
"574 576 CURVE SMOOTH",
"574 601 OFFCURVE",
"580 626 OFFCURVE",
"594 652 CURVE SMOOTH",
"611 684 OFFCURVE",
"651 707 OFFCURVE",
"689 707 CURVE SMOOTH",
"720 707 OFFCURVE",
"741 690 OFFCURVE",
"741 657 CURVE",
"738 637 LINE",
"740 636 OFFCURVE",
"743 636 OFFCURVE",
"746 636 CURVE SMOOTH",
"760 636 OFFCURVE",
"777 645 OFFCURVE",
"777 666 CURVE SMOOTH",
"776 711 OFFCURVE",
"729 726 OFFCURVE",
"691 726 CURVE SMOOTH",
"622 726 OFFCURVE",
"568 686 OFFCURVE",
"542 626 CURVE SMOOTH",
"532 601 OFFCURVE",
"527 577 OFFCURVE",
"527 552 CURVE SMOOTH",
"527 470 OFFCURVE",
"577 390 OFFCURVE",
"599 320 CURVE SMOOTH",
"609 289 OFFCURVE",
"610 256 OFFCURVE",
"610 222 CURVE SMOOTH",
"610 60 OFFCURVE",
"484 -82 OFFCURVE",
"294 -82 CURVE SMOOTH",
"166 -82 OFFCURVE",
"108 -7 OFFCURVE",
"108 82 CURVE SMOOTH",
"108 133 OFFCURVE",
"127 189 OFFCURVE",
"163 239 CURVE SMOOTH",
"219 316 OFFCURVE",
"313 385 OFFCURVE",
"411 385 CURVE SMOOTH",
"460 385 OFFCURVE",
"482 360 OFFCURVE",
"482 328 CURVE SMOOTH",
"482 306 OFFCURVE",
"472 281 OFFCURVE",
"454 256 CURVE SMOOTH",
"405 190 OFFCURVE",
"293 132 OFFCURVE",
"212 138 CURVE SMOOTH",
"206 139 OFFCURVE",
"205 130 OFFCURVE",
"211 129 CURVE SMOOTH",
"220 128 OFFCURVE",
"228 127 OFFCURVE",
"237 127 CURVE SMOOTH",
"320 127 OFFCURVE",
"414 173 OFFCURVE",
"466 240 CURVE SMOOTH",
"491 271 OFFCURVE",
"503 302 OFFCURVE",
"503 328 CURVE SMOOTH",
"503 371 OFFCURVE",
"471 401 OFFCURVE",
"403 401 CURVE SMOOTH",
"300 401 OFFCURVE",
"189 333 OFFCURVE",
"130 251 CURVE SMOOTH",
"91 196 OFFCURVE",
"72 139 OFFCURVE",
"72 86 CURVE SMOOTH",
"72 -18 OFFCURVE",
"148 -102 OFFCURVE",
"299 -102 CURVE SMOOTH"
);
}
);
width = 655;
}
);
note = S;
unicode = 0053;
},
{
glyphname = T;
lastChange = "2021-05-06 10:50:57 +0000";
layers = (
{
anchors = (
{
name = bottom;
position = "{121, -99}";
},
{
name = center;
position = "{293, 375}";
},
{
name = top;
position = "{684, 616}";
}
);
layerId = "23C1765D-E8A9-427D-A2B9-D2B95394C525";
paths = (
{
closed = 1;
nodes = (
"77 -96 OFFCURVE",
"98 -99 OFFCURVE",
"121 -99 CURVE SMOOTH",
"147 -99 OFFCURVE",
"175 -95 OFFCURVE",
"195 -88 CURVE SMOOTH",
"269 -62 OFFCURVE",
"327 -7 OFFCURVE",
"374 59 CURVE SMOOTH",
"477 205 OFFCURVE",
"514 388 OFFCURVE",
"632 526 CURVE SMOOTH",
"655 553 OFFCURVE",
"679 573 OFFCURVE",
"701 583 CURVE",
"713 582 OFFCURVE",
"725 582 OFFCURVE",
"736 582 CURVE SMOOTH",
"749 582 OFFCURVE",
"762 582 OFFCURVE",
"773 584 CURVE SMOOTH",
"800 588 OFFCURVE",
"832 602 OFFCURVE",
"840 630 CURVE SMOOTH",
"841 633 OFFCURVE",
"841 636 OFFCURVE",
"841 640 CURVE SMOOTH",
"841 646 OFFCURVE",
"840 652 OFFCURVE",
"838 655 CURVE SMOOTH",
"836 659 OFFCURVE",
"833 661 OFFCURVE",
"831 661 CURVE SMOOTH",
"830 661 OFFCURVE",
"828 660 OFFCURVE",
"827 659 CURVE SMOOTH",
"825 657 OFFCURVE",
"827 650 OFFCURVE",
"827 644 CURVE SMOOTH",
"827 639 OFFCURVE",
"825 632 OFFCURVE",
"823 629 CURVE SMOOTH",
"808 606 OFFCURVE",
"779 601 OFFCURVE",
"753 601 CURVE SMOOTH",
"708 601 OFFCURVE",
"653 615 OFFCURVE",
"617 625 CURVE SMOOTH",
"581 635 OFFCURVE",
"546 644 OFFCURVE",
"512 652 CURVE SMOOTH",
"452 666 OFFCURVE",
"393 675 OFFCURVE",
"336 675 CURVE SMOOTH",
"267 675 OFFCURVE",
"200 662 OFFCURVE",
"133 626 CURVE SMOOTH",
"93 605 OFFCURVE",
"49 566 OFFCURVE",
"26 517 CURVE SMOOTH",
"13 489 OFFCURVE",
"5 458 OFFCURVE",
"5 429 CURVE SMOOTH",
"5 385 OFFCURVE",
"23 345 OFFCURVE",
"65 325 CURVE SMOOTH",
"79 319 OFFCURVE",
"94 316 OFFCURVE",
"109 316 CURVE SMOOTH",
"147 316 OFFCURVE",
"187 334 OFFCURVE",
"208 370 CURVE SMOOTH",
"222 392 OFFCURVE",
"229 421 OFFCURVE",
"229 448 CURVE SMOOTH",
"229 456 OFFCURVE",
"228 464 OFFCURVE",
"227 472 CURVE SMOOTH",
"224 488 OFFCURVE",
"216 510 OFFCURVE",
"209 520 CURVE SMOOTH",
"207 523 OFFCURVE",
"204 525 OFFCURVE",
"202 525 CURVE SMOOTH",
"200 525 OFFCURVE",
"199 524 OFFCURVE",
"199 522 CURVE SMOOTH",
"199 521 OFFCURVE",
"200 520 OFFCURVE",
"201 518 CURVE",
"210 504 OFFCURVE",
"213 486 OFFCURVE",
"213 468 CURVE SMOOTH",
"213 433 OFFCURVE",
"201 396 OFFCURVE",
"190 379 CURVE SMOOTH",
"167 344 OFFCURVE",
"134 326 OFFCURVE",
"105 326 CURVE SMOOTH",
"92 326 OFFCURVE",
"80 330 OFFCURVE",
"70 336 CURVE SMOOTH",
"50 349 OFFCURVE",
"36 375 OFFCURVE",
"36 413 CURVE SMOOTH",
"36 503 OFFCURVE",
"101 563 OFFCURVE",
"178 598 CURVE SMOOTH",
"222 618 OFFCURVE",
"302 626 OFFCURVE",
"376 626 CURVE SMOOTH",
"417 626 OFFCURVE",
"456 624 OFFCURVE",
"485 619 CURVE SMOOTH",
"532 611 OFFCURVE",
"607 594 OFFCURVE",
"672 586 CURVE",
"508 502 OFFCURVE",
"423 216 OFFCURVE",
"322 63 CURVE SMOOTH",
"281 0 OFFCURVE",
"232 -54 OFFCURVE",
"184 -70 CURVE SMOOTH",
"168 -76 OFFCURVE",
"148 -79 OFFCURVE",
"129 -79 CURVE SMOOTH",
"119 -79 OFFCURVE",
"109 -78 OFFCURVE",
"99 -76 CURVE SMOOTH",
"80 -71 OFFCURVE",
"50 -51 OFFCURVE",
"54 -31 CURVE SMOOTH",
"56 -24 OFFCURVE",
"48 -26 OFFCURVE",
"44 -31 CURVE SMOOTH",
"40 -36 OFFCURVE",
"38 -42 OFFCURVE",
"38 -49 CURVE SMOOTH",
"38 -64 OFFCURVE",
"47 -80 OFFCURVE",
"63 -88 CURVE SMOOTH"
);
}
);
width = 586;
}
);
note = T;
unicode = 0054;
},
{
glyphname = U;
lastChange = "2021-05-06 18:21:48 +0000";
layers = (
{
anchors = (
{
name = bottom;
position = "{340, -43}";
},
{
name = ogonek;
position = "{717, -35}";
},
{
name = top;
position = "{730, 711}";
},
{
name = topright;
position = "{1043, 701}";
}
);
layerId = "23C1765D-E8A9-427D-A2B9-D2B95394C525";
paths = (
{
closed = 1;
nodes = (
"789 -51 OFFCURVE",
"862 94 OFFCURVE",
"894 152 CURVE SMOOTH",
"898 159 OFFCURVE",
"896 163 OFFCURVE",
"893 163 CURVE SMOOTH",
"889 163 OFFCURVE",
"883 159 OFFCURVE",
"879 151 CURVE SMOOTH",
"854 104 OFFCURVE",
"785 -18 OFFCURVE",
"728 -18 CURVE SMOOTH",
"701 -18 OFFCURVE",
"695 7 OFFCURVE",
"695 33 CURVE SMOOTH",
"695 51 OFFCURVE",
"698 69 OFFCURVE",
"699 79 CURVE SMOOTH",
"730 281 OFFCURVE",
"903 622 OFFCURVE",
"1025 674 CURVE SMOOTH",
"1035 678 OFFCURVE",
"1047 681 OFFCURVE",
"1060 681 CURVE SMOOTH",
"1090 681 OFFCURVE",
"1123 668 OFFCURVE",
"1131 632 CURVE",
"1133 625 OFFCURVE",
"1139 628 OFFCURVE",
"1139 638 CURVE SMOOTH",
"1139 641 OFFCURVE",
"1139 644 OFFCURVE",
"1138 647 CURVE SMOOTH",
"1129 687 OFFCURVE",
"1103 701 OFFCURVE",
"1074 701 CURVE SMOOTH",
"1054 701 OFFCURVE",
"1031 694 OFFCURVE",
"1011 684 CURVE SMOOTH",
"936 647 OFFCURVE",
"870 568 OFFCURVE",
"812 479 CURVE SMOOTH",
"745 378 OFFCURVE",
"683 275 OFFCURVE",
"617 175 CURVE SMOOTH",
"573 108 OFFCURVE",
"507 41 OFFCURVE",
"455 9 CURVE SMOOTH",
"422 -11 OFFCURVE",
"381 -29 OFFCURVE",
"347 -29 CURVE SMOOTH",
"312 -29 OFFCURVE",
"284 -10 OFFCURVE",
"280 47 CURVE SMOOTH",
"275 134 OFFCURVE",
"358 269 OFFCURVE",
"420 374 CURVE SMOOTH",
"458 437 OFFCURVE",
"505 533 OFFCURVE",
"505 608 CURVE SMOOTH",
"505 633 OFFCURVE",
"499 656 OFFCURVE",
"487 674 CURVE SMOOTH",
"461 711 OFFCURVE",
"421 725 OFFCURVE",
"375 725 CURVE SMOOTH",
"282 725 OFFCURVE",
"166 665 OFFCURVE",
"110 598 CURVE SMOOTH",
"71 550 OFFCURVE",
"49 497 OFFCURVE",
"49 452 CURVE SMOOTH",
"49 398 OFFCURVE",
"80 355 OFFCURVE",
"149 344 CURVE SMOOTH",
"161 342 OFFCURVE",
"174 341 OFFCURVE",
"186 341 CURVE SMOOTH",
"213 341 OFFCURVE",
"237 345 OFFCURVE",
"249 351 CURVE SMOOTH",
"254 354 OFFCURVE",
"252 361 OFFCURVE",
"248 361 CURVE SMOOTH",
"247 361 OFFCURVE",
"246 361 OFFCURVE",
"245 360 CURVE",
"234 356 OFFCURVE",
"216 353 OFFCURVE",
"196 353 CURVE SMOOTH",
"184 353 OFFCURVE",
"170 354 OFFCURVE",
"158 357 CURVE SMOOTH",
"106 370 OFFCURVE",
"84 404 OFFCURVE",
"84 445 CURVE SMOOTH",
"84 487 OFFCURVE",
"107 538 OFFCURVE",
"142 584 CURVE SMOOTH",
"193 651 OFFCURVE",
"293 712 OFFCURVE",
"381 712 CURVE SMOOTH",
"429 712 OFFCURVE",
"470 689 OFFCURVE",
"470 623 CURVE SMOOTH",
"470 549 OFFCURVE",
"413 447 OFFCURVE",
"381 397 CURVE SMOOTH",
"321 303 OFFCURVE",
"252 211 OFFCURVE",
"234 100 CURVE SMOOTH",
"232 89 OFFCURVE",
"231 78 OFFCURVE",
"231 67 CURVE SMOOTH",
"231 29 OFFCURVE",
"243 -7 OFFCURVE",
"277 -28 CURVE SMOOTH",
"294 -38 OFFCURVE",
"315 -43 OFFCURVE",
"340 -43 CURVE SMOOTH",
"377 -43 OFFCURVE",
"421 -31 OFFCURVE",
"468 -4 CURVE SMOOTH",
"558 47 OFFCURVE",
"637 161 OFFCURVE",
"702 269 CURVE",
"669 190 OFFCURVE",
"637 110 OFFCURVE",
"637 37 CURVE SMOOTH",
"637 -9 OFFCURVE",
"651 -51 OFFCURVE",
"707 -51 CURVE SMOOTH"
);
}
);
width = 807;
}
);
note = U;
unicode = 0055;
},
{
glyphname = V;
lastChange = "2021-05-06 10:42:46 +0000";
layers = (
{
layerId = "23C1765D-E8A9-427D-A2B9-D2B95394C525";
paths = (
{
closed = 1;
nodes = (
"359 -44 OFFCURVE",
"441 45 OFFCURVE",
"520 156 CURVE SMOOTH",
"562 215 OFFCURVE",
"602 276 OFFCURVE",
"642 337 CURVE SMOOTH",
"698 423 OFFCURVE",
"756 509 OFFCURVE",
"818 570 CURVE SMOOTH",
"887 639 OFFCURVE",
"941 667 OFFCURVE",
"978 667 CURVE SMOOTH",
"1004 667 OFFCURVE",
"1021 652 OFFCURVE",
"1028 628 CURVE SMOOTH",
"1030 620 OFFCURVE",
"1033 618 OFFCURVE",
"1035 618 CURVE SMOOTH",
"1038 618 OFFCURVE",
"1040 621 OFFCURVE",
"1040 626 CURVE SMOOTH",
"1040 628 OFFCURVE",
"1040 630 OFFCURVE",
"1039 632 CURVE SMOOTH",
"1026 672 OFFCURVE",
"992 696 OFFCURVE",
"947 696 CURVE SMOOTH",
"896 696 OFFCURVE",
"832 666 OFFCURVE",
"768 594 CURVE SMOOTH",
"714 533 OFFCURVE",
"665 456 OFFCURVE",
"618 377 CURVE SMOOTH",
"567 290 OFFCURVE",
"436 29 OFFCURVE",
"354 0 CURVE",
"414 53 OFFCURVE",
"440 120 OFFCURVE",
"452 190 CURVE SMOOTH",
"469 288 OFFCURVE",
"445 453 OFFCURVE",
"490 535 CURVE SMOOTH",
"514 578 OFFCURVE",
"536 609 OFFCURVE",
"577 609 CURVE SMOOTH",
"580 609 OFFCURVE",
"582 610 OFFCURVE",
"583 612 CURVE",
"586 614 OFFCURVE",
"586 618 OFFCURVE",
"581 622 CURVE SMOOTH",
"535 656 OFFCURVE",
"464 673 OFFCURVE",
"407 673 CURVE SMOOTH",
"348 673 OFFCURVE",
"286 663 OFFCURVE",
"227 638 CURVE SMOOTH",
"125 595 OFFCURVE",
"27 495 OFFCURVE",
"27 378 CURVE SMOOTH",
"27 339 OFFCURVE",
"39 298 OFFCURVE",
"75 280 CURVE SMOOTH",
"91 272 OFFCURVE",
"110 268 OFFCURVE",
"129 268 CURVE SMOOTH",
"147 268 OFFCURVE",
"164 271 OFFCURVE",
"178 278 CURVE SMOOTH",
"186 281 OFFCURVE",
"189 285 OFFCURVE",
"189 288 CURVE SMOOTH",
"189 290 OFFCURVE",
"187 291 OFFCURVE",
"184 291 CURVE SMOOTH",
"182 291 OFFCURVE",
"180 291 OFFCURVE",
"177 290 CURVE SMOOTH",
"166 286 OFFCURVE",
"151 283 OFFCURVE",
"136 283 CURVE SMOOTH",
"120 283 OFFCURVE",
"104 286 OFFCURVE",
"93 293 CURVE SMOOTH",
"70 308 OFFCURVE",
"61 337 OFFCURVE",
"63 369 CURVE SMOOTH",
"70 465 OFFCURVE",
"147 562 OFFCURVE",
"231 609 CURVE SMOOTH",
"285 638 OFFCURVE",
"347 656 OFFCURVE",
"408 656 CURVE SMOOTH",
"463 656 OFFCURVE",
"526 639 OFFCURVE",
"563 620 CURVE",
"555 618 OFFCURVE",
"545 614 OFFCURVE",
"533 607 CURVE SMOOTH",
"492 585 OFFCURVE",
"451 524 OFFCURVE",
"437 482 CURVE SMOOTH",
"427 454 OFFCURVE",
"421 422 OFFCURVE",
"416 388 CURVE SMOOTH",
"407 324 OFFCURVE",
"404 259 OFFCURVE",
"394 195 CURVE SMOOTH",
"379 103 OFFCURVE",
"352 14 OFFCURVE",
"289 -29 CURVE SMOOTH",
"283 -33 OFFCURVE",
"285 -40 OFFCURVE",
"292 -40 CURVE SMOOTH"
);
}
);
width = 607;
}
);
note = V;
unicode = 0056;
},
{
glyphname = W;
lastChange = "2021-05-06 10:51:29 +0000";
layers = (
{
anchors = (
{
name = bottom;
position = "{453, -53}";
},
{
name = top;
position = "{804, 689}";
}
);
layerId = "23C1765D-E8A9-427D-A2B9-D2B95394C525";
paths = (
{
closed = 1;
nodes = (
"327 -43 OFFCURVE",
"360 -25 OFFCURVE",
"394 3 CURVE SMOOTH",
"410 16 LINE",
"454 59 OFFCURVE",
"499 124 OFFCURVE",
"542 194 CURVE SMOOTH",
"596 280 OFFCURVE",
"750 585 OFFCURVE",
"845 605 CURVE",
"765 575 OFFCURVE",
"732 462 OFFCURVE",
"722 388 CURVE SMOOTH",
"704 264 OFFCURVE",
"705 46 OFFCURVE",
"595 -29 CURVE SMOOTH",
"588 -34 OFFCURVE",
"591 -40 OFFCURVE",
"598 -40 CURVE SMOOTH",
"817 -53 OFFCURVE",
"982 629 OFFCURVE",
"1262 687 CURVE SMOOTH",
"1272 689 OFFCURVE",
"1281 690 OFFCURVE",
"1290 690 CURVE SMOOTH",
"1303 690 OFFCURVE",
"1314 688 OFFCURVE",
"1322 681 CURVE SMOOTH",
"1326 677 OFFCURVE",
"1330 679 OFFCURVE",
"1330 683 CURVE SMOOTH",
"1330 684 OFFCURVE",
"1330 686 OFFCURVE",
"1328 688 CURVE SMOOTH",
"1311 710 OFFCURVE",
"1285 722 OFFCURVE",
"1254 722 CURVE SMOOTH",
"1204 722 OFFCURVE",
"1132 698 OFFCURVE",
"1074 620 CURVE SMOOTH",
"919 410 OFFCURVE",
"772 40 OFFCURVE",
"660 0 CURVE",
"828 150 OFFCURVE",
"731 418 OFFCURVE",
"796 535 CURVE SMOOTH",
"820 578 OFFCURVE",
"842 609 OFFCURVE",
"883 609 CURVE SMOOTH",
"888 609 OFFCURVE",
"890 612 OFFCURVE",
"890 616 CURVE SMOOTH",
"890 619 OFFCURVE",
"888 622 OFFCURVE",
"883 622 CURVE SMOOTH",
"853 624 OFFCURVE",
"828 617 OFFCURVE",
"772 577 CURVE SMOOTH",
"722 541 OFFCURVE",
"641 394 OFFCURVE",
"558 257 CURVE SMOOTH",
"514 185 OFFCURVE",
"446 71 OFFCURVE",
"387 20 CURVE",
"381 16 OFFCURVE",
"377 17 OFFCURVE",
"377 20 CURVE SMOOTH",
"377 21 OFFCURVE",
"377 22 OFFCURVE",
"378 23 CURVE",
"464 120 OFFCURVE",
"462 255 OFFCURVE",
"465 400 CURVE SMOOTH",
"467 465 OFFCURVE",
"490 609 OFFCURVE",
"578 609 CURVE SMOOTH",
"582 609 OFFCURVE",
"585 612 OFFCURVE",
"585 615 CURVE SMOOTH",
"585 615 OFFCURVE",
"585 616 OFFCURVE",
"585 616 CURVE",
"585 618 OFFCURVE",
"584 620 OFFCURVE",
"581 622 CURVE SMOOTH",
"535 656 OFFCURVE",
"464 673 OFFCURVE",
"407 673 CURVE SMOOTH",
"348 673 OFFCURVE",
"286 663 OFFCURVE",
"227 638 CURVE SMOOTH",
"125 595 OFFCURVE",
"27 495 OFFCURVE",
"27 378 CURVE SMOOTH",
"27 339 OFFCURVE",
"39 298 OFFCURVE",
"75 280 CURVE SMOOTH",
"91 272 OFFCURVE",
"110 268 OFFCURVE",
"129 268 CURVE SMOOTH",
"147 268 OFFCURVE",
"164 271 OFFCURVE",
"178 278 CURVE SMOOTH",
"186 281 OFFCURVE",
"189 285 OFFCURVE",
"189 288 CURVE SMOOTH",
"189 290 OFFCURVE",
"187 291 OFFCURVE",
"184 291 CURVE SMOOTH",
"182 291 OFFCURVE",
"180 291 OFFCURVE",
"177 290 CURVE SMOOTH",
"166 286 OFFCURVE",
"151 283 OFFCURVE",
"136 283 CURVE SMOOTH",
"120 283 OFFCURVE",
"104 286 OFFCURVE",
"93 293 CURVE SMOOTH",
"70 308 OFFCURVE",
"61 337 OFFCURVE",
"63 369 CURVE SMOOTH",
"70 465 OFFCURVE",
"147 562 OFFCURVE",
"231 609 CURVE SMOOTH",
"284 638 OFFCURVE",
"347 656 OFFCURVE",
"408 656 CURVE SMOOTH",
"465 656 OFFCURVE",
"529 638 OFFCURVE",
"566 618 CURVE",
"556 615 OFFCURVE",
"541 609 OFFCURVE",
"522 596 CURVE SMOOTH",
"492 576 OFFCURVE",
"467 541 OFFCURVE",
"453 516 CURVE SMOOTH",
"438 489 OFFCURVE",
"429 457 OFFCURVE",
"422 423 CURVE SMOOTH",
"399 304 OFFCURVE",
"409 142 OFFCURVE",
"350 39 CURVE SMOOTH",
"339 20 LINE SMOOTH",
"328 1 OFFCURVE",
"309 -15 OFFCURVE",
"290 -29 CURVE SMOOTH",
"284 -33 OFFCURVE",
"286 -40 OFFCURVE",
"293 -40 CURVE SMOOTH"
);
}
);
width = 880;
}
);
note = W;
unicode = 0057;
},
{
glyphname = X;
lastChange = "2021-05-06 10:42:46 +0000";
layers = (
{
layerId = "23C1765D-E8A9-427D-A2B9-D2B95394C525";
paths = (
{
closed = 1;
nodes = (
"661 -118 OFFCURVE",
"717 -29 OFFCURVE",
"760 -26 CURVE",
"764 -25 OFFCURVE",
"767 -20 OFFCURVE",
"767 -15 CURVE SMOOTH",
"767 -11 OFFCURVE",
"764 -7 OFFCURVE",
"758 -7 CURVE SMOOTH",
"756 -7 OFFCURVE",
"753 -7 OFFCURVE",
"749 -9 CURVE SMOOTH",
"722 -22 OFFCURVE",
"690 -58 OFFCURVE",
"672 -82 CURVE",
"682 -52 OFFCURVE",
"686 -18 OFFCURVE",
"686 11 CURVE SMOOTH",
"686 25 OFFCURVE",
"686 37 OFFCURVE",
"684 48 CURVE SMOOTH",
"674 116 OFFCURVE",
"639 231 OFFCURVE",
"612 314 CURVE",
"692 435 OFFCURVE",
"770 557 OFFCURVE",
"884 654 CURVE SMOOTH",
"938 701 OFFCURVE",
"987 720 OFFCURVE",
"1025 720 CURVE SMOOTH",
"1035 720 OFFCURVE",
"1044 719 OFFCURVE",
"1053 716 CURVE SMOOTH",
"1057 715 OFFCURVE",
"1061 719 OFFCURVE",
"1061 722 CURVE SMOOTH",
"1061 723 OFFCURVE",
"1061 724 OFFCURVE",
"1059 725 CURVE SMOOTH",
"1048 728 OFFCURVE",
"1036 730 OFFCURVE",
"1023 730 CURVE SMOOTH",
"1000 730 OFFCURVE",
"975 725 OFFCURVE",
"948 713 CURVE SMOOTH",
"899 693 OFFCURVE",
"864 673 OFFCURVE",
"818 626 CURVE SMOOTH",
"729 537 OFFCURVE",
"667 445 OFFCURVE",
"601 347 CURVE",
"587 386 LINE SMOOTH",
"565 448 OFFCURVE",
"544 522 OFFCURVE",
"544 579 CURVE SMOOTH",
"544 619 OFFCURVE",
"554 651 OFFCURVE",
"581 664 CURVE",
"581 664 OFFCURVE",
"582 664 OFFCURVE",
"583 665 CURVE",
"589 665 LINE SMOOTH",
"603 665 OFFCURVE",
"614 669 OFFCURVE",
"614 672 CURVE SMOOTH",
"614 675 OFFCURVE",
"608 677 OFFCURVE",
"595 677 CURVE SMOOTH",
"554 679 OFFCURVE",
"513 679 OFFCURVE",
"472 679 CURVE SMOOTH",
"349 678 OFFCURVE",
"224 652 OFFCURVE",
"131 563 CURVE SMOOTH",
"85 519 OFFCURVE",
"49 461 OFFCURVE",
"49 400 CURVE SMOOTH",
"49 329 OFFCURVE",
"99 299 OFFCURVE",
"157 299 CURVE SMOOTH",
"179 299 OFFCURVE",
"203 304 OFFCURVE",
"226 312 CURVE SMOOTH",
"286 334 OFFCURVE",
"344 393 OFFCURVE",
"344 460 CURVE SMOOTH",
"344 485 OFFCURVE",
"336 518 OFFCURVE",
"309 521 CURVE SMOOTH",
"302 522 OFFCURVE",
"300 515 OFFCURVE",
"306 512 CURVE SMOOTH",
"314 507 OFFCURVE",
"317 489 OFFCURVE",
"317 476 CURVE SMOOTH",
"317 408 OFFCURVE",
"265 345 OFFCURVE",
"201 323 CURVE SMOOTH",
"184 317 OFFCURVE",
"167 314 OFFCURVE",
"150 314 CURVE SMOOTH",
"110 314 OFFCURVE",
"76 334 OFFCURVE",
"76 388 CURVE SMOOTH",
"76 440 OFFCURVE",
"112 497 OFFCURVE",
"160 541 CURVE SMOOTH",
"241 613 OFFCURVE",
"359 653 OFFCURVE",
"467 660 CURVE SMOOTH",
"494 662 OFFCURVE",
"528 664 OFFCURVE",
"564 665 CURVE",
"519 633 OFFCURVE",
"504 584 OFFCURVE",
"504 532 CURVE SMOOTH",
"504 483 OFFCURVE",
"517 432 OFFCURVE",
"530 390 CURVE SMOOTH",
"561 290 LINE",
"524 237 OFFCURVE",
"484 183 OFFCURVE",
"438 128 CURVE SMOOTH",
"335 8 OFFCURVE",
"232 -60 OFFCURVE",
"140 -60 CURVE SMOOTH",
"82 -60 OFFCURVE",
"45 -13 OFFCURVE",
"45 46 CURVE SMOOTH",
"45 84 OFFCURVE",
"66 136 OFFCURVE",
"109 170 CURVE SMOOTH",
"118 177 OFFCURVE",
"112 178 OFFCURVE",
"106 176 CURVE SMOOTH",
"52 153 OFFCURVE",
"13 90 OFFCURVE",
"13 35 CURVE SMOOTH",
"13 -27 OFFCURVE",
"57 -75 OFFCURVE",
"122 -77 CURVE SMOOTH",
"325 -83 OFFCURVE",
"473 112 OFFCURVE",
"572 255 CURVE",
"598 168 OFFCURVE",
"626 71 OFFCURVE",
"635 16 CURVE SMOOTH",
"639 -8 OFFCURVE",
"641 -31 OFFCURVE",
"641 -52 CURVE SMOOTH",
"641 -89 OFFCURVE",
"634 -123 OFFCURVE",
"618 -148 CURVE SMOOTH",
"615 -152 OFFCURVE",
"617 -159 OFFCURVE",
"622 -159 CURVE SMOOTH",
"625 -159 OFFCURVE",
"628 -158 OFFCURVE",
"631 -154 CURVE SMOOTH"
);
}
);
width = 712;
}
);
note = X;
unicode = 0058;
},
{
glyphname = Y;
lastChange = "2021-05-06 10:51:38 +0000";
layers = (
{
anchors = (
{
name = bottom;
position = "{699, 0}";
},
{
name = top;
position = "{679, 686}";
},
{
name = topleft;
position = "{20, 750}";
}
);
layerId = "23C1765D-E8A9-427D-A2B9-D2B95394C525";
paths = (
{
closed = 1;
nodes = (
"415 -325 OFFCURVE",
"507 -241 OFFCURVE",
"581 -119 CURVE SMOOTH",
"685 55 OFFCURVE",
"717 231 OFFCURVE",
"779 405 CURVE SMOOTH",
"805 478 OFFCURVE",
"853 600 OFFCURVE",
"942 603 CURVE SMOOTH",
"960 603 OFFCURVE",
"970 615 OFFCURVE",
"970 626 CURVE SMOOTH",
"970 637 OFFCURVE",
"960 648 OFFCURVE",
"941 648 CURVE SMOOTH",
"938 648 OFFCURVE",
"934 648 OFFCURVE",
"930 647 CURVE SMOOTH",
"858 631 OFFCURVE",
"799 528 OFFCURVE",
"759 439 CURVE SMOOTH",
"688 282 OFFCURVE",
"503 -29 OFFCURVE",
"348 -29 CURVE SMOOTH",
"309 -29 OFFCURVE",
"280 -8 OFFCURVE",
"280 56 CURVE SMOOTH",
"280 143 OFFCURVE",
"360 273 OFFCURVE",
"420 374 CURVE SMOOTH",
"455 432 OFFCURVE",
"506 517 OFFCURVE",
"506 592 CURVE SMOOTH",
"506 621 OFFCURVE",
"499 649 OFFCURVE",
"479 674 CURVE SMOOTH",
"453 707 OFFCURVE",
"407 723 OFFCURVE",
"352 723 CURVE SMOOTH",
"221 723 OFFCURVE",
"72 651 OFFCURVE",
"6 532 CURVE SMOOTH",
"-13 498 OFFCURVE",
"-26 459 OFFCURVE",
"-26 420 CURVE SMOOTH",
"-26 404 OFFCURVE",
"-24 389 OFFCURVE",
"-19 374 CURVE SMOOTH",
"-4 326 OFFCURVE",
"34 303 OFFCURVE",
"77 303 CURVE SMOOTH",
"104 303 OFFCURVE",
"134 313 OFFCURVE",
"160 332 CURVE SMOOTH",
"198 359 OFFCURVE",
"225 408 OFFCURVE",
"225 456 CURVE SMOOTH",
"225 463 OFFCURVE",
"224 469 OFFCURVE",
"223 476 CURVE SMOOTH",
"219 499 OFFCURVE",
"203 536 OFFCURVE",
"178 536 CURVE SMOOTH",
"166 536 OFFCURVE",
"166 530 OFFCURVE",
"173 528 CURVE SMOOTH",
"179 526 OFFCURVE",
"187 514 OFFCURVE",
"190 504 CURVE SMOOTH",
"195 489 OFFCURVE",
"198 473 OFFCURVE",
"198 458 CURVE SMOOTH",
"198 409 OFFCURVE",
"174 363 OFFCURVE",
"135 337 CURVE SMOOTH",
"117 325 OFFCURVE",
"97 318 OFFCURVE",
"78 318 CURVE SMOOTH",
"45 318 OFFCURVE",
"15 336 OFFCURVE",
"6 374 CURVE SMOOTH",
"4 384 OFFCURVE",
"2 395 OFFCURVE",
"2 405 CURVE SMOOTH",
"2 443 OFFCURVE",
"16 483 OFFCURVE",
"38 519 CURVE SMOOTH",
"99 621 OFFCURVE",
"233 706 OFFCURVE",
"349 706 CURVE SMOOTH",
"394 706 OFFCURVE",
"430 696 OFFCURVE",
"450 671 CURVE SMOOTH",
"465 653 OFFCURVE",
"470 632 OFFCURVE",
"470 609 CURVE SMOOTH",
"470 537 OFFCURVE",
"413 448 OFFCURVE",
"381 397 CURVE SMOOTH",
"321 303 OFFCURVE",
"252 211 OFFCURVE",
"234 100 CURVE SMOOTH",
"232 88 OFFCURVE",
"231 77 OFFCURVE",
"231 67 CURVE SMOOTH",
"231 1 OFFCURVE",
"268 -43 OFFCURVE",
"340 -43 CURVE SMOOTH",
"482 -43 OFFCURVE",
"606 120 OFFCURVE",
"699 274 CURVE",
"674 212 LINE SMOOTH",
"629 101 OFFCURVE",
"548 -88 OFFCURVE",
"452 -213 CURVE SMOOTH",
"400 -280 OFFCURVE",
"345 -306 OFFCURVE",
"297 -306 CURVE SMOOTH",
"256 -306 OFFCURVE",
"214 -284 OFFCURVE",
"218 -249 CURVE SMOOTH",
"219 -243 OFFCURVE",
"217 -241 OFFCURVE",
"215 -241 CURVE SMOOTH",
"212 -241 OFFCURVE",
"206 -247 OFFCURVE",
"204 -251 CURVE SMOOTH",
"200 -258 OFFCURVE",
"199 -265 OFFCURVE",
"199 -272 CURVE SMOOTH",
"199 -306 OFFCURVE",
"245 -325 OFFCURVE",
"282 -325 CURVE SMOOTH"
);
}
);
width = 744;
}
);
note = Y;
unicode = 0059;
},
{
glyphname = Z;
lastChange = "2021-05-06 10:51:50 +0000";
layers = (
{
anchors = (
{
name = bottom;
position = "{430, -58}";
},
{
name = center;
position = "{406, 375}";
},
{
name = top;
position = "{616, 669}";
}
);
layerId = "23C1765D-E8A9-427D-A2B9-D2B95394C525";
paths = (
{
closed = 1;
nodes = (
"774 -63 OFFCURVE",
"809 -6 OFFCURVE",
"809 55 CURVE SMOOTH",
"809 103 OFFCURVE",
"788 153 OFFCURVE",
"742 192 CURVE SMOOTH",
"722 209 OFFCURVE",
"700 222 OFFCURVE",
"679 229 CURVE",
"678 229 OFFCURVE",
"671 228 OFFCURVE",
"671 224 CURVE SMOOTH",
"671 223 OFFCURVE",
"673 221 OFFCURVE",
"677 218 CURVE SMOOTH",
"694 209 OFFCURVE",
"717 196 OFFCURVE",
"737 178 CURVE SMOOTH",
"769 149 OFFCURVE",
"784 116 OFFCURVE",
"784 84 CURVE SMOOTH",
"784 31 OFFCURVE",
"745 -19 OFFCURVE",
"688 -43 CURVE SMOOTH",
"663 -53 OFFCURVE",
"634 -58 OFFCURVE",
"603 -58 CURVE SMOOTH",
"481 -58 OFFCURVE",
"326 10 OFFCURVE",
"224 48 CURVE",
"347 121 OFFCURVE",
"450 201 OFFCURVE",
"527 286 CURVE SMOOTH",
"594 360 OFFCURVE",
"666 455 OFFCURVE",
"755 531 CURVE SMOOTH",
"786 558 OFFCURVE",
"824 577 OFFCURVE",
"846 586 CURVE",
"850 585 OFFCURVE",
"855 585 OFFCURVE",
"859 585 CURVE SMOOTH",
"868 585 OFFCURVE",
"874 587 OFFCURVE",
"874 590 CURVE SMOOTH",
"874 592 OFFCURVE",
"870 595 OFFCURVE",
"861 598 CURVE SMOOTH",
"748 631 OFFCURVE",
"698 651 OFFCURVE",
"578 661 CURVE SMOOTH",
"559 663 OFFCURVE",
"541 663 OFFCURVE",
"522 663 CURVE SMOOTH",
"398 663 OFFCURVE",
"271 627 OFFCURVE",
"195 518 CURVE SMOOTH",
"178 494 OFFCURVE",
"167 460 OFFCURVE",
"167 428 CURVE SMOOTH",
"167 393 OFFCURVE",
"180 359 OFFCURVE",
"214 342 CURVE SMOOTH",
"230 333 OFFCURVE",
"251 330 OFFCURVE",
"272 330 CURVE SMOOTH",
"309 330 OFFCURVE",
"350 341 OFFCURVE",
"379 356 CURVE SMOOTH",
"430 383 OFFCURVE",
"503 454 OFFCURVE",
"503 518 CURVE SMOOTH",
"503 531 OFFCURVE",
"500 543 OFFCURVE",
"494 555 CURVE SMOOTH",
"490 563 OFFCURVE",
"486 560 OFFCURVE",
"486 554 CURVE SMOOTH",
"486 553 OFFCURVE",
"486 551 OFFCURVE",
"486 550 CURVE",
"489 542 OFFCURVE",
"490 534 OFFCURVE",
"490 526 CURVE SMOOTH",
"490 466 OFFCURVE",
"422 399 OFFCURVE",
"374 372 CURVE SMOOTH",
"348 358 OFFCURVE",
"304 344 OFFCURVE",
"267 344 CURVE SMOOTH",
"249 344 OFFCURVE",
"232 347 OFFCURVE",
"220 355 CURVE SMOOTH",
"203 366 OFFCURVE",
"196 383 OFFCURVE",
"196 403 CURVE SMOOTH",
"196 437 OFFCURVE",
"217 478 OFFCURVE",
"236 501 CURVE SMOOTH",
"318 603 OFFCURVE",
"448 634 OFFCURVE",
"573 631 CURVE SMOOTH",
"676 628 OFFCURVE",
"722 621 OFFCURVE",
"819 592 CURVE",
"796 587 OFFCURVE",
"776 578 OFFCURVE",
"748 555 CURVE SMOOTH",
"665 489 OFFCURVE",
"580 405 OFFCURVE",
"497 323 CURVE SMOOTH",
"396 222 OFFCURVE",
"275 122 OFFCURVE",
"188 60 CURVE",
"173 62 OFFCURVE",
"152 65 OFFCURVE",
"132 65 CURVE SMOOTH",
"112 65 OFFCURVE",
"94 62 OFFCURVE",
"83 52 CURVE SMOOTH",
"75 46 OFFCURVE",
"70 37 OFFCURVE",
"70 29 CURVE SMOOTH",
"70 15 OFFCURVE",
"84 1 OFFCURVE",
"118 1 CURVE SMOOTH",
"150 1 OFFCURVE",
"186 16 OFFCURVE",
"207 33 CURVE",
"314 -14 OFFCURVE",
"473 -106 OFFCURVE",
"614 -106 CURVE SMOOTH",
"647 -106 OFFCURVE",
"680 -101 OFFCURVE",
"710 -89 CURVE SMOOTH"
);
}
);
width = 812;
}
);
note = Z;
unicode = 005A;
},
{
glyphname = bracketleft;
lastChange = "2021-05-06 10:42:41 +0000";
layers = (
{
layerId = "23C1765D-E8A9-427D-A2B9-D2B95394C525";
paths = (
{
closed = 1;
nodes = (
"212 -111 LINE",
"212 -86 LINE",
"120 -86 LINE",
"120 705 LINE",
"212 705 LINE",
"212 731 LINE",
"79 731 LINE",
"79 -111 LINE"
);
}
);
width = 212;
}
);
note = bracketleft;
unicode = 005B;
},
{
glyphname = backslash;
lastChange = "2021-05-06 10:42:41 +0000";
layers = (
{
layerId = "23C1765D-E8A9-427D-A2B9-D2B95394C525";
paths = (
{
closed = 1;
nodes = (
"397 -35 LINE",
"111 674 LINE",
"73 674 LINE",
"359 -35 LINE"
);
}
);
width = 425;
}
);
note = backslash;
unicode = 005C;
},
{
glyphname = bracketright;
lastChange = "2021-05-06 10:42:41 +0000";
layers = (
{
layerId = "23C1765D-E8A9-427D-A2B9-D2B95394C525";
paths = (
{
closed = 1;
nodes = (
"291 -111 LINE",
"291 731 LINE",
"157 731 LINE",
"157 705 LINE",
"251 705 LINE",
"251 -86 LINE",
"157 -86 LINE",
"157 -111 LINE"
);
}
);
width = 296;
}
);
note = bracketright;
unicode = 005D;
},
{
glyphname = asciicircum;
lastChange = "2021-05-06 10:42:46 +0000";
layers = (
{
layerId = "23C1765D-E8A9-427D-A2B9-D2B95394C525";
paths = (
{
closed = 1;
nodes = (
"291 278 OFFCURVE",
"299 283 OFFCURVE",
"299 288 CURVE SMOOTH",
"299 289 OFFCURVE",
"299 290 OFFCURVE",
"298 291 CURVE",
"215 421 LINE",
"212 425 OFFCURVE",
"207 428 OFFCURVE",
"202 428 CURVE SMOOTH",
"196 428 OFFCURVE",
"189 424 OFFCURVE",
"182 417 CURVE SMOOTH",
"56 290 LINE",
"52 287 OFFCURVE",
"58 281 OFFCURVE",
"63 281 CURVE SMOOTH",
"64 281 OFFCURVE",
"66 282 OFFCURVE",
"67 283 CURVE SMOOTH",
"195 398 LINE",
"287 282 LINE"
);
}
);
width = 314;
}
);
note = asciicircum;
unicode = 005E;
},
{
glyphname = underscore;
lastChange = "2021-05-06 10:42:41 +0000";
layers = (
{
layerId = "23C1765D-E8A9-427D-A2B9-D2B95394C525";
paths = (
{
closed = 1;
nodes = (
"428 -54 LINE",
"428 -30 LINE",
"0 -30 LINE",
"0 -54 LINE"
);
}
);
width = 428;
}
);
note = underscore;
unicode = 005F;
},
{
glyphname = grave;
lastChange = "2021-05-06 10:42:46 +0000";
layers = (
{
layerId = "23C1765D-E8A9-427D-A2B9-D2B95394C525";
paths = (
{
closed = 1;
nodes = (
"213 387 OFFCURVE",
"219 392 OFFCURVE",
"219 398 CURVE SMOOTH",
"219 400 OFFCURVE",
"218 403 OFFCURVE",
"215 405 CURVE SMOOTH",
"185 425 OFFCURVE",
"140 464 OFFCURVE",
"107 490 CURVE SMOOTH",
"104 492 OFFCURVE",
"102 493 OFFCURVE",
"99 493 CURVE SMOOTH",
"88 493 OFFCURVE",
"77 480 OFFCURVE",
"77 470 CURVE SMOOTH",
"77 466 OFFCURVE",
"79 462 OFFCURVE",
"83 460 CURVE SMOOTH",
"209 389 LINE SMOOTH"
);
}
);
width = 224;
}
);
note = grave;
unicode = 0060;
},
{
glyphname = a;
lastChange = "2021-05-06 10:52:22 +0000";
layers = (
{
anchors = (
{
name = bottom;
position = "{141, 1}";
},
{
name = ogonek;
position = "{299, -1}";
},
{
name = top;
position = "{297, 328}";
}
);
layerId = "23C1765D-E8A9-427D-A2B9-D2B95394C525";
paths = (
{
closed = 1;
nodes = (
"296 -7 OFFCURVE",
"305 -5 OFFCURVE",
"313 -2 CURVE SMOOTH",
"330 4 OFFCURVE",
"345 15 OFFCURVE",
"357 27 CURVE SMOOTH",
"395 65 OFFCURVE",
"422 111 OFFCURVE",
"445 155 CURVE SMOOTH",
"447 158 OFFCURVE",
"447 161 OFFCURVE",
"447 163 CURVE SMOOTH",
"447 167 OFFCURVE",
"445 169 OFFCURVE",
"443 169 CURVE SMOOTH",
"441 169 OFFCURVE",
"439 168 OFFCURVE",
"437 165 CURVE SMOOTH",
"411 119 OFFCURVE",
"387 79 OFFCURVE",
"357 46 CURVE SMOOTH",
"343 30 OFFCURVE",
"322 10 OFFCURVE",
"301 10 CURVE SMOOTH",
"282 10 OFFCURVE",
"277 26 OFFCURVE",
"277 40 CURVE SMOOTH",
"277 71 OFFCURVE",
"299 120 OFFCURVE",
"314 150 CURVE SMOOTH",
"335 192 OFFCURVE",
"367 252 OFFCURVE",
"395 288 CURVE",
"382 313 OFFCURVE",
"343 328 OFFCURVE",
"297 328 CURVE SMOOTH",
"255 328 OFFCURVE",
"212 314 OFFCURVE",
"184 294 CURVE SMOOTH",
"121 247 OFFCURVE",
"78 185 OFFCURVE",
"59 111 CURVE SMOOTH",
"55 96 OFFCURVE",
"53 81 OFFCURVE",
"53 67 CURVE SMOOTH",
"53 24 OFFCURVE",
"72 -7 OFFCURVE",
"105 -7 CURVE SMOOTH",
"121 -7 OFFCURVE",
"141 1 OFFCURVE",
"163 19 CURVE SMOOTH",
"190 40 OFFCURVE",
"217 74 OFFCURVE",
"236 100 CURVE",
"235 98 OFFCURVE",
"235 95 OFFCURVE",
"235 93 CURVE",
"233 82 OFFCURVE",
"231 71 OFFCURVE",
"231 59 CURVE SMOOTH",
"231 25 OFFCURVE",
"244 -7 OFFCURVE",
"287 -7 CURVE SMOOTH"
);
},
{
closed = 1;
nodes = (
"109 24 OFFCURVE",
"103 43 OFFCURVE",
"103 65 CURVE SMOOTH",
"103 76 OFFCURVE",
"104 87 OFFCURVE",
"107 98 CURVE SMOOTH",
"117 141 OFFCURVE",
"152 201 OFFCURVE",
"197 252 CURVE SMOOTH",
"229 287 OFFCURVE",
"269 312 OFFCURVE",
"310 312 CURVE SMOOTH",
"337 312 OFFCURVE",
"369 303 OFFCURVE",
"381 284 CURVE",
"378 284 OFFCURVE",
"376 283 OFFCURVE",
"374 283 CURVE",
"323 267 OFFCURVE",
"307 238 OFFCURVE",
"279 194 CURVE SMOOTH",
"253 155 OFFCURVE",
"178 24 OFFCURVE",
"127 24 CURVE SMOOTH"
);
}
);
width = 357;
}
);
note = a;
unicode = 0061;
},
{
glyphname = b;
lastChange = "2021-05-06 10:42:46 +0000";
layers = (
{
layerId = "23C1765D-E8A9-427D-A2B9-D2B95394C525";
paths = (
{
closed = 1;
nodes = (
"154 -13 OFFCURVE",
"198 15 OFFCURVE",
"235 51 CURVE",
"242 32 OFFCURVE",
"259 25 OFFCURVE",
"278 25 CURVE SMOOTH",
"297 25 OFFCURVE",
"319 32 OFFCURVE",
"336 44 CURVE SMOOTH",
"371 68 OFFCURVE",
"392 99 OFFCURVE",
"415 139 CURVE SMOOTH",
"417 143 OFFCURVE",
"417 148 OFFCURVE",
"417 153 CURVE SMOOTH",
"417 158 OFFCURVE",
"417 162 OFFCURVE",
"415 162 CURVE SMOOTH",
"415 162 OFFCURVE",
"414 162 OFFCURVE",
"413 160 CURVE SMOOTH",
"392 122 OFFCURVE",
"367 86 OFFCURVE",
"336 61 CURVE SMOOTH",
"321 49 OFFCURVE",
"300 39 OFFCURVE",
"281 39 CURVE SMOOTH",
"265 39 OFFCURVE",
"252 46 OFFCURVE",
"247 64 CURVE",
"267 85 OFFCURVE",
"284 109 OFFCURVE",
"297 131 CURVE SMOOTH",
"316 164 OFFCURVE",
"344 227 OFFCURVE",
"344 275 CURVE SMOOTH",
"344 309 OFFCURVE",
"330 335 OFFCURVE",
"286 335 CURVE SMOOTH",
"248 335 OFFCURVE",
"200 291 OFFCURVE",
"163 240 CURVE",
"164 245 OFFCURVE",
"181 287 OFFCURVE",
"196 320 CURVE",
"235 364 OFFCURVE",
"263 390 OFFCURVE",
"316 440 CURVE SMOOTH",
"378 499 OFFCURVE",
"478 588 OFFCURVE",
"511 661 CURVE SMOOTH",
"516 672 OFFCURVE",
"518 684 OFFCURVE",
"518 694 CURVE SMOOTH",
"518 721 OFFCURVE",
"502 742 OFFCURVE",
"472 742 CURVE SMOOTH",
"469 742 OFFCURVE",
"466 742 OFFCURVE",
"462 741 CURVE SMOOTH",
"336 722 OFFCURVE",
"250 534 OFFCURVE",
"202 440 CURVE SMOOTH",
"188 412 OFFCURVE",
"161 354 OFFCURVE",
"145 319 CURVE SMOOTH",
"108 237 OFFCURVE",
"65 135 OFFCURVE",
"53 91 CURVE SMOOTH",
"49 78 OFFCURVE",
"47 64 OFFCURVE",
"47 52 CURVE SMOOTH",
"47 16 OFFCURVE",
"63 -13 OFFCURVE",
"106 -13 CURVE SMOOTH"
);
},
{
closed = 1;
nodes = (
"136 11 OFFCURVE",
"122 6 OFFCURVE",
"109 6 CURVE SMOOTH",
"93 6 OFFCURVE",
"80 15 OFFCURVE",
"80 36 CURVE SMOOTH",
"80 42 OFFCURVE",
"81 49 OFFCURVE",
"83 57 CURVE SMOOTH",
"102 121 OFFCURVE",
"162 214 OFFCURVE",
"205 266 CURVE SMOOTH",
"228 295 OFFCURVE",
"253 317 OFFCURVE",
"270 317 CURVE SMOOTH",
"288 317 OFFCURVE",
"295 304 OFFCURVE",
"295 286 CURVE SMOOTH",
"295 245 OFFCURVE",
"261 175 OFFCURVE",
"250 154 CURVE SMOOTH",
"233 123 OFFCURVE",
"193 50 OFFCURVE",
"149 20 CURVE SMOOTH"
);
},
{
closed = 1;
nodes = (
"261 466 OFFCURVE",
"354 712 OFFCURVE",
"463 727 CURVE SMOOTH",
"485 730 OFFCURVE",
"497 721 OFFCURVE",
"497 703 CURVE SMOOTH",
"497 693 OFFCURVE",
"493 680 OFFCURVE",
"485 664 CURVE SMOOTH",
"454 604 OFFCURVE",
"360 508 OFFCURVE",
"304 452 CURVE SMOOTH",
"265 412 OFFCURVE",
"243 389 OFFCURVE",
"212 355 CURVE"
);
}
);
width = 336;
}
);
note = b;
unicode = 0062;
},
{
glyphname = c;
lastChange = "2021-05-06 10:52:35 +0000";
layers = (
{
anchors = (
{
name = bottom;
position = "{158, 0}";
},
{
name = top;
position = "{257, 329}";
}
);
layerId = "23C1765D-E8A9-427D-A2B9-D2B95394C525";
paths = (
{
closed = 1;
nodes = (
"257 -11 OFFCURVE",
"303 66 OFFCURVE",
"345 140 CURVE SMOOTH",
"347 143 OFFCURVE",
"348 146 OFFCURVE",
"348 149 CURVE SMOOTH",
"348 154 OFFCURVE",
"346 157 OFFCURVE",
"343 157 CURVE SMOOTH",
"341 157 OFFCURVE",
"339 156 OFFCURVE",
"338 153 CURVE SMOOTH",
"311 103 OFFCURVE",
"256 8 OFFCURVE",
"183 8 CURVE SMOOTH",
"132 8 OFFCURVE",
"118 46 OFFCURVE",
"118 88 CURVE SMOOTH",
"118 120 OFFCURVE",
"126 155 OFFCURVE",
"134 177 CURVE SMOOTH",
"158 247 OFFCURVE",
"208 314 OFFCURVE",
"261 314 CURVE SMOOTH",
"289 314 OFFCURVE",
"302 296 OFFCURVE",
"302 275 CURVE SMOOTH",
"302 268 OFFCURVE",
"300 260 OFFCURVE",
"297 252 CURVE",
"260 250 OFFCURVE",
"234 219 OFFCURVE",
"234 198 CURVE SMOOTH",
"234 186 OFFCURVE",
"243 181 OFFCURVE",
"253 181 CURVE SMOOTH",
"258 181 OFFCURVE",
"264 182 OFFCURVE",
"269 185 CURVE SMOOTH",
"288 195 OFFCURVE",
"302 215 OFFCURVE",
"312 239 CURVE SMOOTH",
"318 253 OFFCURVE",
"320 265 OFFCURVE",
"320 276 CURVE SMOOTH",
"320 309 OFFCURVE",
"297 329 OFFCURVE",
"257 329 CURVE SMOOTH",
"176 329 OFFCURVE",
"116 261 OFFCURVE",
"87 190 CURVE SMOOTH",
"74 159 OFFCURVE",
"67 126 OFFCURVE",
"67 95 CURVE SMOOTH",
"67 37 OFFCURVE",
"93 -11 OFFCURVE",
"163 -11 CURVE SMOOTH"
);
}
);
width = 265;
}
);
note = c;
unicode = 0063;
},
{
glyphname = d;
lastChange = "2021-05-06 18:32:32 +0000";
layers = (
{
anchors = (
{
name = bottom;
position = "{193, 0}";
},
{
name = center;
position = "{193, 158}";
},
{
name = top;
position = "{193, 1795}";
},
{
name = topright;
position = "{706, 752}";
}
);
layerId = "23C1765D-E8A9-427D-A2B9-D2B95394C525";
paths = (
{
closed = 1;
nodes = (
"345 -7 OFFCURVE",
"368 10 OFFCURVE",
"385 27 CURVE SMOOTH",
"423 65 OFFCURVE",
"449 111 OFFCURVE",
"473 155 CURVE SMOOTH",
"475 158 OFFCURVE",
"475 161 OFFCURVE",
"475 163 CURVE SMOOTH",
"475 167 OFFCURVE",
"473 169 OFFCURVE",
"471 169 CURVE SMOOTH",
"469 169 OFFCURVE",
"467 168 OFFCURVE",
"465 165 CURVE SMOOTH",
"439 119 OFFCURVE",
"415 79 OFFCURVE",
"385 46 CURVE SMOOTH",
"370 29 OFFCURVE",
"349 11 OFFCURVE",
"327 11 CURVE",
"309 13 OFFCURVE",
"302 29 OFFCURVE",
"302 55 CURVE SMOOTH",
"302 113 OFFCURVE",
"340 219 OFFCURVE",
"384 320 CURVE",
"423 364 OFFCURVE",
"451 390 OFFCURVE",
"504 440 CURVE SMOOTH",
"566 499 OFFCURVE",
"666 588 OFFCURVE",
"699 661 CURVE SMOOTH",
"704 672 OFFCURVE",
"706 684 OFFCURVE",
"706 694 CURVE SMOOTH",
"706 721 OFFCURVE",
"690 742 OFFCURVE",
"660 742 CURVE SMOOTH",
"657 742 OFFCURVE",
"654 742 OFFCURVE",
"650 741 CURVE SMOOTH",
"524 722 OFFCURVE",
"438 534 OFFCURVE",
"390 440 CURVE SMOOTH",
"376 412 OFFCURVE",
"348 356 OFFCURVE",
"333 321 CURVE",
"319 325 OFFCURVE",
"303 328 OFFCURVE",
"287 328 CURVE SMOOTH",
"245 328 OFFCURVE",
"201 314 OFFCURVE",
"174 294 CURVE SMOOTH",
"111 248 OFFCURVE",
"70 185 OFFCURVE",
"50 111 CURVE SMOOTH",
"46 96 OFFCURVE",
"44 81 OFFCURVE",
"44 67 CURVE SMOOTH",
"44 24 OFFCURVE",
"63 -7 OFFCURVE",
"96 -7 CURVE SMOOTH",
"112 -7 OFFCURVE",
"132 1 OFFCURVE",
"154 19 CURVE SMOOTH",
"187 45 OFFCURVE",
"219 87 OFFCURVE",
"238 116 CURVE SMOOTH",
"275 173 LINE",
"265 144 LINE SMOOTH",
"257 121 OFFCURVE",
"253 97 OFFCURVE",
"253 75 CURVE SMOOTH",
"253 28 OFFCURVE",
"271 -7 OFFCURVE",
"317 -7 CURVE SMOOTH"
);
},
{
closed = 1;
nodes = (
"101 24 OFFCURVE",
"96 41 OFFCURVE",
"96 61 CURVE SMOOTH",
"96 73 OFFCURVE",
"98 87 OFFCURVE",
"101 98 CURVE SMOOTH",
"113 141 OFFCURVE",
"144 202 OFFCURVE",
"190 252 CURVE SMOOTH",
"222 288 OFFCURVE",
"264 312 OFFCURVE",
"306 312 CURVE SMOOTH",
"314 312 OFFCURVE",
"321 312 OFFCURVE",
"329 310 CURVE",
"310 270 OFFCURVE",
"277 201 OFFCURVE",
"264 181 CURVE SMOOTH",
"218 110 OFFCURVE",
"152 24 OFFCURVE",
"117 24 CURVE SMOOTH"
);
},
{
closed = 1;
nodes = (
"449 466 OFFCURVE",
"542 712 OFFCURVE",
"651 727 CURVE SMOOTH",
"673 730 OFFCURVE",
"685 721 OFFCURVE",
"685 703 CURVE SMOOTH",
"685 693 OFFCURVE",
"681 680 OFFCURVE",
"673 664 CURVE SMOOTH",
"642 604 OFFCURVE",
"548 508 OFFCURVE",
"492 452 CURVE SMOOTH",
"453 412 OFFCURVE",
"431 389 OFFCURVE",
"400 355 CURVE"
);
}
);
width = 385;
}
);
note = d;
unicode = 0064;
},
{
glyphname = e;
lastChange = "2021-05-06 18:23:25 +0000";
layers = (
{
anchors = (
{
name = bottom;
position = "{156, 0}";
},
{
name = ogonek;
position = "{175, 0}";
},
{
name = top;
position = "{245, 330}";
}
);
layerId = "23C1765D-E8A9-427D-A2B9-D2B95394C525";
paths = (
{
closed = 1;
nodes = (
"208 -8 OFFCURVE",
"237 8 OFFCURVE",
"262 32 CURVE SMOOTH",
"290 58 OFFCURVE",
"318 98 OFFCURVE",
"338 134 CURVE SMOOTH",
"341 139 OFFCURVE",
"342 143 OFFCURVE",
"342 147 CURVE SMOOTH",
"342 152 OFFCURVE",
"340 156 OFFCURVE",
"338 156 CURVE SMOOTH",
"337 156 OFFCURVE",
"336 155 OFFCURVE",
"335 153 CURVE SMOOTH",
"312 110 OFFCURVE",
"289 80 OFFCURVE",
"262 52 CURVE SMOOTH",
"238 28 OFFCURVE",
"207 9 OFFCURVE",
"175 9 CURVE SMOOTH",
"131 9 OFFCURVE",
"117 45 OFFCURVE",
"117 86 CURVE SMOOTH",
"117 112 OFFCURVE",
"123 140 OFFCURVE",
"131 161 CURVE",
"146 147 OFFCURVE",
"163 141 OFFCURVE",
"180 141 CURVE SMOOTH",
"241 141 OFFCURVE",
"307 215 OFFCURVE",
"307 277 CURVE SMOOTH",
"307 292 OFFCURVE",
"303 306 OFFCURVE",
"292 316 CURVE SMOOTH",
"280 328 OFFCURVE",
"263 331 OFFCURVE",
"245 330 CURVE SMOOTH",
"168 324 OFFCURVE",
"114 250 OFFCURVE",
"87 184 CURVE SMOOTH",
"75 156 OFFCURVE",
"66 122 OFFCURVE",
"66 90 CURVE SMOOTH",
"66 64 OFFCURVE",
"72 39 OFFCURVE",
"88 22 CURVE SMOOTH",
"103 3 OFFCURVE",
"130 -8 OFFCURVE",
"170 -8 CURVE SMOOTH"
);
},
{
closed = 1;
nodes = (
"144 200 OFFCURVE",
"156 222 OFFCURVE",
"166 238 CURVE SMOOTH",
"195 285 OFFCURVE",
"231 317 OFFCURVE",
"255 317 CURVE SMOOTH",
"276 317 OFFCURVE",
"282 301 OFFCURVE",
"282 282 CURVE SMOOTH",
"282 260 OFFCURVE",
"273 234 OFFCURVE",
"264 219 CURVE SMOOTH",
"243 186 OFFCURVE",
"204 157 OFFCURVE",
"172 157 CURVE SMOOTH",
"158 157 OFFCURVE",
"145 162 OFFCURVE",
"136 176 CURVE"
);
}
);
width = 262;
}
);
note = e;
unicode = 0065;
},
{
glyphname = f;
lastChange = "2021-05-06 10:42:46 +0000";
layers = (
{
layerId = "23C1765D-E8A9-427D-A2B9-D2B95394C525";
paths = (
{
closed = 1;
nodes = (
"59 -343 OFFCURVE",
"84 -325 OFFCURVE",
"105 -303 CURVE SMOOTH",
"144 -260 OFFCURVE",
"174 -190 OFFCURVE",
"190 -125 CURVE SMOOTH",
"198 -92 OFFCURVE",
"201 -60 OFFCURVE",
"201 -33 CURVE SMOOTH",
"201 -21 OFFCURVE",
"201 -10 OFFCURVE",
"199 0 CURVE",
"262 28 OFFCURVE",
"301 84 OFFCURVE",
"332 142 CURVE SMOOTH",
"334 146 OFFCURVE",
"335 152 OFFCURVE",
"335 156 CURVE SMOOTH",
"335 161 OFFCURVE",
"334 164 OFFCURVE",
"332 164 CURVE SMOOTH",
"330 164 OFFCURVE",
"328 162 OFFCURVE",
"326 157 CURVE SMOOTH",
"295 98 OFFCURVE",
"255 36 OFFCURVE",
"195 13 CURVE",
"195 14 LINE",
"188 38 OFFCURVE",
"169 58 OFFCURVE",
"140 58 CURVE SMOOTH",
"115 58 OFFCURVE",
"92 37 OFFCURVE",
"92 13 CURVE SMOOTH",
"92 2 OFFCURVE",
"98 -10 OFFCURVE",
"112 -20 CURVE",
"111 -14 OFFCURVE",
"115 -3 OFFCURVE",
"122 3 CURVE SMOOTH",
"127 7 OFFCURVE",
"134 9 OFFCURVE",
"141 9 CURVE SMOOTH",
"148 9 OFFCURVE",
"155 7 OFFCURVE",
"161 0 CURVE",
"169 -12 OFFCURVE",
"172 -32 OFFCURVE",
"172 -51 CURVE SMOOTH",
"172 -76 OFFCURVE",
"168 -102 OFFCURVE",
"165 -116 CURVE SMOOTH",
"153 -176 OFFCURVE",
"128 -246 OFFCURVE",
"94 -289 CURVE SMOOTH",
"74 -315 OFFCURVE",
"59 -324 OFFCURVE",
"45 -324 CURVE SMOOTH",
"15 -324 OFFCURVE",
"5 -292 OFFCURVE",
"5 -254 CURVE SMOOTH",
"5 -203 OFFCURVE",
"22 -139 OFFCURVE",
"30 -112 CURVE SMOOTH",
"47 -56 OFFCURVE",
"70 3 OFFCURVE",
"85 48 CURVE SMOOTH",
"94 74 OFFCURVE",
"138 177 OFFCURVE",
"197 295 CURVE",
"243 328 OFFCURVE",
"322 389 OFFCURVE",
"402 467 CURVE SMOOTH",
"467 531 OFFCURVE",
"519 594 OFFCURVE",
"540 647 CURVE SMOOTH",
"546 662 OFFCURVE",
"549 675 OFFCURVE",
"549 686 CURVE SMOOTH",
"549 702 OFFCURVE",
"543 713 OFFCURVE",
"535 718 CURVE SMOOTH",
"527 723 OFFCURVE",
"518 725 OFFCURVE",
"509 725 CURVE SMOOTH",
"501 725 OFFCURVE",
"492 723 OFFCURVE",
"484 722 CURVE",
"311 667 OFFCURVE",
"142 315 OFFCURVE",
"71 148 CURVE SMOOTH",
"42 80 OFFCURVE",
"18 9 OFFCURVE",
"0 -54 CURVE SMOOTH",
"-17 -116 OFFCURVE",
"-32 -189 OFFCURVE",
"-32 -247 CURVE SMOOTH",
"-32 -299 OFFCURVE",
"-17 -343 OFFCURVE",
"33 -343 CURVE SMOOTH"
);
},
{
closed = 1;
nodes = (
"280 455 OFFCURVE",
"370 610 OFFCURVE",
"449 684 CURVE SMOOTH",
"468 702 OFFCURVE",
"491 714 OFFCURVE",
"508 714 CURVE SMOOTH",
"523 714 OFFCURVE",
"533 706 OFFCURVE",
"533 687 CURVE SMOOTH",
"533 677 OFFCURVE",
"530 664 OFFCURVE",
"523 648 CURVE SMOOTH",
"500 594 OFFCURVE",
"437 527 OFFCURVE",
"409 498 CURVE SMOOTH",
"343 430 OFFCURVE",
"286 373 OFFCURVE",
"208 315 CURVE"
);
}
);
width = 251;
}
);
note = f;
unicode = 0066;
},
{
glyphname = g;
lastChange = "2021-05-06 18:14:47 +0000";
layers = (
{
anchors = (
{
name = bottom;
position = "{174, -1290}";
},
{
name = top;
position = "{277, 325}";
}
);
layerId = "23C1765D-E8A9-427D-A2B9-D2B95394C525";
paths = (
{
closed = 1;
nodes = (
"139 -251 OFFCURVE",
"189 -161 OFFCURVE",
"238 -48 CURVE",
"282 -28 OFFCURVE",
"318 -1 OFFCURVE",
"348 31 CURVE SMOOTH",
"382 66 OFFCURVE",
"409 107 OFFCURVE",
"433 150 CURVE SMOOTH",
"436 155 OFFCURVE",
"437 159 OFFCURVE",
"437 161 CURVE SMOOTH",
"437 163 OFFCURVE",
"436 164 OFFCURVE",
"435 164 CURVE SMOOTH",
"432 164 OFFCURVE",
"424 158 OFFCURVE",
"420 150 CURVE SMOOTH",
"379 75 OFFCURVE",
"318 8 OFFCURVE",
"245 -29 CURVE",
"285 71 OFFCURVE",
"357 300 OFFCURVE",
"449 398 CURVE",
"406 388 OFFCURVE",
"379 356 OFFCURVE",
"348 311 CURVE",
"345 308 LINE",
"326 319 OFFCURVE",
"302 325 OFFCURVE",
"277 325 CURVE SMOOTH",
"239 325 OFFCURVE",
"199 313 OFFCURVE",
"174 294 CURVE SMOOTH",
"111 248 OFFCURVE",
"70 186 OFFCURVE",
"50 111 CURVE SMOOTH",
"46 96 OFFCURVE",
"44 81 OFFCURVE",
"44 67 CURVE SMOOTH",
"44 24 OFFCURVE",
"63 -7 OFFCURVE",
"96 -7 CURVE SMOOTH",
"112 -7 OFFCURVE",
"132 1 OFFCURVE",
"154 19 CURVE SMOOTH",
"187 45 OFFCURVE",
"218 89 OFFCURVE",
"238 116 CURVE SMOOTH",
"246 128 OFFCURVE",
"267 158 OFFCURVE",
"272 163 CURVE",
"246 105 OFFCURVE",
"215 3 OFFCURVE",
"184 -60 CURVE",
"94 -102 OFFCURVE",
"59 -110 OFFCURVE",
"-3 -152 CURVE SMOOTH",
"-35 -174 OFFCURVE",
"-51 -203 OFFCURVE",
"-51 -227 CURVE SMOOTH",
"-51 -255 OFFCURVE",
"-31 -277 OFFCURVE",
"9 -277 CURVE SMOOTH",
"19 -277 OFFCURVE",
"29 -276 OFFCURVE",
"41 -273 CURVE SMOOTH"
);
},
{
closed = 1;
nodes = (
"23 -256 OFFCURVE",
"12 -257 OFFCURVE",
"3 -257 CURVE SMOOTH",
"-22 -257 OFFCURVE",
"-34 -244 OFFCURVE",
"-34 -226 CURVE SMOOTH",
"-34 -208 OFFCURVE",
"-22 -185 OFFCURVE",
"4 -165 CURVE SMOOTH",
"61 -121 OFFCURVE",
"133 -101 OFFCURVE",
"175 -79 CURVE",
"146 -151 OFFCURVE",
"105 -230 OFFCURVE",
"35 -252 CURVE SMOOTH"
);
},
{
closed = 1;
nodes = (
"101 24 OFFCURVE",
"96 41 OFFCURVE",
"96 61 CURVE SMOOTH",
"96 73 OFFCURVE",
"98 87 OFFCURVE",
"101 98 CURVE SMOOTH",
"113 141 OFFCURVE",
"144 202 OFFCURVE",
"190 252 CURVE SMOOTH",
"220 286 OFFCURVE",
"260 310 OFFCURVE",
"299 310 CURVE SMOOTH",
"313 310 OFFCURVE",
"327 307 OFFCURVE",
"340 300 CURVE",
"310 258 OFFCURVE",
"289 225 OFFCURVE",
"269 194 CURVE SMOOTH",
"244 155 OFFCURVE",
"169 24 OFFCURVE",
"117 24 CURVE SMOOTH"
);
}
);
width = 348;
}
);
note = g;
unicode = 0067;
},
{
glyphname = h;
lastChange = "2021-05-06 18:15:11 +0000";
layers = (
{
anchors = (
{
name = bottom;
position = "{166, 0}";
},
{
name = center;
position = "{177, 325}";
},
{
name = top;
position = "{486, 725}";
}
);
layerId = "23C1765D-E8A9-427D-A2B9-D2B95394C525";
paths = (
{
closed = 1;
nodes = (
"291 -7 OFFCURVE",
"314 10 OFFCURVE",
"331 27 CURVE SMOOTH",
"369 65 OFFCURVE",
"395 111 OFFCURVE",
"419 155 CURVE SMOOTH",
"421 158 OFFCURVE",
"421 161 OFFCURVE",
"421 163 CURVE SMOOTH",
"421 167 OFFCURVE",
"419 169 OFFCURVE",
"417 169 CURVE SMOOTH",
"415 169 OFFCURVE",
"413 168 OFFCURVE",
"411 165 CURVE SMOOTH",
"385 119 OFFCURVE",
"361 79 OFFCURVE",
"331 46 CURVE SMOOTH",
"316 29 OFFCURVE",
"295 11 OFFCURVE",
"273 11 CURVE SMOOTH",
"262 11 OFFCURVE",
"253 18 OFFCURVE",
"253 33 CURVE SMOOTH",
"253 35 OFFCURVE",
"254 38 OFFCURVE",
"254 40 CURVE SMOOTH",
"258 66 OFFCURVE",
"276 102 OFFCURVE",
"282 113 CURVE SMOOTH",
"302 151 OFFCURVE",
"328 194 OFFCURVE",
"346 235 CURVE SMOOTH",
"354 253 OFFCURVE",
"358 270 OFFCURVE",
"358 284 CURVE SMOOTH",
"358 313 OFFCURVE",
"339 330 OFFCURVE",
"294 326 CURVE SMOOTH",
"265 323 OFFCURVE",
"233 300 OFFCURVE",
"203 269 CURVE SMOOTH",
"182 247 OFFCURVE",
"151 204 OFFCURVE",
"130 172 CURVE",
"135 190 OFFCURVE",
"153 235 OFFCURVE",
"180 292 CURVE",
"225 326 OFFCURVE",
"305 388 OFFCURVE",
"387 467 CURVE SMOOTH",
"452 531 OFFCURVE",
"504 594 OFFCURVE",
"525 647 CURVE SMOOTH",
"531 662 OFFCURVE",
"534 675 OFFCURVE",
"534 686 CURVE SMOOTH",
"534 702 OFFCURVE",
"528 713 OFFCURVE",
"520 718 CURVE SMOOTH",
"512 723 OFFCURVE",
"503 725 OFFCURVE",
"494 725 CURVE SMOOTH",
"486 725 OFFCURVE",
"478 723 OFFCURVE",
"470 722 CURVE",
"296 667 OFFCURVE",
"170 383 OFFCURVE",
"108 235 CURVE SMOOTH",
"63 126 OFFCURVE",
"28 45 OFFCURVE",
"16 0 CURVE",
"20 0 OFFCURVE",
"26 -1 OFFCURVE",
"31 -1 CURVE SMOOTH",
"42 -1 OFFCURVE",
"54 3 OFFCURVE",
"65 26 CURVE SMOOTH",
"79 55 OFFCURVE",
"106 101 OFFCURVE",
"129 140 CURVE SMOOTH",
"153 182 OFFCURVE",
"180 222 OFFCURVE",
"206 251 CURVE SMOOTH",
"234 284 OFFCURVE",
"265 309 OFFCURVE",
"291 309 CURVE SMOOTH",
"302 309 OFFCURVE",
"313 301 OFFCURVE",
"313 285 CURVE SMOOTH",
"313 278 OFFCURVE",
"311 270 OFFCURVE",
"306 261 CURVE SMOOTH",
"279 204 OFFCURVE",
"231 153 OFFCURVE",
"209 94 CURVE SMOOTH",
"205 82 OFFCURVE",
"202 69 OFFCURVE",
"202 56 CURVE SMOOTH",
"202 25 OFFCURVE",
"218 -7 OFFCURVE",
"263 -7 CURVE SMOOTH"
);
},
{
closed = 1;
nodes = (
"246 432 OFFCURVE",
"337 593 OFFCURVE",
"434 684 CURVE SMOOTH",
"453 702 OFFCURVE",
"476 714 OFFCURVE",
"493 714 CURVE SMOOTH",
"508 714 OFFCURVE",
"518 706 OFFCURVE",
"518 687 CURVE SMOOTH",
"518 677 OFFCURVE",
"515 664 OFFCURVE",
"508 648 CURVE SMOOTH",
"485 594 OFFCURVE",
"422 527 OFFCURVE",
"394 498 CURVE SMOOTH",
"328 428 OFFCURVE",
"269 371 OFFCURVE",
"189 312 CURVE"
);
}
);
width = 331;
}
);
note = h;
unicode = 0068;
},
{
glyphname = i;
lastChange = "2021-05-06 18:21:19 +0000";
layers = (
{
anchors = (
{
name = bottom;
position = "{91, 0}";
}
);
layerId = "23C1765D-E8A9-427D-A2B9-D2B95394C525";
paths = (
{
closed = 1;
nodes = (
"130 -11 OFFCURVE",
"161 6 OFFCURVE",
"182 27 CURVE SMOOTH",
"220 65 OFFCURVE",
"245 111 OFFCURVE",
"269 155 CURVE SMOOTH",
"271 158 OFFCURVE",
"271 161 OFFCURVE",
"271 163 CURVE SMOOTH",
"271 167 OFFCURVE",
"269 169 OFFCURVE",
"267 169 CURVE SMOOTH",
"266 169 OFFCURVE",
"264 168 OFFCURVE",
"262 165 CURVE SMOOTH",
"236 119 OFFCURVE",
"212 79 OFFCURVE",
"182 46 CURVE SMOOTH",
"165 28 OFFCURVE",
"141 13 OFFCURVE",
"125 13 CURVE SMOOTH",
"107 13 OFFCURVE",
"99 28 OFFCURVE",
"99 50 CURVE SMOOTH",
"99 131 OFFCURVE",
"198 314 OFFCURVE",
"233 325 CURVE",
"189 325 OFFCURVE",
"162 319 OFFCURVE",
"133 270 CURVE SMOOTH",
"109 229 OFFCURVE",
"51 127 OFFCURVE",
"51 58 CURVE SMOOTH",
"51 25 OFFCURVE",
"64 1 OFFCURVE",
"102 -6 CURVE SMOOTH"
);
},
{
closed = 1;
nodes = (
"264 385 OFFCURVE",
"284 404 OFFCURVE",
"284 426 CURVE SMOOTH",
"284 442 OFFCURVE",
"273 454 OFFCURVE",
"256 454 CURVE SMOOTH",
"235 454 OFFCURVE",
"215 436 OFFCURVE",
"215 414 CURVE SMOOTH",
"215 398 OFFCURVE",
"226 385 OFFCURVE",
"243 385 CURVE SMOOTH"
);
}
);
width = 182;
}
);
note = i;
unicode = 0069;
},
{
glyphname = j;
lastChange = "2021-05-06 10:42:46 +0000";
layers = (
{
layerId = "23C1765D-E8A9-427D-A2B9-D2B95394C525";
paths = (
{
closed = 1;
nodes = (
"-57 -260 OFFCURVE",
"-12 -179 OFFCURVE",
"37 -66 CURVE",
"79 -51 OFFCURVE",
"131 -19 OFFCURVE",
"178 27 CURVE SMOOTH",
"216 65 OFFCURVE",
"241 109 OFFCURVE",
"265 153 CURVE SMOOTH",
"269 161 OFFCURVE",
"266 169 OFFCURVE",
"262 169 CURVE SMOOTH",
"261 169 OFFCURVE",
"259 168 OFFCURVE",
"258 165 CURVE SMOOTH",
"232 119 OFFCURVE",
"208 78 OFFCURVE",
"178 46 CURVE SMOOTH",
"136 -1 OFFCURVE",
"82 -30 OFFCURVE",
"47 -46 CURVE",
"93 67 OFFCURVE",
"166 276 OFFCURVE",
"215 321 CURVE",
"133 327 OFFCURVE",
"119 260 OFFCURVE",
"92 199 CURVE SMOOTH",
"65 137 OFFCURVE",
"37 51 OFFCURVE",
"14 -9 CURVE",
"5 -27 OFFCURVE",
"-3 -48 OFFCURVE",
"-12 -69 CURVE",
"-102 -111 OFFCURVE",
"-136 -120 OFFCURVE",
"-198 -162 CURVE SMOOTH",
"-230 -184 OFFCURVE",
"-246 -213 OFFCURVE",
"-246 -237 CURVE SMOOTH",
"-246 -265 OFFCURVE",
"-226 -286 OFFCURVE",
"-187 -286 CURVE SMOOTH",
"-177 -286 OFFCURVE",
"-167 -285 OFFCURVE",
"-155 -282 CURVE SMOOTH"
);
},
{
closed = 1;
nodes = (
"-173 -266 OFFCURVE",
"-183 -267 OFFCURVE",
"-192 -267 CURVE SMOOTH",
"-217 -267 OFFCURVE",
"-230 -254 OFFCURVE",
"-230 -236 CURVE SMOOTH",
"-230 -217 OFFCURVE",
"-217 -194 OFFCURVE",
"-191 -174 CURVE SMOOTH",
"-134 -131 OFFCURVE",
"-63 -111 OFFCURVE",
"-20 -88 CURVE",
"-49 -161 OFFCURVE",
"-90 -240 OFFCURVE",
"-161 -262 CURVE SMOOTH"
);
},
{
closed = 1;
nodes = (
"249 385 OFFCURVE",
"270 405 OFFCURVE",
"270 427 CURVE SMOOTH",
"270 443 OFFCURVE",
"258 454 OFFCURVE",
"241 454 CURVE SMOOTH",
"221 454 OFFCURVE",
"200 435 OFFCURVE",
"200 413 CURVE SMOOTH",
"200 397 OFFCURVE",
"212 385 OFFCURVE",
"229 385 CURVE SMOOTH"
);
}
);
width = 178;
}
);
note = j;
unicode = 006A;
},
{
glyphname = k;
lastChange = "2021-05-06 10:42:46 +0000";
layers = (
{
layerId = "23C1765D-E8A9-427D-A2B9-D2B95394C525";
paths = (
{
closed = 1;
nodes = (
"298 -9 OFFCURVE",
"324 8 OFFCURVE",
"341 25 CURVE SMOOTH",
"379 63 OFFCURVE",
"405 110 OFFCURVE",
"426 150 CURVE SMOOTH",
"428 154 OFFCURVE",
"429 158 OFFCURVE",
"429 162 CURVE SMOOTH",
"429 167 OFFCURVE",
"427 171 OFFCURVE",
"425 171 CURVE SMOOTH",
"424 171 OFFCURVE",
"423 170 OFFCURVE",
"422 168 CURVE SMOOTH",
"389 106 OFFCURVE",
"371 79 OFFCURVE",
"341 46 CURVE SMOOTH",
"326 29 OFFCURVE",
"303 9 OFFCURVE",
"281 9 CURVE SMOOTH",
"244 10 OFFCURVE",
"233 64 OFFCURVE",
"230 97 CURVE SMOOTH",
"229 110 OFFCURVE",
"228 123 OFFCURVE",
"228 136 CURVE SMOOTH",
"228 164 OFFCURVE",
"231 191 OFFCURVE",
"234 211 CURVE",
"242 206 LINE SMOOTH",
"252 200 OFFCURVE",
"264 197 OFFCURVE",
"278 197 CURVE SMOOTH",
"305 197 OFFCURVE",
"335 208 OFFCURVE",
"357 224 CURVE SMOOTH",
"375 237 OFFCURVE",
"391 265 OFFCURVE",
"391 290 CURVE SMOOTH",
"391 297 OFFCURVE",
"390 305 OFFCURVE",
"386 311 CURVE SMOOTH",
"378 324 OFFCURVE",
"364 329 OFFCURVE",
"345 329 CURVE SMOOTH",
"311 329 OFFCURVE",
"272 314 OFFCURVE",
"232 284 CURVE SMOOTH",
"194 256 OFFCURVE",
"157 211 OFFCURVE",
"128 168 CURVE",
"134 187 OFFCURVE",
"154 237 OFFCURVE",
"182 299 CURVE",
"229 333 OFFCURVE",
"304 393 OFFCURVE",
"381 467 CURVE SMOOTH",
"446 531 OFFCURVE",
"497 594 OFFCURVE",
"518 647 CURVE SMOOTH",
"524 662 OFFCURVE",
"527 676 OFFCURVE",
"527 687 CURVE SMOOTH",
"527 702 OFFCURVE",
"522 712 OFFCURVE",
"513 718 CURVE SMOOTH",
"505 723 OFFCURVE",
"496 725 OFFCURVE",
"486 725 CURVE SMOOTH",
"478 725 OFFCURVE",
"470 723 OFFCURVE",
"463 722 CURVE",
"269 653 OFFCURVE",
"150 339 OFFCURVE",
"63 125 CURVE SMOOTH",
"51 97 OFFCURVE",
"27 27 OFFCURVE",
"17 0 CURVE",
"31 0 OFFCURVE",
"66 -9 OFFCURVE",
"76 27 CURVE SMOOTH",
"83 52 OFFCURVE",
"108 101 OFFCURVE",
"127 133 CURVE SMOOTH",
"170 205 OFFCURVE",
"235 286 OFFCURVE",
"299 306 CURVE SMOOTH",
"306 308 OFFCURVE",
"314 310 OFFCURVE",
"321 310 CURVE SMOOTH",
"336 310 OFFCURVE",
"349 303 OFFCURVE",
"349 282 CURVE SMOOTH",
"349 261 OFFCURVE",
"333 240 OFFCURVE",
"316 228 CURVE SMOOTH",
"301 217 OFFCURVE",
"282 212 OFFCURVE",
"266 212 CURVE SMOOTH",
"250 212 OFFCURVE",
"238 218 OFFCURVE",
"237 229 CURVE SMOOTH",
"237 232 OFFCURVE",
"238 235 OFFCURVE",
"239 237 CURVE",
"241 246 OFFCURVE",
"219 236 OFFCURVE",
"207 221 CURVE SMOOTH",
"187 195 OFFCURVE",
"181 156 OFFCURVE",
"181 122 CURVE SMOOTH",
"181 65 OFFCURVE",
"198 -9 OFFCURVE",
"270 -9 CURVE SMOOTH"
);
},
{
closed = 1;
nodes = (
"246 438 OFFCURVE",
"333 596 OFFCURVE",
"428 684 CURVE SMOOTH",
"447 702 OFFCURVE",
"470 714 OFFCURVE",
"487 714 CURVE SMOOTH",
"501 714 OFFCURVE",
"511 706 OFFCURVE",
"511 687 CURVE SMOOTH",
"511 678 OFFCURVE",
"508 665 OFFCURVE",
"501 648 CURVE SMOOTH",
"479 594 OFFCURVE",
"416 527 OFFCURVE",
"388 498 CURVE SMOOTH",
"324 431 OFFCURVE",
"267 376 OFFCURVE",
"191 319 CURVE"
);
}
);
width = 341;
}
);
note = k;
unicode = 006B;
},
{
glyphname = l;
lastChange = "2021-05-06 18:16:21 +0000";
layers = (
{
anchors = (
{
name = bottom;
position = "{98, 0}";
},
{
name = center;
position = "{98, 898}";
},
{
name = top;
position = "{497, 725}";
},
{
name = topright;
position = "{558, 729}";
}
);
layerId = "23C1765D-E8A9-427D-A2B9-D2B95394C525";
paths = (
{
closed = 1;
nodes = (
"154 -6 OFFCURVE",
"177 10 OFFCURVE",
"195 27 CURVE SMOOTH",
"233 65 OFFCURVE",
"248 92 OFFCURVE",
"274 139 CURVE SMOOTH",
"276 144 OFFCURVE",
"278 152 OFFCURVE",
"278 158 CURVE SMOOTH",
"278 162 OFFCURVE",
"278 164 OFFCURVE",
"276 164 CURVE SMOOTH",
"274 164 OFFCURVE",
"273 162 OFFCURVE",
"270 157 CURVE SMOOTH",
"247 113 OFFCURVE",
"224 79 OFFCURVE",
"195 46 CURVE SMOOTH",
"179 29 OFFCURVE",
"159 11 OFFCURVE",
"137 11 CURVE SMOOTH",
"109 11 OFFCURVE",
"100 33 OFFCURVE",
"100 60 CURVE SMOOTH",
"100 100 OFFCURVE",
"119 151 OFFCURVE",
"125 169 CURVE SMOOTH",
"133 191 OFFCURVE",
"143 216 OFFCURVE",
"155 241 CURVE",
"268 332 OFFCURVE",
"487 526 OFFCURVE",
"529 643 CURVE SMOOTH",
"534 658 OFFCURVE",
"537 672 OFFCURVE",
"537 683 CURVE SMOOTH",
"537 714 OFFCURVE",
"519 725 OFFCURVE",
"497 725 CURVE SMOOTH",
"491 725 OFFCURVE",
"484 724 OFFCURVE",
"477 722 CURVE SMOOTH",
"343 681 OFFCURVE",
"202 446 OFFCURVE",
"143 320 CURVE SMOOTH",
"129 291 OFFCURVE",
"61 155 OFFCURVE",
"61 68 CURVE SMOOTH",
"61 25 OFFCURVE",
"77 -6 OFFCURVE",
"125 -6 CURVE SMOOTH"
);
},
{
closed = 1;
nodes = (
"241 421 OFFCURVE",
"365 610 OFFCURVE",
"431 674 CURVE SMOOTH",
"451 694 OFFCURVE",
"477 708 OFFCURVE",
"495 708 CURVE SMOOTH",
"509 708 OFFCURVE",
"518 700 OFFCURVE",
"518 682 CURVE SMOOTH",
"518 672 OFFCURVE",
"515 659 OFFCURVE",
"509 642 CURVE SMOOTH",
"474 549 OFFCURVE",
"271 354 OFFCURVE",
"166 264 CURVE"
);
}
);
width = 195;
}
);
note = l;
unicode = 006C;
},
{
glyphname = m;
lastChange = "2021-05-06 10:42:46 +0000";
layers = (
{
layerId = "23C1765D-E8A9-427D-A2B9-D2B95394C525";
paths = (
{
closed = 1;
nodes = (
"475 -6 OFFCURVE",
"498 10 OFFCURVE",
"515 27 CURVE SMOOTH",
"554 65 OFFCURVE",
"578 108 OFFCURVE",
"602 152 CURVE SMOOTH",
"604 155 OFFCURVE",
"604 158 OFFCURVE",
"604 161 CURVE SMOOTH",
"604 166 OFFCURVE",
"602 170 OFFCURVE",
"600 170 CURVE SMOOTH",
"599 170 OFFCURVE",
"598 169 OFFCURVE",
"596 166 CURVE SMOOTH",
"571 120 OFFCURVE",
"545 79 OFFCURVE",
"515 46 CURVE SMOOTH",
"500 29 OFFCURVE",
"478 10 OFFCURVE",
"456 10 CURVE SMOOTH",
"439 10 OFFCURVE",
"433 24 OFFCURVE",
"433 39 CURVE SMOOTH",
"433 49 OFFCURVE",
"435 59 OFFCURVE",
"438 67 CURVE SMOOTH",
"445 87 OFFCURVE",
"456 105 OFFCURVE",
"460 113 CURVE SMOOTH",
"486 163 OFFCURVE",
"535 234 OFFCURVE",
"535 278 CURVE SMOOTH",
"535 307 OFFCURVE",
"516 326 OFFCURVE",
"477 326 CURVE SMOOTH",
"429 326 OFFCURVE",
"381 287 OFFCURVE",
"330 218 CURVE",
"337 235 LINE SMOOTH",
"345 254 OFFCURVE",
"349 269 OFFCURVE",
"349 284 CURVE SMOOTH",
"349 310 OFFCURVE",
"334 326 OFFCURVE",
"298 326 CURVE SMOOTH",
"244 326 OFFCURVE",
"189 271 OFFCURVE",
"139 203 CURVE",
"149 227 OFFCURVE",
"159 265 OFFCURVE",
"159 299 CURVE SMOOTH",
"159 317 OFFCURVE",
"152 364 OFFCURVE",
"132 364 CURVE SMOOTH",
"131 364 OFFCURVE",
"130 363 OFFCURVE",
"130 361 CURVE SMOOTH",
"130 358 OFFCURVE",
"131 356 OFFCURVE",
"131 351 CURVE SMOOTH",
"131 265 OFFCURVE",
"58 106 OFFCURVE",
"4 0 CURVE",
"7 0 LINE SMOOTH",
"12 0 OFFCURVE",
"18 -1 OFFCURVE",
"24 -1 CURVE SMOOTH",
"41 -1 OFFCURVE",
"62 4 OFFCURVE",
"75 35 CURVE SMOOTH",
"111 123 OFFCURVE",
"203 309 OFFCURVE",
"283 309 CURVE SMOOTH",
"295 309 OFFCURVE",
"302 301 OFFCURVE",
"302 286 CURVE SMOOTH",
"302 279 OFFCURVE",
"301 271 OFFCURVE",
"297 261 CURVE SMOOTH",
"237 114 OFFCURVE",
"214 90 OFFCURVE",
"214 47 CURVE SMOOTH",
"214 33 OFFCURVE",
"220 21 OFFCURVE",
"241 16 CURVE",
"278 127 OFFCURVE",
"385 309 OFFCURVE",
"471 309 CURVE SMOOTH",
"485 309 OFFCURVE",
"490 299 OFFCURVE",
"490 288 CURVE SMOOTH",
"490 279 OFFCURVE",
"488 269 OFFCURVE",
"484 261 CURVE SMOOTH",
"456 203 OFFCURVE",
"405 147 OFFCURVE",
"389 87 CURVE SMOOTH",
"386 77 OFFCURVE",
"385 68 OFFCURVE",
"385 59 CURVE SMOOTH",
"385 22 OFFCURVE",
"407 -6 OFFCURVE",
"447 -6 CURVE SMOOTH"
);
}
);
width = 515;
}
);
note = m;
unicode = 006D;
},
{
glyphname = n;
lastChange = "2021-05-06 18:16:48 +0000";
layers = (
{
anchors = (
{
name = bottom;
position = "{130, 0}";
},
{
name = top;
position = "{219, 331}";
}
);
layerId = "23C1765D-E8A9-427D-A2B9-D2B95394C525";
paths = (
{
closed = 1;
nodes = (
"286 -6 OFFCURVE",
"309 10 OFFCURVE",
"326 27 CURVE SMOOTH",
"365 65 OFFCURVE",
"389 108 OFFCURVE",
"413 152 CURVE SMOOTH",
"415 155 OFFCURVE",
"415 158 OFFCURVE",
"415 161 CURVE SMOOTH",
"415 166 OFFCURVE",
"413 170 OFFCURVE",
"411 170 CURVE SMOOTH",
"410 170 OFFCURVE",
"409 169 OFFCURVE",
"407 166 CURVE SMOOTH",
"382 120 OFFCURVE",
"356 79 OFFCURVE",
"326 46 CURVE SMOOTH",
"311 29 OFFCURVE",
"289 10 OFFCURVE",
"267 10 CURVE SMOOTH",
"250 10 OFFCURVE",
"245 23 OFFCURVE",
"245 37 CURVE SMOOTH",
"245 47 OFFCURVE",
"248 58 OFFCURVE",
"251 67 CURVE SMOOTH",
"258 87 OFFCURVE",
"268 105 OFFCURVE",
"272 113 CURVE SMOOTH",
"292 151 OFFCURVE",
"320 194 OFFCURVE",
"337 235 CURVE SMOOTH",
"345 253 OFFCURVE",
"349 269 OFFCURVE",
"349 283 CURVE SMOOTH",
"349 312 OFFCURVE",
"330 330 OFFCURVE",
"285 326 CURVE SMOOTH",
"257 323 OFFCURVE",
"228 303 OFFCURVE",
"200 275 CURVE SMOOTH",
"176 252 OFFCURVE",
"156 227 OFFCURVE",
"139 203 CURVE",
"148 226 OFFCURVE",
"156 256 OFFCURVE",
"156 282 CURVE SMOOTH",
"156 305 OFFCURVE",
"150 324 OFFCURVE",
"133 333 CURVE SMOOTH",
"129 335 OFFCURVE",
"125 334 OFFCURVE",
"125 329 CURVE SMOOTH",
"125 328 OFFCURVE",
"125 328 OFFCURVE",
"125 327 CURVE SMOOTH",
"126 316 OFFCURVE",
"117 275 OFFCURVE",
"105 238 CURVE SMOOTH",
"80 156 OFFCURVE",
"41 73 OFFCURVE",
"4 0 CURVE",
"18 2 OFFCURVE",
"55 -12 OFFCURVE",
"75 35 CURVE SMOOTH",
"91 73 OFFCURVE",
"112 121 OFFCURVE",
"139 167 CURVE SMOOTH",
"155 195 OFFCURVE",
"184 234 OFFCURVE",
"204 258 CURVE SMOOTH",
"237 296 OFFCURVE",
"263 308 OFFCURVE",
"281 308 CURVE SMOOTH",
"293 308 OFFCURVE",
"303 301 OFFCURVE",
"303 286 CURVE SMOOTH",
"303 279 OFFCURVE",
"301 271 OFFCURVE",
"296 261 CURVE SMOOTH",
"269 204 OFFCURVE",
"220 146 OFFCURVE",
"201 87 CURVE SMOOTH",
"198 77 OFFCURVE",
"196 66 OFFCURVE",
"196 57 CURVE SMOOTH",
"196 21 OFFCURVE",
"219 -6 OFFCURVE",
"258 -6 CURVE SMOOTH"
);
}
);
width = 326;
}
);
note = n;
unicode = 006E;
},
{
glyphname = o;
lastChange = "2021-05-06 18:17:23 +0000";
layers = (
{
anchors = (
{
name = bottom;
position = "{125, -10}";
},
{
name = center;
position = "{189, 158}";
},
{
name = ogonek;
position = "{153, -11}";
},
{
name = top;
position = "{259, 330}";
},
{
name = topright;
position = "{292, 315}";
}
);
layerId = "23C1765D-E8A9-427D-A2B9-D2B95394C525";
paths = (
{
closed = 1;
nodes = (
"262 21 OFFCURVE",
"290 55 OFFCURVE",
"310 88 CURVE",
"322 72 OFFCURVE",
"341 64 OFFCURVE",
"362 64 CURVE SMOOTH",
"368 64 OFFCURVE",
"374 65 OFFCURVE",
"380 66 CURVE SMOOTH",
"422 76 OFFCURVE",
"444 112 OFFCURVE",
"462 148 CURVE SMOOTH",
"466 157 OFFCURVE",
"468 162 OFFCURVE",
"468 166 CURVE SMOOTH",
"468 169 OFFCURVE",
"467 170 OFFCURVE",
"465 170 CURVE SMOOTH",
"462 170 OFFCURVE",
"458 166 OFFCURVE",
"454 159 CURVE SMOOTH",
"435 124 OFFCURVE",
"409 77 OFFCURVE",
"362 77 CURVE SMOOTH",
"343 77 OFFCURVE",
"327 87 OFFCURVE",
"318 100 CURVE",
"318 101 LINE",
"335 131 OFFCURVE",
"346 163 OFFCURVE",
"351 195 CURVE SMOOTH",
"353 207 OFFCURVE",
"354 219 OFFCURVE",
"354 230 CURVE SMOOTH",
"354 286 OFFCURVE",
"329 330 OFFCURVE",
"259 330 CURVE SMOOTH",
"185 330 OFFCURVE",
"134 273 OFFCURVE",
"99 208 CURVE SMOOTH",
"87 185 OFFCURVE",
"74 156 OFFCURVE",
"68 127 CURVE SMOOTH",
"64 110 OFFCURVE",
"62 94 OFFCURVE",
"62 80 CURVE SMOOTH",
"62 12 OFFCURVE",
"104 -20 OFFCURVE",
"155 -20 CURVE SMOOTH",
"179 -20 OFFCURVE",
"205 -12 OFFCURVE",
"229 2 CURVE SMOOTH"
);
},
{
closed = 1;
nodes = (
"131 -8 OFFCURVE",
"111 15 OFFCURVE",
"111 58 CURVE SMOOTH",
"111 87 OFFCURVE",
"120 126 OFFCURVE",
"143 175 CURVE SMOOTH",
"162 216 OFFCURVE",
"223 310 OFFCURVE",
"277 311 CURVE SMOOTH",
"309 311 OFFCURVE",
"327 293 OFFCURVE",
"334 266 CURVE SMOOTH",
"336 260 OFFCURVE",
"338 244 OFFCURVE",
"338 228 CURVE SMOOTH",
"338 218 OFFCURVE",
"337 207 OFFCURVE",
"335 198 CURVE",
"332 220 OFFCURVE",
"321 231 OFFCURVE",
"310 231 CURVE SMOOTH",
"298 231 OFFCURVE",
"286 220 OFFCURVE",
"280 198 CURVE SMOOTH",
"277 188 OFFCURVE",
"276 178 OFFCURVE",
"276 167 CURVE SMOOTH",
"276 145 OFFCURVE",
"283 121 OFFCURVE",
"300 101 CURVE",
"288 80 OFFCURVE",
"273 59 OFFCURVE",
"254 40 CURVE SMOOTH",
"223 9 OFFCURVE",
"188 -8 OFFCURVE",
"157 -8 CURVE SMOOTH"
);
}
);
width = 378;
}
);
note = o;
unicode = 006F;
},
{
glyphname = p;
lastChange = "2021-05-06 10:42:46 +0000";
layers = (
{
layerId = "23C1765D-E8A9-427D-A2B9-D2B95394C525";
paths = (
{
closed = 1;
nodes = (
"-78 -281 OFFCURVE",
"25 -88 OFFCURVE",
"66 28 CURVE",
"71 11 OFFCURVE",
"84 1 OFFCURVE",
"109 1 CURVE SMOOTH",
"113 1 OFFCURVE",
"118 1 OFFCURVE",
"123 2 CURVE SMOOTH",
"156 5 OFFCURVE",
"189 31 OFFCURVE",
"212 53 CURVE",
"218 33 OFFCURVE",
"235 25 OFFCURVE",
"255 25 CURVE SMOOTH",
"275 25 OFFCURVE",
"297 33 OFFCURVE",
"314 44 CURVE SMOOTH",
"349 68 OFFCURVE",
"370 99 OFFCURVE",
"393 139 CURVE SMOOTH",
"395 143 OFFCURVE",
"395 148 OFFCURVE",
"395 153 CURVE SMOOTH",
"395 158 OFFCURVE",
"395 162 OFFCURVE",
"393 162 CURVE SMOOTH",
"393 162 OFFCURVE",
"392 162 OFFCURVE",
"391 160 CURVE SMOOTH",
"370 122 OFFCURVE",
"345 86 OFFCURVE",
"314 61 CURVE SMOOTH",
"300 49 OFFCURVE",
"277 40 OFFCURVE",
"259 40 CURVE SMOOTH",
"242 40 OFFCURVE",
"228 47 OFFCURVE",
"224 66 CURVE",
"248 91 OFFCURVE",
"267 116 OFFCURVE",
"277 134 CURVE SMOOTH",
"295 165 OFFCURVE",
"322 224 OFFCURVE",
"322 268 CURVE SMOOTH",
"322 300 OFFCURVE",
"308 324 OFFCURVE",
"266 324 CURVE SMOOTH",
"239 324 OFFCURVE",
"206 307 OFFCURVE",
"167 263 CURVE",
"199 336 OFFCURVE",
"243 392 OFFCURVE",
"254 408 CURVE SMOOTH",
"280 444 OFFCURVE",
"299 452 OFFCURVE",
"312 453 CURVE SMOOTH",
"317 453 OFFCURVE",
"316 456 OFFCURVE",
"314 457 CURVE SMOOTH",
"309 459 OFFCURVE",
"304 459 OFFCURVE",
"299 459 CURVE SMOOTH",
"282 459 OFFCURVE",
"265 452 OFFCURVE",
"251 441 CURVE SMOOTH",
"165 378 OFFCURVE",
"94 219 OFFCURVE",
"54 116 CURVE SMOOTH",
"18 25 OFFCURVE",
"-42 -129 OFFCURVE",
"-101 -213 CURVE SMOOTH",
"-132 -258 OFFCURVE",
"-174 -302 OFFCURVE",
"-229 -321 CURVE SMOOTH",
"-246 -327 OFFCURVE",
"-264 -330 OFFCURVE",
"-281 -330 CURVE SMOOTH",
"-340 -330 OFFCURVE",
"-392 -294 OFFCURVE",
"-392 -229 CURVE SMOOTH",
"-392 -224 OFFCURVE",
"-394 -220 OFFCURVE",
"-398 -229 CURVE",
"-402 -241 OFFCURVE",
"-403 -251 OFFCURVE",
"-403 -261 CURVE SMOOTH",
"-403 -318 OFFCURVE",
"-348 -346 OFFCURVE",
"-289 -346 CURVE SMOOTH",
"-267 -346 OFFCURVE",
"-246 -342 OFFCURVE",
"-226 -335 CURVE SMOOTH"
);
},
{
closed = 1;
nodes = (
"84 16 OFFCURVE",
"77 27 OFFCURVE",
"77 45 CURVE SMOOTH",
"77 89 OFFCURVE",
"125 173 OFFCURVE",
"137 191 CURVE SMOOTH",
"171 245 OFFCURVE",
"220 308 OFFCURVE",
"252 308 CURVE SMOOTH",
"270 308 OFFCURVE",
"276 296 OFFCURVE",
"276 278 CURVE SMOOTH",
"276 240 OFFCURVE",
"245 175 OFFCURVE",
"234 156 CURVE SMOOTH",
"206 105 OFFCURVE",
"150 16 OFFCURVE",
"103 16 CURVE SMOOTH"
);
}
);
width = 314;
}
);
note = p;
unicode = 0070;
},
